<?xml version="1.0" encoding="utf-8"?>
<!-- Generator: Adobe Illustrator 23.1.1, SVG Export Plug-In . SVG Version: 6.00 Build 0)  -->
<svg version="1.1" id="Слой_1" xmlns="http://www.w3.org/2000/svg" xmlns:xlink="http://www.w3.org/1999/xlink" x="0px" y="0px"
	 viewBox="0 0 8830 2997.7" style="enable-background: new 0 0 8830 2997.7;" xml:space="preserve">
<style type="text/css">
  .st0 { fill: none; }
  .st1 { fill: #e18f0c; }
  .st2 { fill: #e18f0c; }
  .st3 { fill: #010101; }
</style>
<rect x="-1346" y="-916.4" class="st0" width="11328" height="4950"/>
<g>
	<path class="st1" d="M3243.5,1079.8c-97.8,218-178,396.9-178.2,397.5c-0.4,1,15.3,1.3,76.3,1.3h76.9l31.9-73.5l31.9-73.5h211.6
		h211.6l31.9,73.5l31.9,73.5h77.9c68.3,0,77.9-0.2,77.4-1.5c-0.3-0.8-80.7-179.7-178.8-397.5l-178.2-396h-73.2h-73.1L3243.5,1079.8z
		 M3572.1,1023.4l77.6,179.7l-155.5,0.3c-85.5,0.1-155.7,0.1-155.8-0.1c-0.5-0.4,154.9-359.7,155.6-359.7
		C3494.3,843.6,3529.4,924.5,3572.1,1023.4"/>
	<path class="st1" d="M4050,1081.1v397.5h73h73v-133v-133h62.9h62.9l111.8,133l111.9,132.9l92.2,0.1h92.2L4614.4,1341
		c-63.6-75.7-115.8-138.2-116-138.9c-0.4-0.9,1.2-1.7,4.8-2.5c11.7-2.7,37.7-10.4,49.1-14.6c27.5-10.2,60.7-28.7,81.3-45.4
		c44-35.7,72-84.9,81.3-143.1c11.9-73.9-3.7-146.8-42.7-199.3c-9.1-12.3-27.4-31.2-39.8-41.1c-41.5-33.5-99.1-56.5-165.9-66.4
		c-37.9-5.7-30-5.5-230.7-5.8l-185.8-0.4V1081.1z M4426,815c24.7,3.2,46.9,8.3,63.2,14.6c43.2,16.6,69.4,44.4,79.2,84.2
		c6.6,26.6,5.6,59.9-2.4,84c-5.7,17.1-13.1,29.1-25.4,41.3c-24.5,24.3-59.6,37.1-119.6,43.6c-6.9,0.8-47,1.3-117.7,1.6l-107.3,0.4
		V948.6V812.5l108.3,0.4C4400.1,813.2,4414,813.4,4426,815"/>
	<polygon class="st1" points="4778,748.1 4778,812.6 4908.5,812.6 5039,812.6 5039,1145.6 5039,1478.6 5112.5,1478.6 5186,1478.6 
		5186,1145.6 5186,812.6 5316.5,812.6 5447,812.6 5447,748.1 5447,683.6 5112.5,683.6 4778,683.6 	"/>
	<path class="st1" d="M5588,1081.1v397.5h73h73l0.2-266.6l0.3-266.6l125.5,193.1l125.5,193.1l24-0.3l23.9-0.2l125.6-192.4
		l125.5-192.5l0.3,266.2l0.2,266.2h73h73v-397.5V683.6l-67.7,0.2l-67.6,0.3L6153,913.9c-78.5,126.4-143.1,229.9-143.6,229.9
		c-0.4,0-64.8-103.4-143-229.8l-142.2-229.9l-68.1-0.3l-68.1-0.2V1081.1z"/>
	<path class="st1" d="M6734.5,1079.8c-97.8,218-178,396.9-178.2,397.5c-0.4,1,15.3,1.3,76.3,1.3h76.9l31.9-73.5l31.9-73.5h211.6
		h211.6l31.9,73.5l31.9,73.5h77.9c68.3,0,77.9-0.2,77.4-1.5c-0.3-0.8-80.7-179.7-178.8-397.5l-178.2-396h-73.2h-73.1L6734.5,1079.8z
		 M7063.1,1023.4l77.6,179.7l-155.5,0.3c-85.5,0.1-155.7,0.1-155.8-0.1c-0.5-0.4,154.9-359.7,155.6-359.7
		C6985.3,843.6,7020.4,924.5,7063.1,1023.4"/>
	<polygon class="st1" points="7541,1081.1 7541,1478.6 7831,1478.6 8121,1478.6 8121,1414.1 8121,1349.6 7903.5,1349.6 7686,1349.6 
		7686,1016.6 7686,683.6 7613.5,683.6 7541,683.6 	"/>
	<polygon class="st1" points="8250,1081.1 8250,1478.6 8540,1478.6 8830,1478.6 8830,1414.1 8830,1349.6 8612.5,1349.6 8395,1349.6 
		8395,1016.6 8395,683.6 8322.5,683.6 8250,683.6 	"/>
	<path d="M3468.5,1598.2c-22.6,1.7-32.9,2.7-44.9,4.5c-130.4,18.8-237.3,89.3-298.1,196.4c-47.6,83.8-64.3,189.7-45.9,290.5
		c19.5,106.5,79,197.6,167.4,256.4c61,40.6,133.7,64.7,213.2,70.7c20.3,1.5,73.6,0.6,90.8-1.5c100.4-12.6,185.7-50.7,254.7-113.9
		l11.2-10.2v-149.8l0.1-149.7h-125.5H3566v53v53h59.5h59.5v64.8v64.9l-7.7,5.6c-54.6,39.2-121.9,57.5-194.3,52.8
		c-45.5-3-81.4-12-116.5-29.1c-66-32.3-111.7-89.6-130.5-163.5c-7.1-27.8-10-52.3-10-84c0-22.2,1.1-36.6,4.2-56
		c9.4-59.8,34.2-110.1,73.2-149c48.8-48.6,116.2-74.5,194.1-74.5c78.8,0,146,26.1,202.2,78.5l8.2,7.6l46.9-45.8l46.9-45.8l-6.1-6.3
		c-13.4-14-36.7-33.2-56.1-46.4c-58-39.6-124.4-63.5-197.5-71.3C3528.3,1598.6,3479.4,1597.4,3468.5,1598.2"/>
	<path d="M5010,1598.7c-182.8,12.3-325.6,123.3-372.6,289.6c-25.6,90.6-20.4,195.2,13.8,280.3c20.8,51.5,47.7,92.2,86.7,131
		c68.5,68.1,158.9,107.9,265.6,117c15.5,1.3,63.5,1.3,79,0c74.5-6.3,141.2-27.7,199-63.7c44.6-27.8,86.1-67.7,115.1-110.8
		c55.1-81.8,78.5-184.4,65.9-289.5c-9.8-81.1-42.1-156-92.6-214.5c-10.2-11.8-32.1-33.6-43.4-43.1c-51.4-43.4-117.3-74.4-188-88.3
		C5098.8,1598.9,5051.5,1595.9,5010,1598.7 M5084,1733.1c57.5,7.7,107.8,30.8,146,67.2c42.9,40.7,69.2,95.3,78.7,163.3
		c2.5,18.2,2.5,69.1,0,88c-12.8,94.5-60.4,165.8-136.4,204.3c-34.8,17.6-69.5,26.4-112,28.6c-84.3,4.3-158-22.5-210.3-76.5
		c-39.3-40.5-62.6-91.3-71.5-155.4c-3.5-25.3-3-69,1.1-96.8c9.6-65.5,40.5-124.1,85.9-163c39.1-33.5,90-54.9,143-60.1
		c6.1-0.6,12.6-1.3,14.5-1.5C5030.7,1730.3,5073.2,1731.6,5084,1733.1"/>
	<polygon points="4003,2008.1 4003,2405.6 4293,2405.6 4583,2405.6 4583,2340.6 4583,2275.6 4365.5,2275.6 4148,2275.6 4148,1943.1 
		4148,1610.6 4075.5,1610.6 4003,1610.6 	"/>
	<path d="M5639,2008.1v397.6l223.3-0.4c242.2-0.3,230.4-0.1,265.7-5.8c94.5-15.2,160.6-56.1,191.5-118.4c8.5-17.2,12.5-28.7,16-45.9
		c7.2-35.4,5-73.4-6.2-107.7c-4.7-14.5-17.4-39.7-25.8-51.4c-26.1-36.3-61.7-62-106.3-76.8c-10.7-3.6-12.1-4.3-10-5.1
		c8.2-3.3,24.2-11.7,32.1-16.8c12.9-8.5,21.5-15.8,33.7-28.5c30.1-31.2,48.3-71.9,53-118.2c4.5-45.3-5.5-88.1-28.8-123.1
		c-8.9-13.5-28.6-34-42.2-43.9c-30.1-22.1-70.9-38.4-116.5-46.5c-35.6-6.4-19.5-6-260.2-6.3l-219.3-0.3V2008.1z M6033.5,1741.6
		c84.4,5.1,122.9,31.4,127.4,87.2c1.7,20.1-1.7,41.4-8.5,55.1c-16.5,32.8-52.7,50-114.9,54.6c-8.6,0.7-59.9,1.1-133.2,1.1H5785
		v-99.5v-99.5h115.8C5967.3,1740.6,6023.7,1741.1,6033.5,1741.6 M6041,2068.6c13,0.5,29.6,1.6,37,2.5c51.1,6.2,83.6,21.3,100.4,46.9
		c10.2,15.5,13.6,27.3,14.3,50.6c0.4,14.2,0.2,17.9-1.6,26.6c-9.9,48.1-49.1,72.3-127,78.3c-8.5,0.7-62.6,1.1-146.3,1.1H5785v-103.5
		v-103.5h116.3C5965.2,2067.6,6028.1,2068.1,6041,2068.6"/>
	<path d="M6771.9,1617.3c-1.7,3.8-81.8,182.5-178.2,397.3l-175.2,390.5l76.9,0.3c42.3,0.1,77.1,0,77.4-0.2
		c0.2-0.3,14.6-33.2,32-73.3l31.7-72.8h211.4h211.4l31.7,73l31.7,73l78.5,0.3l78.6,0.2L7101,2008.4l-178.8-397.3l-73.7-0.3
		l-73.6-0.2L6771.9,1617.3z M6925.8,1950.7c42.6,98.5,77.2,179.2,77,179.5c-0.3,0.2-70.2,0.3-155.4,0.2l-155-0.3l77.5-179.3
		c42.6-98.5,77.7-179.2,78-179.2C6848.2,1771.6,6883.3,1852.2,6925.8,1950.7"/>
	<polygon points="7405,2008.1 7405,2405.6 7695,2405.6 7985,2405.6 7985,2340.6 7985,2275.6 7767.5,2275.6 7550,2275.6 7550,1943.1 
		7550,1610.6 7477.5,1610.6 7405,1610.6 	"/>
	<path class="st0" d="M2034.2,1620.3c-0.1-0.6-0.3-1.4-0.7-1.6c-0.3-0.1-0.5-0.3-0.7-0.5c0.6,1.3,1.2,2.7,1.8,4
		C2034.4,1621.7,2034.3,1621,2034.2,1620.3z"/>
	<path class="st2" d="M1705.5,1839.9c0,0,0.1-0.1,0.1-0.1c0,0-0.1-0.1-0.1-0.1C1705.5,1839.8,1705.5,1839.9,1705.5,1839.9z"/>
	<path class="st2" d="M1518.9,1941.7C1518.9,1941.7,1518.9,1941.7,1518.9,1941.7C1518.9,1941.7,1518.9,1941.7,1518.9,1941.7
		c0,0,0.1-0.2,0.1-0.2L1518.9,1941.7c-0.1,0.1-0.1,0.1-0.1,0.1C1518.8,1941.7,1518.8,1941.7,1518.9,1941.7L1518.9,1941.7z"/>
	<path class="st2" d="M1715.3,1842.6c-1,0-3.6,2.9-3.5,3.8c0,0.2,0.4,0.4,0.6,0.5c1.1-0.1,3.7-2.9,3.5-3.8
		C1715.9,1842.9,1715.5,1842.6,1715.3,1842.6z"/>
	<path class="st2" d="M1496.2,1989.1c-0.1,0.1,0.6,0.9,0.8,0.8c1.2-0.2,2-1,2.4-2.1c-0.2-0.2-0.4-0.5-0.7-0.5
		C1497.3,1987,1496.8,1988.1,1496.2,1989.1z"/>
	<path class="st2" d="M1758,1794.7c-0.1-0.5-0.3-1-0.4-1.5c-0.5,0.2-1.2,0.4-1.4,0.7c-0.2,0.3,0.1,1.1,0.5,1.4
		C1757.4,1795.7,1757.9,1795.4,1758,1794.7z"/>
	<path class="st2" d="M1709.8,1838.1c1.7-1.1,3.4-2.3,5-3.4C1712.6,1835,1710.5,1835.6,1709.8,1838.1z"/>
	<path class="st2" d="M1709.3,1838.4c0.1,0,0.2,0,0.4,0c0,0,0,0-0.1-0.1l0.1,0.1c0-0.1,0.1-0.2,0.1-0.3c-0.1,0.1-0.2,0.1-0.2,0.2
		C1709.5,1838.3,1709.4,1838.3,1709.3,1838.4z"/>
	<path class="st2" d="M1715,1834.6C1715,1834.6,1715,1834.6,1715,1834.6L1715,1834.6c0,0,0.1-0.3,0.1-0.3L1715,1834.6
		c-0.1,0.1-0.2,0.1-0.2,0.1c0,0,0.1,0,0.1,0L1715,1834.6z"/>
	<path class="st2" d="M1709.3,1838.4c-1.3,0.1-2.5,0.3-3.5,1.3C1707.1,1839.6,1708.3,1839.2,1709.3,1838.4z"/>
	<path class="st2" d="M1705.6,1839.9c0.1-0.1,0.1-0.1,0.2-0.2c-0.1,0-0.2,0-0.3,0C1705.5,1839.7,1705.6,1839.9,1705.6,1839.9z"/>
	<path class="st2" d="M2042.9,1625.3c-0.1,0.8-1.9,1.4-2.9,2.1c1.3,0.3,2.5,0.5,3.8,0.8C2043.5,1627.2,2043.2,1626.2,2042.9,1625.3
		C2042.9,1625.3,2042.9,1625.3,2042.9,1625.3z"/>
	<path class="st2" d="M1064.7,1922.4c0-0.1-0.4-0.5-0.6-0.5c-0.9,0.1-1.2,0.6-1.1,1.5c0,0,0,0,0,0
		C1063.8,1923.5,1064.5,1923.3,1064.7,1922.4z"/>
	<path class="st3" d="M1836.8,1025.6c0.9,0.2,1.7-0.2,1.9-1.2c0-1.1-0.7-1.6-1.6-1.6c-0.4,0-1.1,0.5-1.2,0.9
		C1835.5,1024.5,1835.8,1025.4,1836.8,1025.6z"/>
	<path class="st3" d="M1467.6,1085.5c0.1,0.4,0.8,0.9,1.2,0.9c0.4,0,1.2-0.5,1.2-0.9c0.5-3.2,0.5-3.2-2.5-8.4
		c-1.1,0.9-0.7,2.1-0.6,3.2C1467.1,1082.1,1467.3,1083.8,1467.6,1085.5z"/>
	<path class="st3" d="M1429.4,990.1c0.2,0.1,0.6,0.1,0.8-0.1c0.2-0.1,0.3-0.5,0.7-1c-0.3-1.8-1.3-3.5-2.9-4.9
		c-0.1-0.1-0.6,0.1-0.8,0.2c-0.2,0.1-0.5,0.4-0.6,0.6C1426.4,987.2,1427.5,988.9,1429.4,990.1z"/>
	<path class="st3" d="M1406.8,963.2c0.3-0.8,0.1-1.5-0.7-2c-0.4,0.3-1,0.5-1.1,0.8c-0.1,0.5,0.2,1.1,0.5,1.4
		C1405.8,963.6,1406.7,963.4,1406.8,963.2z"/>
	<g>
		<g>
			<path class="st2" d="M1078.2,383c0.2-0.4,0.3-0.8,0.5-1.2c-318.7,0-637.4,0-956,0c0,705.4,0,1410.9,0,2116.3
				c0.1-0.3,0.2-0.7,0.3-1c2.3-6.8,5.2-13.6,6.9-20.6c1.3-5.4,3.1-10.4,5.3-15.3c3.3-7.4,6.5-14.9,9.8-22.3
				c4-9.5,7.9-18.9,11.9-28.4c0-286.2,0-572.4,0-858.5c0-372.8,0-745.6,0-1118.4c0-4.2-0.1-8.5,0.2-12.7c0.3-4.4,1.8-5.7,6.2-6.3
				c1.5-0.2,3-0.2,4.5-0.2c3,0,6.1,0,9.1,0c294.8,0,589.6,0,884.4,0C1067.9,404.4,1073.7,394,1078.2,383z"/>
			<path class="st2" d="M2100.5,1581.1c3.8-1.1,7.1-3.3,10.3-5.6c10.4-7.2,20.7-14.6,31.1-21.7c10.5-7.1,20.5-14.7,30.3-25.1
				c-4.9,1.1-7.2,3.1-9.5,5c-8.7,7.5-18.3,13.8-28.1,19.7c-6.5,3.9-12.9,7.7-19.8,10.9c-6.6,3.1-12.5,7.3-17.2,13
				c-0.8,0.9-1.4,2.1-0.5,3.2C2098.1,1581.5,2099.3,1581.5,2100.5,1581.1z"/>
			<path class="st2" d="M2187.7,1526.7c7.7-3.7,14.4-8.7,20.7-14.3c1.4-1.2,2.5-2.7,1.7-4.7c-0.6-1.6-3-2.3-5.5-1.6
				c-2.7,0.8-4.9,2.1-6.8,4.2c-3.7,4-7.5,7.8-11.2,11.7c-1,1.1-1.8,2.4-2.5,3.7c-0.2,0.3,0.1,1,0.3,1.5c0.1,0.2,0.5,0.2,0.9,0.4
				C2186.1,1527.3,2186.9,1527.1,2187.7,1526.7z"/>
			<path class="st2" d="M2066,1602c8.1-3.4,15.3-8.1,21.8-13.8c1-0.9,1.5-2.1,0.8-3.2c-0.7-1-2-1.2-3.2-0.6
				c-7.9,3.8-15.1,8.5-21.3,14.6c-0.4,0.4-0.4,1.1-0.6,1.6c-0.2,0.7,0.1,1.2,0.8,1.3C2064.9,1602,2065.6,1602.2,2066,1602z"/>
			<path class="st2" d="M2305.3,1485c-0.5-0.2-1.2-0.6-1.6-0.5c-4.3,2.1-7.9,5.2-11.1,8.7c-0.3,0.3-0.5,1.2-0.3,1.6
				c0.5,0.9,1.6,1,2.3,0.5c3.5-2.6,7-5.3,10.4-8.1c0.4-0.3,0.4-1,0.7-1.6C2305.5,1485.4,2305.4,1485,2305.3,1485z"/>
			<path class="st2" d="M2274.4,1482.1c-3.7,1.9-6.6,4.7-9.2,8.5c6.3-1.4,6.8-1.7,10.7-8.3
				C2275.3,1482.2,2274.7,1481.9,2274.4,1482.1z"/>
			<path class="st2" d="M2276.1,1482.1c0.1-0.1,0.2-0.1,0.3-0.2c0.1-0.1,0-0.3-0.1-0.4C2276.3,1481.6,2276.2,1481.9,2276.1,1482.1z"
				/>
			<path class="st2" d="M2276,1482.4l-0.1-0.1c0,0,0,0,0,0.1C2275.9,1482.3,2276,1482.4,2276,1482.4c0.1-0.1,0.1-0.2,0.1-0.3
				c-0.1,0.1-0.2,0.1-0.3,0.2C2275.9,1482.3,2276,1482.3,2276,1482.4z"/>
			<path class="st2" d="M1659,1877c2.4,1.3,3.7-0.2,3.6-2.1c-0.1-1.5,0.5-2.2,1.4-2.9c2.5-1.7,4.9-3.3,8.1-3.6
				c1.9-0.1,4.5-0.7,5.1-3.1c0.7-3.1,3.1-4.3,5.3-5.8c7.2-5,14.2-10.3,20.8-16.2c1-0.9,2.4-1.7,2.3-3.4
				c-29.6,18.7-58.5,38.6-86.4,59.7c-16,12-32,23.8-49.3,33.9c-9.4,5.5-18.6,11.2-27.9,16.8c-5.1,3.1-10,6.8-15.9,8.5
				c-2.5,0.7-4.7,2.7-6.9,4.3c-0.9,0.7-1.5,1.9-1.9,3c-0.3,0.8-0.1,1.8,0.2,2.6c0.4,0.9,1.4,1.1,2.3,0.9c1.7-0.5,3.5-1,5.1-1.9
				c4.7-2.8,9.5-5.2,14.8-6.8c4.7-1.4,8.8-4.1,11.7-8.2c2-2.9,4.8-4.5,7.7-6.1c1.9-1,3.8-1.7,5.6-2.8c22.6-14.1,44.4-29.3,65-46.2
				c2.5-2.1,5-4,8.8-4c2.5,0,5.1-1.8,7.6-2.8c0.3-0.1,0.4-0.7,0.6-1c-1.1-1.4-3.1,0.4-4.3-2c4.7-3.5,9.5-7,14.3-10.6
				C1657.3,1876.6,1658.1,1876.5,1659,1877z"/>
			<path class="st2" d="M1099.1,2254.6c-0.9-0.6-1.7-0.3-2.5,0.1c-3.1,1.6-5,4.3-6.6,7.3c-1.6,2.9-3.7,5.4-6.5,7.4
				c-10.4,7.7-20.8,15.5-31.1,23.3c-2.8,2.1-5.6,4.2-7.1,8.1c2.1,0.3,3.4-0.3,4.7-1.1c9.2-5.1,18.5-10.2,27.8-15.2
				c9.7-5.2,15.6-13.9,21.5-22.8c0.8-1.2,1.2-2.8,1.4-4.2C1100.9,2256.4,1100.2,2255.4,1099.1,2254.6z"/>
			<path class="st2" d="M1570.6,1918c3.2-2.6,6.2-5.5,10.4-9.2c-4.1,0-5.9,1.7-7.8,2.9c-11.7,7.5-23.3,15.1-34.9,22.8
				c-4.3,2.8-8.3,6-12.4,9.1c-0.9,0.7-1.8,1.5-1.5,3c8.1-0.5,15.1-4.1,21.4-8.8C1554.2,1931.3,1562.4,1924.6,1570.6,1918z"/>
			<path class="st2" d="M1476.1,1998.7c-3.6,1.4-7.2,2.9-10.8,4.5c-6.8,3.1-11.9,8-14.8,15c-0.6,1.4-1.2,2.8,0.2,4.7
				c5.6-2.5,11-5.7,16-9.4c4.3-3.2,8.4-6.8,12.4-10.5c2.5-2.3,3.1-5.8,1.8-6.3C1478.7,1996.1,1477.6,1998.1,1476.1,1998.7z"/>
			<path class="st2" d="M1400.6,2057.3c12.9,0.2,27.9-10.3,36.6-26.2C1424.4,2038.8,1411.3,2045.8,1400.6,2057.3z"/>
			<path class="st2" d="M1027.7,2311.2c-4.9,2.9-9.9,5.8-12.9,10.9c-0.2,0.3-0.3,0.5-0.4,0.8c-0.4,1.1-1.1,2.3,0,3.2
				c0.6,0.5,1.8,0.9,2.5,0.7c6-1.7,10.7-5.2,13.7-10.8c0.4-0.7,0.4-1.7,0.4-2.1C1030.9,2312.1,1028.8,2310.5,1027.7,2311.2z"/>
			<path class="st2" d="M1771.8,1801.8c-0.7,0.3-1.8,0.4-2.3,1.1c-2.7,3.8-6.8,5.6-10.6,7.8c-2.8,1.6-5.5,3.5-8.2,5.3
				c-0.4,0.3-0.4,1.1-0.6,1.6c0.5,0.2,1.2,0.7,1.6,0.5c3.9-1.3,8.1-2.2,11.7-4.3c4-2.3,8.1-5.2,9.7-10c0.1-0.4-0.2-1-0.4-1.5
				C1772.5,1802,1772.2,1802,1771.8,1801.8z"/>
			<path class="st2" d="M1580.5,1941.1c-4.7,0.3-8.5,2.3-13.4,6.7C1573.5,1946.3,1577.5,1944.8,1580.5,1941.1z"/>
			<path class="st2" d="M682.7,2192.1c-0.6,0.5-0.9,1.6-0.8,2.3c0.2,1.5,1.5,1.7,2.7,1.7c5.8,0.1,11.4-1.1,16.8-3.2
				c6.8-2.6,13.2-5.9,19.2-10c14.6-9.8,27.9-21.1,39.9-34c3.9-4.2,7.5-8.6,9.7-14.2c-10.5,4.3-20.4,9.2-29.9,15
				c-16.5,10.1-31.8,21.9-47.3,33.4C689.3,2185.9,686,2189.1,682.7,2192.1z"/>
			<path class="st2" d="M1603,1551c3.6-4.2,8-7.2,12.4-10.4c4.1-3,8.2-6.2,12.3-9.3c3.1-2.4,5.9-5.2,8.1-8.4c0.7-1,1.3-2,1.8-3.1
				c0.2-0.5,0.2-1.2-0.1-1.6c-0.3-0.4-1.1-0.7-1.5-0.5c-1.9,0.9-3.9,1.8-5.5,3c-6.2,4.9-12.9,8.8-19.8,12.7
				c-8.5,4.8-15.8,11.1-22,18.6c-0.9,1.1-2.1,2.2-1.7,4.4C1593.5,1557.7,1598.9,1555.8,1603,1551z"/>
			<path class="st2" d="M1159.5,1835.9c0.7,0.4,1.7,0.5,2.2,0.6c3.1-0.1,5.7-0.8,8.1-2.2c2.7-1.7,4.3-4.1,4.2-7.4
				c-0.1-1.9-0.5-3.6-2.4-4.5c-1.5-0.7-2.9,0.1-4.2,0.8c-4.1,2.3-5.6,6.9-9,9.8C1157.4,1833.8,1158.4,1835.3,1159.5,1835.9z"/>
			<path class="st2" d="M2127.8,2717c-1-0.7-1.8-1.6-2.8-2.3c-3.9-2.7-5.4-6.3-4.6-11c0.2-1.2,0.4-2.4,0.5-3.6
				c0.1-1.6-0.2-3-1.7-3.9c-1.3-0.8-2.5-1.7-3.7-2.6c-1-0.8-1.7-1.5-2.3-2.1c-541.5,0-1083,0-1624.5,0c0.3-0.1,0.5-0.1,0.8-0.2
				c2.7-0.8,5.3-2,7.8-3.2c0,0,0-0.1-0.1-0.1c-0.1-0.5,0.1-1.3,0.5-1.6c4-2.8,8-5.4,12-8.1c18.5-12.5,37.1-24.9,55.6-37.5
				c7.7-5.3,15.1-11.3,21.5-18.1c6.6-7.1,14.5-12.7,21.9-18.9c1.1-1,2.4-2,3.8-2.5c7.4-2.3,12.2-7.6,16.7-13.4c3.4-4.5,7.2-8,13-9.2
				c3.1-0.6,5.4-2.8,7.5-4.9c2.2-2.2,4.7-3.6,7.5-4.9c3.9-1.7,7.6-3.7,11.3-5.8c6.3-3.5,12.2-7.6,19.5-9.4
				c6.5-1.6,11.9-5.9,17.1-10.1c10.5-8.6,20.9-17.5,30.2-27.4c2.5-2.7,5.1-5.1,8.6-6.4c1.4-0.5,2.8-1.3,3.9-2.2
				c6.4-5.4,14-8.2,21.9-10.2c7.1-1.8,13.5-5.3,19.7-9c4.9-3,9.7-6.1,14.5-9.2c4.9-3.2,8.9-7.3,10.9-13c1.1-3.3,3.3-5.6,6.1-7.6
				c8.1-5.9,16-11.9,23.9-17.9c0.3-0.2,0.3-0.9,0.4-1.4c1.7,0.3,2.9-0.4,3.6-1.9c13.1-9.6,26.4-18.9,39-29.1
				c5.7-4.5,11.8-8.4,17.1-13.3c7.3-6.8,16.7-9.5,25.4-13.6c1-0.5,2.5-0.6,3.1,0.8c0.9,2.1,2.6,2.2,4.5,2.2c7.2,0,13.6-2.4,19-7.2
				c2.7-2.4,5-5.2,6.9-8.4c1.9-3.1,3.6-6.3,5.4-9.4c3-5.3,6.8-9.7,12.7-12.4c5.5-2.5,10.4-6,15.7-9c3.8-2.2,5.6-5.3,5.4-9.7
				c-0.1-1.8-0.1-3.6,0.1-5.4c0.1-1.1,0.5-2.6,1.3-3.2c4.2-3.3,7.1-8.2,12.7-10c3.5-1.1,6.3-3.7,8.5-6.6c3.4-4.4,7.7-7.6,12.6-10.1
				c1.9-0.9,4-1.9,4.6-4.1c1.1-4.4,4-6,8.2-7.1c5-1.3,9.3-4.3,12.6-8.4c3.2-3.9,6.9-6.3,12-7.5c6-1.4,11.3-4.3,13.2-11
				c0.5-1.6,1.9-3.1,3.2-4.3c2.3-2.2,4.8-3.7,8.1-1.6c2.2,1.4,3.1-0.6,4.1-2.1c0.2-0.2,0.3-0.5,0.4-0.8c0.7-2-1-4.5,1-6
				c2.2-1.8,5.6-1.9,7.7-1.4c6.4,1.6,11.1-1.5,16.1-4.3c2.6-1.5,5.1-3.2,7.6-4.8c0.1-0.2,0.2-0.4,0.3-0.5c-0.1,0.2-0.2,0.3-0.3,0.5
				c0.7,0.5,1.4,1,2.1,1.4c-0.8,1.3-1.7,2.5-2.4,3.8c-1.1,2.1-4.6,3.8-3.4,5.8c1.7,2.9,4.8,0.2,7.4,0.1c0.8,0,1.7-0.6,2.5-1
				c20.5-9.8,40.5-20.1,57-36.3c14-13.7,29-26.5,43.6-39.6c3.3-2.9,6.4-6.5,11.5-6.4c0.9,0,2.5-1.2,2.7-2.1c0.6-3.6,3.1-4.6,6.2-5.6
				c4.1-1.3,7.5-3.8,10.6-6.8c2-1.9,4-3.8,6.3-5.1c26-15.4,50.9-32.5,74.5-51.5c1.6-1.3,3-3.1,5.4-3.1c1.1,0,1.7-0.5,1.9-1.4
				c1.1-4.5,5.4-6.4,8.2-9.3c3.2-3.2,6.9-5.9,8.8-10.2c0.6-1.4,1.8-2.2,3.4-2.8c3.5-1.3,6.1-3.7,8.1-6.9c-6.1-1.4-11.2-0.2-16.2,2.8
				c-6,3.6-11.8,7.4-17.1,11.8c-4.7,3.9-9.3,7.8-13.8,11.8c-8.8,7.9-18.1,15.1-28,21.5c-6.8,4.4-13.3,9.5-19.8,14.3
				c-3.4,2.5-6.3,5.6-10.5,6.9c-1.6,0.5-3.2,1.9-4.2,3.3c-2.9,4.1-7,6.7-11,9.3c-16.2,10.6-32.4,21.1-48.6,31.7
				c-0.4-0.5-0.9-1.1-1.3-1.6c3.6-9,9.2-16.2,17.8-20.9c1.9-1,3.5-2.3,4.7-4.1c2.3-3.1,4.8-6.1,7.2-9.2c4.1,0.7,6.3-3,9.5-4.3
				c5.8-2.4,11.3-5.7,17.2-8.2c16.6-7.2,30.8-17.8,44.5-29.3c6.9-5.8,13.6-11.9,20.4-17.9c7-6.2,15-11.2,22.6-16.6
				c1.7-1.2,3.5-2.3,5.3-3.5c0.4-2.4-2.1-1.6-2.8-2.7c-2.1-3.2-0.1-7.6,3.9-8.1c0.7-0.1,2,0.5,2.2,1.1c0.5,1.4,0.6,2.9,0.9,4.4
				c0.3,1.2,1.3,1.2,2.1,1c2.4-0.6,4.3-2.2,6-3.8c7.7-7.4,16.9-12.7,25.6-18.6c2-1.3,4.2-2.4,6.4-3.2c8.6-3,13.5-9.4,14.5-18
				c0.6-5.8,3.2-9.3,7.8-12.2c4.6-2.9,9-6.1,13.5-9.1c12-8.1,24.6-15.2,35.8-24.4c3.1-2.5,6.4-4.5,10.1-5.9c0.4,0.5,0.8,1.1,1.2,1.6
				c-4.6,4.3-9.4,8.4-13.8,12.8c-6.9,6.8-14.5,12.7-22.5,18c-2.3,1.5-4.4,3.1-6.4,4.9c-1,0.8-2.5,1.6-2,3.4c2,0.9,3.5-0.2,5.1-1
				c5.9-3,11.5-6.5,16.9-10.4c8.3-6,16.5-12.1,24.8-18.1c3.9-2.8,7.5-6,10.2-10.1c1.3-2,2.6-4.1,5.3-4.5c-0.1-3.1,2-4.6,4.1-6.1
				c-4.9,0.3-9,2.7-13.2,4.9c-0.6-0.6-1.1-1.2-1.7-1.8c7.2-6.5,15.3-11.5,23.4-16.7c7.6-4.8,16.4-7.7,22.7-14.5
				c2.3-2.4,5.4-3.7,8.6-4.8c13.5-4.7,25.7-11.9,36.7-21c2.1-1.7,4.3-3.3,6.6-4.8c16.5-10.2,31.7-22,45.5-35.6
				c5.9-5.8,12.5-9.3,20.8-9.5c4.6-0.1,8.9-1.7,12.9-3.7c5.4-2.7,6.8-5.7,5.8-11.8c-0.3-1.7-1.3-3.4-0.7-5.4c2.5-1.9,5.9,0,8.5-1.9
				c2.5-1.7,4.9-3.6,7.4-5.1c6.4-3.9,13.3-7.2,18.9-12.4c2-1.9,4.4-1.6,6.8-1.6c6.7,0.1,13.2-1.2,19.5-3.4c2.7-0.9,4.8-2.5,5.7-5.3
				c1.5-4.7,3.9-12.6,6.8-16.2c3.2-4,8.5-5.9,11.6-11.3c5.7-10.1,7.2-22.7,3.2-33.6c-1.3-3.5-3.1-6.9-4.2-10.5
				c-0.7-2.1-1.1-4.3-2-6.4c-1.6-3.5-4.4-6.2-6.9-9.1c-5.4-6.3-9.2-13.7-13-21.1c-9.5-18.5-18.9-36.9-28.4-55.4
				c-4.4-8.5-8.7-17.1-13.1-25.6c-13.1-25.6-26.2-51.2-39.3-76.8c-12.3-0.4-17.5,5.3-26.6,11.3c-5.6,3.6-10.8,7.7-16,11.9
				c-2.8,2.3-5.7,4.5-8.8,6.3c-12.1,6.9-22.9,15.6-34.2,23.6c-14.3,10.1-27.9,21.1-42.7,30.6c-11.1,7.2-21.6,15.3-32.4,23
				c-1.5,1.1-2.9,2.1-4.5,3c-9.5,5.8-19.3,11.2-27.4,18.9c-6.4,6.1-14.2,10-21.3,15.2c-7.3,5.3-14.5,10.7-21.9,15.9
				c-4.6,3.3-9.6,6.1-15,8c-0.4-1.3,0.5-2.1,1.3-2.8c22.4-19.9,45.2-39.2,70.4-55.6c14.4-9.4,29-18.7,42.4-29.5
				c8.7-7,18.1-13.2,28.1-18.3c10.9-5.5,17.1-15,22.9-25c0.4-0.6,0.5-1.9,0.1-2.4c-0.8-1.1-2.2-0.7-3.3-0.3
				c-1.1,0.4-2.2,1.1-3.2,1.8c-21.2,14-42.5,27.8-63.6,41.9c-16.6,11.1-31.8,24.2-47.2,36.9c-13.6,11.2-27.8,21.4-42.8,30.5
				c-15.9,9.6-30.3,21.1-44,33.4c-6.5,5.9-13.2,11.5-20.9,15.8c-2.1,1.2-3.9,2.8-5.7,4.5c-2.8,2.8-4.1,5.7-2.9,5.9
				c2.4,0.4,3.7-1.6,5.4-2.7c5.2-3.2,10.6-5.7,16.4-7.5c3.5-1.1,6.8-2.5,10.1-3.9c0.7-0.3,1.3-0.4,1.6,0.3c0.2,0.5,0.2,1.4,0,1.6
				c-7.3,5.1-12.9,13-22.8,14c-2,0.2-3.2,1.7-3.8,3.5c-1.4,3.9-4.2,6.6-7.3,9.1c-3.4,2.7-7.1,4.8-11.6,4.4c-3.2-0.3-5.4,0.9-6.3,3.8
				c-1.4,5.1-4.9,7.7-9.5,10.1c-4.1,2.1-8.6,4.2-11.4,8.4c-1.6,2.4-4.1,3.5-6.8,4.1c-2.1,0.4-4.1,1.1-6.2,1.2
				c-4.2,0.3-6.6,2.2-7.2,6.6c-0.4,2.8-2.2,4.8-4.5,6.6c-9.7,7.7-18.8,16.1-30.6,20.5c-2.1,3.5-5.5,3-8.8,2.9c-2.9-0.1-5.9,0-8.7,0
				c-0.6-2.4,1.1-3.1,2.1-3.9c6.9-6,13.2-12.4,19.3-19.1c5.9-6.6,12.6-12.2,19.9-17.1c3.8-2.6,7.5-4.9,12.4-5c2,0,4-1.2,6-2
				c1.1-0.4,2.3-1.6,3.3-1.4c5.6,0.9,8.9-2.5,12.7-5.6c2.5-2.1,5.8-3.2,8.5-5.1c3.2-2.2,4.8-7.4,3.6-11.2c-0.2-0.7-1.1-1.5-1.8-1.8
				c-2.5-1-5.1-0.6-6.5,1.7c-4.1,6.5-11.9,8.1-16.8,13.4c-0.7,0.8-2.1,1.2-3.3,1.3c-4.7,0.5-8.6,2.9-12.2,5.6
				c-16.2,12.2-33.9,22.1-51,32.9c-4.6,2.9-9,6.1-13.7,8.9c-9.8,5.8-17.4,14-24.6,22.5c-2.7,3.2-4.6,7.1-6.7,10.7
				c-1.5,2.5-3.5,4.2-6.5,4.3c-8.4,0.5-15.3,5.1-22.9,8c-1.7,0.7-3.1,1.9-4.1,3.4c-1.4,2.3-3.3,4.5-4,7c-1.7,5.9-6.1,7.8-11.4,8.6
				c-0.8,0.1-2.3,0-2.5-0.4c-1.4-4-3-2.2-5-0.4c-1.8,1.6-4.1,2.7-5.7,4.4c-2.3,2.5-5,4.3-8.1,5.7c-6.1,2.8-11.4,6.7-16.4,11.3
				c-4.5,4.1-9.2,7.8-13.8,11.7c-3.7,3.1-7.4,6.3-10.9,9.6c-1.5,1.4-3.3,3.2-3.6,5.1c-0.7,4.1-3.9,5.9-6.7,8.3
				c0.7,0.7,1.4,1.3,2,1.8c0.8,0.7,1.1,1.7,0.3,2.3c-1.2,0.8-2.7,1.4-4,1.9c-1.8,0.7-2.1,0.2-1.5-2.9l0,0c-2-0.7-3.4,0.7-4.9,1.6
				c-5.1,3.2-10.3,6.4-15.4,9.6c-1.3,0.8-2.5,1.8-3.8,2.4c-6,2.8-6,2.8-9,6.3c-1.8,2-3.8,3.9-5.9,5.6c-7.6,6-15.3,11.8-23,17.7
				c-1.8,1.4-3.1,1.6-5.6,0.7c-6.8-2.5-16,3-17.7,10c-0.2,1,0,1.9,0.8,2.4c2.9,1.5,2.2,3.1,0.2,4.7c-3,2.5-6.1,4.9-9.2,7.4
				c-0.9,0.8-2.3,1.3-2.7,2.3c-4.5,9.7-15,13.7-21.2,21.8c-1,1.3-2.5,1.7-4,1.7c-2.4,0.1-4.8,0.1-7.3,0.1c-4.5,0-8.6,1.6-11.1,5.2
				c-8.8,12.1-21.9,16.6-35.5,20.2c-4.7,1.2-9.3,2.5-13.6,4.7c-5.5,2.9-10.3,6.7-12,12.9c-1.6,6-5.8,9.4-10.6,12.5
				c-14.5,9.4-27.8,20.3-41.2,31.2c-0.4,0.4-0.7,1-1,1.5c1.4,1.3,2.7,0.3,4-0.2c4.2-1.7,8.1-4,11.8-6.6c7.9-5.6,15.8-11.2,23.6-16.9
				c1.9-1.4,3.5-3.3,5.2-5c1.4-1.5,2.7-3.3,5.3-4.2c0.1,5.2-0.8,9.6-4.9,12.9c-0.7,0.6-1.2,1.4-2,1.8c-11.9,6.7-20.9,17.2-32.2,24.8
				c-9.2,6.3-17.4,14-26,21.1c-1.5,1.2-2.1,2.6-2.3,4.6c-0.4,3.9-1.3,5-4.1,4.4c-7.4-1.5-11.2,3.4-15.2,7.8
				c-2.2,2.4-4.1,5.2-6.2,7.8c-3.3,3.9-7.4,6-12.1,7.2c-1.1,0.3-2.5,0-3.2,1.2c-3.5,5.6-9.7,8-14.7,11.8c-4.8,3.6-9.5,7.3-14.5,10.7
				c-7.1,4.8-14.8,9.1-20.2,16.2c-1.4,1.8-3.6,2.1-5.5,2.8c-5.9,2.3-11.5,5.4-16.6,9.2c-3.2,2.3-6,5-8.5,8.1
				c-13.3,17.1-41,25-60.9,31.4c-16.5,47.5-45.4,89.7-65,135.9c-20.6,48.6-30.8,101.4-54.6,148.5c-5.3,10.4-11.2,20.5-15.6,31.3
				c-5.6,13.7-8.8,28.3-14.1,42.2c-6.6,17.3-16.3,33.3-23,50.6c-4.4,11.4-4.7,23.5-6,35.4c-0.7,6.5-6.7,18.4-1.5,21.9
				c7.7,5.1,27.2-0.5,36.2-0.5c27.8,0,55.5,0,83.3,0c55.5,0,111,0,166.5,0c111,0,222,0,333.1,0c111,0,222,0,333.1,0s222,0,333.1,0
				c111,0,222,0,333.1,0c14.4,0,28.9,0,43.3,0c7.2,0,14.4,0,21.6,0c2.8,0,18.4-1.9,20,0C2131.7,2720.3,2130,2718.5,2127.8,2717z"/>
			<path class="st2" d="M3006.4,865.6c-4.2,3.9-9.2,6.8-14.3,9.5c-10.2,5.3-19.6,11.8-28.5,19.1c-2.8,2.3-5.4,4.8-8,7.3
				c-0.6,0.5-1.1,1.9-0.8,2.4c0.6,0.9,1.7,1.7,2.7,2.1c0.7,0.3,1.9,0.4,2.6,0c8.4-4,17.4-6.7,25.3-11.9c9.6-6.3,18.8-13,27.8-20.2
				c5.4-4.3,11.6-7.4,16.2-12.6c0-1.2,0-2.4,0-3.6C3020.3,856.2,3012.9,859.4,3006.4,865.6z"/>
			<path class="st2" d="M2819.8,1145.5c-3.6,1.5-6.9,3.8-10.1,6.1c-7.5,5.4-13.5,12-17.9,20.2c-0.7,1.3-1.5,2.7-0.2,4.2
				c1.1,1.3,2.6,1.7,4.1,1.5c1.5-0.2,2.9-0.7,4.2-1.3c4-2,8.1-4,12-6.4c14.5-8.8,28-19,41.8-28.8c5.2-3.7,9.9-8,13.8-13
				c5-6.4,9.9-13,16.7-17.8c1.2-0.8,2.2-2,1.5-3.7c-2-0.1-3.3,1.2-4.7,2.2C2861.6,1122.5,2842.2,1136.3,2819.8,1145.5z"/>
			<path class="st2" d="M2885.8,1106.3c0,0,0,0.1,0,0.1c0,0,0,0,0.1,0L2885.8,1106.3z"/>
			<path class="st2" d="M3012.2,983.7c-0.6-0.3-1.7-0.2-2.4,0.2c-6.7,3.4-13.6,6.6-19.5,11.4c-13.3,10.6-27.4,19.8-42.5,27.6
				c-9,4.7-16.3,11.5-21.7,20.1c-1.3,2-2.3,4.2-3.3,6.4c-0.5,1.2-0.3,2.3,1.3,2.6c0.9,0.2,1.6,0.7,1.8,1.7c0.4,1.5,1.3,2,2.6,1.2
				c2.6-1.5,5.1-3.1,7.7-4.8c0.4-0.2,0.6-0.8,0.9-1.2c-0.6-0.1-1.2-0.3-1.8-0.3c-0.9-0.1-1.8,0-2.2-1.1c1.2-1.9,3.2-2.6,4.9-3.6
				c18.9-11.4,37.1-23.9,54.6-37.4c4.3-3.3,8.4-6.9,12.5-10.4c3-2.6,5.6-5.6,7.3-9.1C3013,985.9,3013.5,984.5,3012.2,983.7z"/>
			<path class="st2" d="M2819.2,1095.3c7.1-1.6,13.9-4.3,20.3-7.7c6.7-3.6,13.2-7.3,19.9-10.8c9.3-4.9,16.8-11.9,22.6-20.6
				c2.8-4.1,6.7-8.2,5-13.9c-0.7-2.4-9.7,1.8-14.1,7.4c-2.4,3.1-5.1,4.8-8.4,6.2c-9.7,4.3-18.8,9.7-27.5,15.8
				c-5.6,4-10.6,8.9-17.2,11.6c-3.2,1.3-5.1,4.3-4.8,7.9C2814.7,1094.7,2816.1,1096,2819.2,1095.3z"/>
			<path class="st2" d="M2827,1034.6c9-5.4,18.2-10.6,27.2-16.2c3.3-2,6.3-4.7,9.3-7.2c1.4-1.1,2.7-2.5,3.6-4c0.6-0.9,1-2.4,0.6-3.4
				c-0.5-1.2-2-1.1-3.1-0.7c-7.1,2.7-14.4,4.3-21.8,5.6c-3.5,0.6-7,1.9-10.3,3.3c-10.1,4.3-17.6,11.5-22.1,21.6
				c-1,2.4-0.4,3.5,1.9,3.7c0.9,0.1,1.8,0,3.1,0C2819.4,1038.1,2823.3,1036.9,2827,1034.6z"/>
			<path class="st2" d="M2923.4,1010.3c-8.5,3.2-16.1,8.1-23.1,13.9c-1.6,1.3-3.1,2.9-4.3,4.6c-1.6,2.2-0.1,5.1,2.6,5.2
				c2.8,0.2,5.3-0.7,7.8-2c6.2-3.2,12.1-6.7,17.4-11.3c4.3-3.8,8.6-7.5,13.2-10.9c5.6-4.1,10.4-9,14.9-14.5
				c-5.9,1.7-10.9,4.9-15.8,8.3C2932.1,1006.3,2928,1008.6,2923.4,1010.3z"/>
			<path class="st2" d="M2902.4,994.9c-0.2,0.5-0.7,1.2-0.5,1.7c0.3,0.8,0.9,1.5,1.2,2c2.2-0.4,3.7-0.5,5.2-0.8
				c14.4-3.3,26.6-10.8,37.3-20.8c1.1-1,1.8-2.4,2.5-3.7c0.2-0.4,0.1-1.2-0.2-1.6c-0.3-0.4-1-0.7-1.6-0.6c-0.9,0-1.8,0.3-2.6,0.6
				c-15.1,4.9-28,13.5-40.8,22.6C2902.7,994.3,2902.5,994.6,2902.4,994.9z"/>
			<path class="st2" d="M2995.1,940.2c3-2.3,7-4.1,7-8.7c0-2.3-5.2-1.9-11.4,1.5c-10,5.5-19.9,11.2-29.6,17.1
				c-3.3,2-6.2,4.7-9.2,7.2c-0.7,0.6-0.8,1.4-0.3,2.2c9.8-3.8,19.7-7.4,29.4-11.3C2986,946.1,2990.8,943.5,2995.1,940.2z"/>
			<path class="st2" d="M2887.7,1080.5c0.2,1.6,1.6,2.7,3.2,2.3c1.2-0.2,2.4-0.4,3.4-1.1c5.5-3.6,11-7.3,16.2-14.3
				c-5.8,0.3-9.6,0.3-13.5,0.8C2891,1069.1,2887.1,1074.5,2887.7,1080.5z"/>
			<path class="st2" d="M2889.9,1064.7c0.2-0.8,1-1.5,1.6-2.2c1.3-1.4,2.5-1.2,3.7,0.2c0.5,0.6,1.3,1.1,2.1,1.8
				c0.7-1.2,1.1-2.3,1.8-3.2c0.9-1.2,1.8-2.6,1.3-4.1c-0.6-1.9-1.2-4.6-2.6-5.5c-2.4-1.5-4.3,1.2-6.1,2.5c-2.4,1.8-5.1,3.8-5.4,6.9
				c-0.4,4-3.2,6.1-5.6,8.7C2884.9,1070.4,2888.8,1070.2,2889.9,1064.7z"/>
			<path class="st2" d="M2849.9,1117.6c-7,3.9-14,8-20.2,16.1c9.7-1.7,15.7-6.6,22.1-10.9c0.5-0.3,0.8-0.9,1-1.5
				c0.4-1.1,0.8-2.4-0.4-3.2C2851.7,1117.6,2850.5,1117.3,2849.9,1117.6z"/>
			<path class="st2" d="M2801.2,1037.8c-4.6-1.8-12.5,1.9-14.1,6.6c-0.3,0.9,0.4,1.8,1.3,2c3.9,0.8,11.5-3.2,13.4-7.1
				c0.1-0.2,0-0.6-0.1-0.9C2801.5,1038.2,2801.4,1037.9,2801.2,1037.8z"/>
			<path class="st2" d="M2806.5,983.8c1.8-1.1,4.8,1,6.2-2.3c-5,0.1-9.8-0.4-13.1,6.3C2802.6,986,2804.6,985,2806.5,983.8z"/>
			<path class="st2" d="M2911.4,1053.8c-1.4,0.1-2.9-0.3-4.1,0.8c0.6,1.6,1.8,2.3,3.3,2.6c1.2,0.3,2.4-0.1,2.8-1.4
				C2913.9,1054.1,2912.7,1053.8,2911.4,1053.8z"/>
			<path class="st2" d="M2917.5,916.9c0.4-0.3,1.1-0.6,1.2-1.1c0.3-0.7,0.3-1.6,0.4-2.4c0,0-0.4-0.1-0.7-0.2
				c-1.3,0.6-1.6,1.6-1.4,2.8C2917.1,916.4,2917.3,916.7,2917.5,916.9z"/>
			<path class="st2" d="M2903.4,927.8c0,0-0.3-0.4-0.6-0.7c-0.5,0.6-1,1.2-1.5,1.8c0,0.1,0.3,0.4,0.5,0.6
				C2902.4,928.9,2902.9,928.3,2903.4,927.8z"/>
			<path class="st2" d="M2951.6,959.6C2951.6,959.6,2951.6,959.6,2951.6,959.6L2951.6,959.6c0,0,0-0.1-0.1-0.1c0,0,0,0-0.1,0
				c-0.1,0.1-0.2,0.1-0.3,0.2C2951.4,959.7,2951.5,959.7,2951.6,959.6z"/>
			<path class="st2" d="M2950,960.3c0.4-0.2,0.8-0.4,1.2-0.6C2950.7,959.6,2950.1,959.2,2950,960.3z"/>
			<path class="st2" d="M2880.3,1070.1c-0.8,0.3-1.4,0.8-1.6,1.7C2880,1071.9,2880.4,1071.2,2880.3,1070.1z"/>
			<path class="st2" d="M2878.8,1071.8c-0.1,0-0.1,0-0.2,0c0,0.1,0,0.1,0,0.2c0,0,0.1,0,0.1,0
				C2878.7,1071.9,2878.8,1071.9,2878.8,1071.8z"/>
			<path class="st2" d="M2880.4,1069.9c0,0,0.1,0.1,0.1,0.1c0,0,0.1-0.1,0.1-0.1C2880.5,1069.9,2880.4,1069.9,2880.4,1069.9
				c0,0.1,0,0.1,0,0.2c0.1,0,0.1,0,0.2-0.1C2880.5,1070.1,2880.4,1070,2880.4,1069.9z"/>
			<polygon class="st2" points="2885.8,1106.3 2885.9,1106.4 2886.4,1106.1 			"/>
			<path class="st2" d="M2718.7,1216.6c-6.8,1.8-13,5.2-18.2,9.7c-2.6,2.2-5.2,4.3-8.4,4.7c-7.7,1-13.3,5.1-18.7,10.2
				c-1.9,1.9-4.4,3.2-6.6,4.8c-3,2.2-5.2,5.1-5.8,8.9c-0.2,1,0.5,1.6,1.6,2c0.7-0.1,1.6-0.2,2.5-0.4c3.2-1,6-2.8,8.8-4.7
				c12.2-8.4,24.3-17,37-24.5c2.6-1.5,4.9-3.5,7.3-5.4c0.9-0.7,1.6-1.8,2.2-2.8c0.2-0.4,0.1-1.3-0.2-1.7
				C2720,1216.9,2719.2,1216.5,2718.7,1216.6z"/>
			<path class="st2" d="M2615.3,1278.8c0,0.1-0.1,0.1-0.1,0.2c0.1,0,0.2,0,0.3,0c0-0.1,0.1-0.1,0.1-0.2
				C2615.5,1278.8,2615.4,1278.8,2615.3,1278.8L2615.3,1278.8z"/>
			<path class="st2" d="M2577.4,1301.9c-0.1,0.1,0.1,0.5,0.2,0.8c1.4,0,3-0.3,3.7,1.5c0.9,2.4,2.3,3,4.9,2.5
				c3.7-0.7,6.6-2.5,9.1-5.3c3.3-3.9,6.9-7.5,9.2-12.2c2.2-4.7,8.2-5.6,10.8-10.1c-9.2,0.6-17,4.6-23.9,10.5
				C2586.6,1293.6,2582.6,1298.3,2577.4,1301.9z"/>
			<path class="st2" d="M2550,1309c-0.9,0.1-1.8,0.4-2.5,0.8c-11.3,6.3-21.7,13.9-30.9,23c-0.5,0.5-0.6,1.5-0.8,2.2
				c0.8-0.1,1.8,0,2.5-0.3c10.6-5.1,20.4-11.5,29.1-19.4c1.5-1.4,2.7-3.2,4-4.8c0.1-0.2,0.1-0.7,0-0.9
				C2550.9,1309.5,2550.4,1309,2550,1309z"/>
			<path class="st2" d="M2650.1,1239.2c-1-0.8-2.3-0.6-3.4,0c-8,4.2-15.6,9-22.6,14.7c-0.6,0.5-0.7,1.5-1.1,2.3
				c0.7,0.2,1.3,0.6,1.8,0.5c7.8-1.5,14.7-5.1,21-9.8c1.4-1.1,2.7-2.5,3.6-3.9C2650.2,1242,2651.7,1240.6,2650.1,1239.2z"/>
			<path class="st2" d="M2486,1364.5c1.6,2.2,3.9,0.9,5.8,0.5c0.8-0.2,1.6-0.7,3-1.3c-0.6-1.5-1.1-2.3-1.3-3.1
				c-1.8-5.1-1.6-5.9,2.6-9.2c1.2-0.9,2.5-1.7,3.6-2.7c2.4-2.1,5.1-3.9,5.9-7.5c-6.5,4.7-13.3,8.8-19.4,13.9
				C2484.3,1356.8,2484.3,1362.1,2486,1364.5z"/>
			<path class="st2" d="M2697.8,1211.7c-0.5-0.4-1-0.8-1.5-0.9c-3.3-0.7-6,1-8.3,2.8c-4.6,3.7-9,7.8-13.6,11.9
				c0.7,0.3,1,0.5,1.2,0.5c9.1-1.4,15.7-6.9,22.3-12.7C2698.4,1212.8,2698.4,1212.2,2697.8,1211.7z"/>
			<path class="st2" d="M2558.9,1314.8c0-0.3-0.9-0.9-1.2-0.8c-0.5,0.1-1,0.6-1.3,1.1c-1.2,1.9-1.2,4-0.4,6.6c3.6-0.3,8,2.9,11.1-3
				C2563.4,1319.1,2559.1,1320.7,2558.9,1314.8z"/>
			<path class="st2" d="M2626.9,1268.5c-0.4-0.2-1.2,0-1.5,0.3c-0.8,0.8-1.3,1.7-0.8,2.8c0.7-0.4,1.5-0.7,2.1-1.2
				C2627.1,1269.9,2628.1,1269.2,2626.9,1268.5z"/>
			<path class="st2" d="M2624.4,1271.7c0.1,0,0.1,0,0.2,0.1l0,0c0-0.1-0.1-0.1-0.1-0.2c0,0,0,0,0,0
				C2624.4,1271.6,2624.4,1271.7,2624.4,1271.7z"/>
			<path class="st2" d="M2576.1,1314.2c-0.4-0.2-1.2-0.4-1.5-0.1c-1,0.8-2.6,1.2-2.7,3l-0.1,0.1l-0.2,0.2c0,0,0.1-0.1,0.2-0.2
				c1.2-0.6,2.5-1.2,3.7-1.8C2576.3,1315,2576.5,1314.5,2576.1,1314.2z"/>
			<path class="st2" d="M2576.3,1303.1c0.4-0.1,0.9-0.2,1.3-0.3c0,0,0,0-0.1,0l0.1,0c0,0,0-0.1,0-0.1c0,0-0.1,0-0.1,0
				C2577.1,1302.8,2576.7,1302.9,2576.3,1303.1z"/>
			<path class="st2" d="M2616.2,1277.7c-0.3,0.1-0.5,0.6-0.7,1.1c0.5-0.1,1-0.1,1.4-0.4C2617.4,1278,2617,1277.5,2616.2,1277.7z"/>
			<path class="st2" d="M2515.1,1335.9c0,0,0.2-0.3,0.3-0.6C2514.7,1335.5,2514.6,1335.7,2515.1,1335.9z"/>
			<path class="st2" d="M2515.4,1335.3c0.1,0,0.1,0,0.2,0c0,0,0,0-0.1-0.1l0.1,0.1c0,0,0-0.1,0-0.1c-0.1,0-0.1,0-0.2,0
				C2515.5,1335.2,2515.5,1335.2,2515.4,1335.3z"/>
			<path class="st2" d="M2623.5,1272.7c0.3-0.3,0.6-0.7,0.9-1C2623.5,1271.4,2623.1,1271.6,2623.5,1272.7z"/>
			<path class="st2" d="M2660.3,1165.7c0.1-0.3,0.2-0.7,0.4-1C2660.1,1164.8,2659.1,1164.7,2660.3,1165.7z"/>
			<path class="st2" d="M2766.2,1006.5c-0.1,0-0.1,0-0.2-0.1c0,0,0,0,0.1,0.1l-0.1-0.1c0,0.1,0,0.1,0,0.2c0.1,0,0.1,0,0.2,0
				C2766.2,1006.6,2766.2,1006.5,2766.2,1006.5z"/>
			<path class="st2" d="M2415.5,1069.9c0,0.1,0,0.1,0,0.2c0,0,0.1,0,0.1,0L2415.5,1069.9z"/>
			<path class="st2" d="M2722.2,1168.9c-8.2,5.1-16.7,9.6-25.5,13.7c-17,7.8-33.8,16.1-49.4,26.6c-1.2,0.8-2.6,1.6-3.9,2.2
				c-0.8,0.4-1.9,0.5-2.2-0.6c-0.2-0.8-0.2-1.8,0.1-2.6c0.7-1.9,2.5-2.6,4.1-3.3c23.6-10.6,44.3-25.9,65.4-40.5
				c2.2-1.5,4.3-3.4,6.2-5.3c3.3-3.5,5.7-7.8,11-8.7c0.7-0.1,1.2-1.3,0.6-2.3c-0.3-0.5-0.9-1.3-1.1-1.3c-3.1,1.4-5.4-0.4-7.9-1.8
				c-0.8-0.4-2.5,0-3.4,0.5c-6.9,4.4-14.9,6.7-22,10.5c-15.8,8.3-31.5,16.7-46.6,26.3c-1.8,1.1-3.6,2.1-5.5,3.1
				c-0.2,0.1-0.7-0.3-1.1-0.7c0-0.1-0.1-0.2-0.1-0.4c0,0-0.1,0-0.1,0c0.7-2.8,3.4-3.9,5.2-5.7c1.9-1.9,4.1-3.6,5.3-6.1
				c0.6-1.1,0.7-2.4,0-3.4c-0.8-1.1-2.2-1.1-3.3-0.6c-10.1,4.3-19.2,10.1-27.2,17.6c-2.8,2.7-5.4,5.7-6.8,9.5
				c-0.3,0.8-0.1,1.8,0.8,2.4c0.5,0.3,1.3,0.6,1.7,0.4c2.7-1.3,5.3-2.8,8.1-4c2.3-1,4-3.7,7.1-2.9c0,0,0,0.1,0,0.1
				c0.2,0.2,0.5,0.5,0.8,0.7c0,0,0,0,0,0c0.2,0.4,0.3,0.8-0.2,1.4c-1.6,2.2-3.6,4.1-4.4,6.8c-1.3,4-0.2,6.1,4,7.3
				c0.6,0.2,1.2,0.1,1.8,0.2c2.1,0.3,2.2,1.8,1.9,3.3c-0.5,2.5-2.4,3.9-4.5,3.1c-4-1.6-7.9-3-11.4,0.9c-0.4,0.5-1.8,0.4-2.1-0.8
				c-0.7-2.5-2.6-2.9-4.9-3.1c-4.1-0.4-7.5,1.7-11,3.3c-3.8-4.4-5.4-4.5-8.2-0.6c-0.8,1.2-1.5,2.7-1.7,4.1c-0.3,2.5,1.6,1.9,3,1.8
				c0.2,0.2,0.5,0.4,0.7,0.7c-1.4,2.1-2.4,5-6,3.9c-1.6-0.4-2.9,0.3-4.2,1c-5.4,2.9-10.3,6-11.9,12.6c-0.7,2.9-3.3,3-5.1,0.1
				c-1-1.6-1.7-3-3.7-3.1c0-0.1,0-0.1,0-0.2c-0.1,0-0.1,0-0.2,0c0.4-1.7,3.1-3,2.1-4.5c-1.7-2.5-3.7,0-5.4,0.8c-1.6,0.8-3,2-4.4,3
				c0.2,0.2,0.4,0.4,0.5,0.7c-0.2-0.2-0.4-0.4-0.5-0.7c-1.4,0.4-2.7,0.7-3.5,2.1c-3.1,0.6-5.5,2.6-8,4.2
				c-25.4,16.4-51.5,31.6-79,44.3c-1.1,0.5-2.1,1.3-3.3,1.9c0-6,0-11.9,0-17.9c0.9-0.6,1.8-1.2,2.8-1.8
				c18.9-12.5,37.5-25.4,55.8-38.9c1.9-1.4,3.9-2.8,6.1-3.9c19.4-9.9,37.9-21.3,56.9-32c14.3-8,27.5-17.6,39.7-28.5
				c2.5-2.2,4.8-4.6,6.9-7.2c1.1-1.3,1.9-3.1,2.5-4.7c1-2.4-0.4-4.2-2.9-4.2c-3.7,0-7.1,1.5-10.4,2.9c-3.6,1.6-7.3,3-11.3,2.7
				c-1.2-0.1-2.4-0.1-3.3-1.2c-2.2-2.6-1.7-6.6,1.2-8.6c4.2-2.9,8.8-5.3,13.5-7.4c11-4.9,22-10.1,32.9-15.1c2.1-1,4.6-3.5,6,1
				c0.3,0.9,1.7,0.4,2.4,0c3.5-1.9,6.6-4.3,9.4-7.1c0.6-0.6,1.4-1.7,1.2-2.3c-1.1-3,0.6-4.4,2.6-6c28.1-22.5,56.2-44.9,88.8-60.9
				c4.1-2,8-4.3,11.9-6.5c9.3-5.1,18.5-10.3,26.9-16.8c15.5-12.1,31.9-23,48.6-33.4c3.1-1.9,6-4,8.3-7c6.2-7.9,14.2-13.9,21.8-20.3
				c1.1-1,2.4-2.2,3.8-2.3c6.8-0.8,12.2-5.2,18.4-7.2c6.9-2.3,12-6.7,17.4-11.1c2.5-2,3.6-4.7,4.9-7.4c0.3-0.7,0.3-1.2-0.4-1.4
				c-0.6-0.2-1.2-0.3-1.7-0.2c-2,0.5-2.5,2.5-3.6,3.9c-1.3,1.7-2.9,3.4-5.2,3.1c-3.7-0.5-6.4,1.1-8.9,3.5c-1.1,1-2.4,1.9-4.1,1.4
				c-1.3-1.9,0.5-3.3,0.7-5.1c0.3-2.9-0.6-4.4-3.3-3.8c-6.2,1.4-12.2,3.1-18.3,4.7c-0.3,0.1-0.5,0.3-0.8,0.5
				c-3.5,3-7.7,4.7-12.1,5.9c-2.6,0.7-3.6,2.5-4.9,4.7c-2.1,3.8-4.3,7.7-8.3,10.1c-4.7,2.8-9.4,5.6-13.9,8.5
				c-4.8,3.1-9.2,7-14.3,9.6c-4.8,2.6-8.5,6.5-12.9,9.5c-9.3,6.2-18.5,12.6-27.7,19c-14.6,10.2-29.5,20-44.7,29.2
				c-3.8,2.3-7.7,5-12.6,3.4c-0.2-1.9,1.1-2.8,2.2-3.8c4.9-4.5,9.8-9,14.8-13.4c4.5-4,8.7-8.3,14.4-10.8c2.4-1.1,5.4-2.5,5.7-6
				c-2.2-0.1-4.8,1-5.1-3c-0.1-2.2-2.2-2.6-4.1-2.5c-2.6,0.1-4.6,1.5-6.5,2.9c-4.7,3.2-9.4,6.6-14.1,9.9c-5.2,3.6-10.6,7-16.6,9.2
				c-15.8,5.7-29.7,14.7-42.8,25.2c-13,10.5-26.9,19.6-40.7,28.8c-1,0.7-2.1,1.3-3.1,1.8c-0.9,0.5-2.2-0.8-2.4-2
				c-0.3-1.6,2.2-3.2-0.2-4.9c-2.9,1.2-5.9,2.4-9.2,3.7c-1.3-2.8-2.1-5.3-1.9-8.1c1.1-0.5,2.2-1,3.2-1.6c1.8-1.1,3.5-2.4,5.4-3.3
				c3.1-1.5,5.1-0.3,5.9,3c0.1,0.6,0,1.2,0.1,1.8c0.3,1.9,1.4,2.3,2.9,1.4c3.4-2.1,4.6-6.4,8.4-8.1c2.9-1.3,4.6-3.6,5.2-6.9
				c0.7-4,3-7.4,6.1-9.8c5.3-4,10.8-7.8,16.2-11.6c0.7-0.5,1.8-1,2.5-0.8c4.9,1.3,8.6-1.9,12.8-3.1c4.9-1.4,8.7-3.9,11-8.7
				c1.1-2.4,3.2-3.8,5.7-3.9c5.1,0,9.4-1.5,12.8-5.5c0.9-1,2.7-1.3,4-2c3.4-1.6,6.3-3.7,9-7.1c-5.4,0.2-5.7-0.1-6.6-3.4
				c-0.8-2.9,1.1-3.7,3-4.6c3.5-1.7,7.1-3.3,10.7-5c26.4-12.8,52.4-26.4,76.7-42.8c9.3-6.3,18.7-12.3,28.1-18.3
				c5.9-3.7,11.7-7.6,16.4-12.8c6.1-6.7,12.5-13.1,20.5-17.7c2-1.1,5.4-3.1,4.2-5.1c-1.7-2.9-4.9-0.1-7,0.9
				c-5.2,2.4-10.1,5.3-15.2,8.1c-0.5-0.6-1-1.3-1.5-1.9c0.1-1.1,1-2.5-1-2.7c-0.9-0.1-1.8,0.2-2.6,0.4c-12.7,3.5-23.8,10-33.8,18.4
				c-14.8,12.4-30.8,23.1-48,31.9c-2.7,1.4-5.4,2.8-7.6,4.8c-3.9,3.4-8.4,5.8-12.9,8.3c-6,3.3-12.6,5.6-18.2,9.9
				c-0.7,0.5-1.6,1-2.5,1.1c-1.7,0.1-1.5-1.4-1.7-2.4c-0.7-0.4-1.3-0.6-2.1-0.2c-1.9,1-3.3,2.5-4.3,4.3c-2.9,5.6-8,8.2-13.3,10.6
				c-0.3-0.5-0.7-0.9-1.1-1.4c-0.2-1.7-1.1-2.8-2.8-2.9c-1.9-0.1-3.6,0.5-5,1.7c-2.1,1.8-4,3.7-6.1,5.5c-8,6.9-15.8,14.2-26.3,17.1
				c-2,0.5-2.9,2.1-3.9,3.6c-2.7,4-6.4,6.4-11.2,6.9c-3,0.3-5.1,1.6-7,3.7c-1,1.1-2,2.3-3.1,3.3c-1.6,1.4-3.2,1.5-4.5-0.5
				c-0.5-0.7-1-1.6-2.1-1.1c-0.9,0.4-1,1.3-1,2.2c-0.2,5.5-0.2,5.8-5.1,5.8c-5.2,0-9,2.7-13.2,5c-12.4,6.5-23.3,15.1-34.7,22.9
				c-3.6,2.4-7,4.8-11.5,4.5c-2.4-0.2-4.3,0.6-5.4,2.6c-3.1,5.3-7.9,8.9-12.5,12.8c-4,3.3-7.7,6.8-12.8,8.1
				c-1.5,0.4-1.9,1.5-1.6,2.7c1,4.3-1.1,6.8-4.4,9c-6.1,4.1-6.1,4.2-11.8-1.5c-1.5-1.5-2.8-2-4.7-0.8c-4.6,2.6-8.3,5.7-9,11.5
				c-0.4,3.2-2,4-5.2,3.3c-2.7-0.7-4.6-0.5-6.4,1.7c-0.9,1.1-2.3,1.9-3.6,2.6c-0.9,0.5-1.7,0.2-2.1-0.9c-0.5-1.3-1.4-2-2.8-1.2
				c-2.1,1.2-3.9,2.9-6.1,3.9c-2.4,1.2-3.8,2.7-3.9,5.5c-0.2,3.2-2.1,5.6-4.6,7.5c-3.9,2.9-7.8,5.7-11.8,8.4
				c-0.3,0.2-0.7,0.5-1.1,0.6c0-3.8,0-7.6,0-11.5c3-2.6,6.4-4.4,9.9-6c2.7-1.3,6.1-2,7.2-5c1.3-3.5,4.2-5.1,6.9-6.9
				c16.8-11.4,33.5-22.8,50.4-33.9c31.9-20.9,62.6-43.3,90.1-70c1.1-1.1,2.8-1.8,3-3.5c-1.2-0.6-2-0.3-2.8,0.2
				c-16.3,9.8-32.7,19.5-48.9,29.5c-37.4,22.8-74.7,45.8-112.1,68.6c-1.2,0.7-2.3,1.8-3.7,2.4c0-4.9,0-9.7,0-14.6
				c0.2-0.1,0.4-0.2,0.7-0.3c8.3-3.6,14.3-9.9,20.3-16.3c0,0,0,0,0,0c1.1-0.8,2.5-1.3,2.4-3c-1.7-0.7-2.9,0.1-3.9,1.5
				c-6.6,2.4-12,6.8-18.1,10.1c-0.5,0.2-0.9,0.6-1.4,0.8c0-231.8,0-463.6,0-695.4c-305.1,0-610.2,0-915.4,0
				c3.3,10.9,6.5,21.8,9.9,32.6c285.1,0,570.1,0,855.2,0c4.5,0,9.1-0.1,13.6,0.3c4.4,0.4,5.7,1.9,6.1,6.4c0.1,1.5,0.1,3,0.1,4.5
				c0,2.4,0,4.8,0,7.3c0,208.1,0,416.2,0,624.3c-0.9,0.3-1.8,0.6-2.8,1c0,2.2,0,4.4,0,6.7c0,2.4,0.3,4.8-0.8,7.3
				c-3.2,0.6-6.5,1.1-9.7,1.7c-3,0.5-3.3-1.6-3.8-3.6c-1.6,0.8-3.1,1.8-4.8,2.2c-5.8,1.6-10.2,5-14.1,9.4
				c-4.3,4.8-9.7,8.2-15.8,10.2c-4.4,1.5-7.8,4.1-11.3,7.2c-5.7,4.9-11.6,9.6-18.2,13.4c-10.2,5.9-20.1,12.4-29.5,19.4
				c-1.4,1.1-2.9,2.2-4.5,3c-18.6,9.6-35.6,21.5-51.8,34.7c-3.1,2.5-6.4,4.5-10.2,5.7c-6.7,2.1-12.6,5.5-18.2,9.8
				c-4.8,3.6-10.3,6.3-15.5,9.3c-4,2.3-7.8,4.7-11.1,7.8c-4,3.8-9,6.1-13.5,9.2c-9.9,6.9-20.1,13.3-29.8,20.5
				c-10.1,7.4-21.3,12.6-32.2,18.3c-2,1-3.9,1.5-6.1,1.4c-2.7-0.1-5.5,0-8.2-0.3c-6.2-0.5-11.2,1.8-15.7,5.7c-4,3.5-4.3,4.1-1.6,9.1
				c1.1,2,1.1,3.4-0.6,4.6c-1.9,1.5-3.9,2.9-6,4.1c-0.7,0.4-2.1,0.7-2.5,0.4c-3.2-3-5.4-0.6-7.8,1.1c-9.3,6.6-19.5,12.2-27.1,21
				c-0.8,0.9-2,1.4-3,2c-13.4,7.1-25.6,16-38.2,24.3c-6.6,4.3-13.1,8.6-19.7,12.9c-4.8,3.1-10.2,5.3-15.2,8
				c-2.5,1.4-4.9-0.6-6.8,0.6c-2,1.3-3.8,2.6-6.3,3.1c-5.6,1.2-10.8,3.6-15.6,6.7c0,0,0,0,0,0c0,0,0,0,0.1-0.1c0,0,0,0,0,0
				c0,0,0,0,0,0c4.8-6.4,10.6-11.2,18.7-12.7c0.9-0.2,2.3-0.5,2.4-1c0.8-4.3,5-4.9,7.6-7.3c1.4-1.3,2.3-2.8,2.2-4.8
				c-0.1-1.6,0.2-3.2,1.4-4.1c3.5-2.5,6.1-5.6,8.3-9.3c0.7-1.2,2.3-2,3.7-2.5c8.8-3,14.1-11.4,22.6-14.9c0.5-0.2,0.9-0.8,1.2-1.3
				c3-4.8,7.6-7.6,12-10.8c6.6-4.8,13.4-9.3,19.8-14.4c13.9-11.1,30.1-19,43.7-30.5c1.1-1,2.7-1.3,3.9-2.2
				c4.7-3.3,10.1-5.4,14.1-9.7c2.9-3.1,6.3-5.6,10.2-7.4c2.4-1.1,4.8-2.4,6-5.2c1.4-3.2,3.7-5.5,7.6-5.4c0.9,0,1.6-0.6,2-1.5
				c1-3,2.9-4.4,6.1-4c2.3,0.3,4-1.2,5.6-2.5c2.4-1.8,4.5-4,7.4-5c7.7-2.8,14.3-7.9,20.9-12.5c10.4-7.2,20.1-15.2,31.5-21.1
				c15.2-7.9,29.4-17.8,43.3-28c1.5-1.1,2.8-2.4,4.5-3c7.1-2.4,12.5-7.3,17.8-12.2c3.9-3.6,7.4-7.8,11.4-11.4c4-3.7,8.3-7,12.5-10.5
				c0.5-0.4,1-0.8,1.3-1.3c0.3-0.5,0.6-1.2,0.4-1.6c-1.9-3.9,2.4-5,3.4-7.5c0,0,0,0,0,0c2.4-1.5,5.2-0.9,7.8-1.3
				c3.8-0.6,7.7-1,11.2-2.8c0.4-0.2,0.7-0.9,0.8-1.4c0-0.3-0.6-0.9-1-0.9c-7.3-0.6-14.2,0.3-20.3,4.9c-2.9,0.5-5,2.4-6.5,4.6
				c-2.9,4.1-6.9,6.7-10.8,9.6c-10.5,7.6-21.1,15.2-31.6,22.8c-4.4,3.2-8.8,6.4-13.2,9.6c-4.7,3.4-9.3,6.7-14,10.1
				c-4.4,3.2-9.2,6-13.2,9.6c-4.2,3.8-10.7,4.1-13.7,9.5c-0.5,0.9-2,1.5-3.1,1.6c-4.8,0.6-8.3,3.5-12,6.1
				c-8.1,5.8-15.3,12.7-24.1,17.6c-4.2,2.3-7.6,5.5-12.4,7c-4.1,1.3-7.9,4.3-11.4,7.2c-10.1,8.2-21.1,15-31.8,22.4
				c-8.4,5.8-16.3,12.5-25.7,16.8c-0.5,0.2-0.9,0.8-1.4,1.2c-6.5,5.4-13.3,10.5-20.4,15c-1.3,0.8-2.8,1.5-2.9,3.2
				c-0.2,3.7-2.9,5.3-5.7,6.2c-9.1,2.9-16.7,8.2-24.3,13.8c-6.5,4.8-14.1,8.4-20.3,13.5c-13.2,10.7-27.9,19.1-41.9,28.6
				c-6.7,4.5-13.8,8.2-19.8,13.9c-7.4,7.1-16.9,11.4-25.4,17c-0.2,0.2-0.5,0.2-0.8,0.3c19.2,49,38.5,98.1,57.8,147.1
				c4.3,10.9,8.9,21.7,13.3,32.5c0.4,2.2,0.9,4.4,2.5,6.1c0.5,3.4,1.6,6.6,3.8,9.3c1.4,6.2,3.8,12.1,6.8,17.7
				c0.8,4.8,2.8,9.1,5.1,13.4c1.6,4.8,2.8,9.9,6.3,13.9c3.7,4.3,7.4,8.6,11.1,13c2,2.3,3.6,4.8,4.8,7.6c0.4,0.9,0.8,1.8,1.2,2.7
				c0.2,0.2,0.5,0.3,0.7,0.5c0.4,0.2,0.6,1,0.7,1.6c0.1,0.6,0.2,1.3,0.4,2c0.1,0.2,0.2,0.5,0.3,0.7c0.4,0.6,1,0.7,2.3,0
				c1.8-1.1,1.3-3.2,0.3-4.9c-0.7-1.3-1.8-2.4-2.5-3.8c-1-1.9-1.1-3.4,0-4.6c-2.9-3.4-5.1-7.4-6.8-11.7c-0.8-2.1-2.7-3.1-4.2-4.7
				c-1.4-1.5-1.8-3.2-0.9-5c1-2.1,2.8-3,5.2-2.3c1.1,0.3,2.4,0.4,3.5,0.6c1.7,0.3,3.3,0.7,5,1c0.7,1,1.1,2.5,2,2.8
				c5.7,2.1,6.3,6.5,5.7,11.6c-0.1,0.5-0.1,1.1-0.1,1.6c0.6-0.6,1.2-1.3,1.8-2.1c1.3-1.7,3.1-2.7,5.2-3.5
				c8.4-3.1,15.4-8.2,21.8-14.4c2.2-2.1,4.5-3.9,7.2-5.4c23.5-13.2,45.5-28.7,67.2-44.6c2.9-2.1,5.5-4.6,8.9-6.3
				c1.8-0.9,3.2-2.7,4.7-4.2c2.1-2.2,4-4.5,6.2-6.6c2.3-2.2,4-5.4,8.1-4.5c0.7,0.2,1.8-1.5,2.8-2c5.8-2.6,10.6-6.9,16.9-8.7
				c4-1.1,7.2-3.9,8.8-8.5c1.7-4.9,5.8-8.6,11-7.5c3.7,0.8,6.2,0,9.2-1.5c7.1-3.4,14-6.8,20.1-12.1c4.1-3.5,9-6.1,14.1-8.1
				c3.6-1.4,7-3.4,10.4-5.4c6.3-3.6,12.4-7.4,18.6-11.1c9.3-5.6,18-12.1,28.2-16.3c5.6-2.3,10.1-6.7,14.8-10.3
				c2.9-2.2,6-4.1,9.4-5.4c20.3-7.8,37.8-20.2,54.4-33.8c3.3-2.7,6.5-5.4,9.7-8.1c1.6-1.4,3.4-2.8,5.7-2.4c2.8,0.5,2.7-1,2.8-3
				c0-0.6,1-1.5,1.8-1.8c5.1-2.6,10.2-5,15.2-7.5c1.5,2.1,1.1,4,1.2,5.8c0.1,2-0.8,3.5-2.4,4.6c-1.2,0.9-2.5,1.7-3.7,2.6
				c-29,20.3-58.3,40.1-88.3,58.8c-9.2,5.7-18.7,11.1-28.2,16.5c-12.3,7.1-24.5,14.4-34.9,24.3c-1.4,1.4-2.1,0.8-3.4-0.6
				c-2.4-2.6-5.6-1.7-8.3-0.5c-1.9,0.9-3.7,2.2-5.1,3.7c-3.6,3.8-7.9,6.5-12.4,9c-5,2.8-10,5.7-15,8.5c-5.3,3-10.2,6.5-14.6,10.7
				c-0.9,0.8-1.6,1.7-1.4,3.1c2.4,1,4.7,0.4,6.9-0.8c2.7-1.4,5.4-2.8,8.5-2.9c0.3,0.4,0.7,0.8,1,1.2c-6.3,6.6-14.4,11-21.2,16.9
				c-3.9,3.4-8.2,6-12.8,8.4c-17.7,9.1-34.9,19.2-51.5,30.2c-15.6,10.4-31,21.1-46.5,31.5c-5.8,3.9-11.7,7.6-17.7,10.9
				c-9,5-18.2,9.5-27.2,14.4c-1.1,0.6-2.3,1.2-3.4,1.9c1.2,2.1,2.4,4.1,3.6,6.2c4-2.7,8-5.5,12.1-8c6.1-3.9,12.3-7.7,18.7-10.9
				c16.5-8.2,33.2-15.9,49.2-25.1c2.8-1.6,6.2-2.4,9.3-3.6c1.3-0.5,1.7,0.3,1.8,1.1c0.2,1.8,1.6,1.9,2.6,1.5
				c5.4-2.1,10-5.6,14.3-9.4c0.3-0.2,0.3-1.2,0-1.5c-0.3-0.4-1.1-0.6-1.6-0.5c-1.5,0.3-2.9,0.8-4.4,1.2c-0.4-0.4-0.7-0.8-1-1.3
				c13.2-9.6,26.4-19.2,38.7-30c1.9-1.6,3.9-3,6.5-2.3c2,0.6,3.5-0.1,4.9-1.5c4.6-4.7,8.7-10.1,15.5-11.9c0.5-0.1,0.9-0.8,1.3-1.2
				c3.3-3.4,7.3-5.3,12.1-5.1c3.6,0.1,6.4-1.2,9-3.6c1.3-1.2,2.9-2.1,4.3-3.3c4-3.3,7.9-9.2,9-13.7c-0.9,0.3-1.9,0.4-2.5,0.9
				c-5.8,4.8-12.5,6.2-19.8,5.4c4-2.4,8.1-4.6,12-7.2c7.1-4.6,14-9.5,21-14.2c2-1.3,3.9-2.9,6-4c22.2-11.6,44.3-23.1,66.5-34.7
				c1.5-0.8,3-1.8,4.9-1.5c-1,2.7-4.3,2.7-5.8,4.9c-6.1,3.7-12.3,7.3-18.4,11c-0.7,0.4-1.2,1.1-1.1,2c2.4-1,4.7-2.2,7.1-3.1
				c1.9-0.7,3.5-0.1,4,2.2c0.2,0.8,0.2,1.7,1.3,2c2.4-1,0.7-3.9,2.3-5.3c1.5-1.4,3.2-2.7,4.6-4.2c0.8-0.8,1.3-2,1.9-3
				c1.4-0.4,2.9-1.1,4.3-1c2.3,0.1,4.5,2.6,6.7-1.1c0.9-1.6,4.3-1.4,4.7-4.5c0.3-1.9,2.4-2.6,4.1-3.1c3.8-1.1,6.5-4.2,9.9-5.9
				c1.3-0.7,2-2,1.9-3.6c0.2,0.1,0.5,0.2,0.7,0.2c2.3,0,4.3,0.4,4.8,3c0.4,2.2-1.5,3.1-3,4c-6.1,3.9-11.9,8.1-17.2,13
				c-1,0.9-2.4,1.7-1.5,3.5c9.6-3.6,18.5-8.6,27.5-13.4c8.8-4.6,17.1-10.1,25-16.1c2.4-1.8,4.8-3.6,6.3-6.4c0.6-1,1.2-2.2,0.1-3.2
				c-0.7-0.7-1.6-0.4-2.5-0.1c-6.8,2.6-13,6.3-18.4,11.2c-2.5,2.3-5.3,3.9-8.2,5.4c-1.4,0.7-3.1,1.6-4.2,0.7
				c-1.8-1.3-0.5-3.3,0.1-4.9c0.4-0.9,0.1-1.6-0.3-2.3c1.8,0.9,2.7,0.4,3.5-1.8c1.3,1.1,2.6,0.5,3.9-0.1c3-1.6,5.9-3.4,8.2-6.1
				c0,0,0,0,0,0c0.4-0.3,0.9-0.6,1.3-1c0.6-0.6,1.2-1.3,0.4-2.1c-0.8-0.7-1.5-0.1-2.2,0.3c-0.5,0.2-0.8,0.8-1.2,1.2
				c-1,0.2-2,0.3-3,0.5c-0.1-0.9,0.4-1.5,1.1-2c3.8-2.5,7.3-5.3,11.5-7c0.6,0.5,1.2,1.1,1.8,1.6c-0.3,1.1-1,2.4,0.2,3.2
				c1.3,0.9,3.1,0.8,3.9-0.6c1.7-3.1,4.5-5.2,6.7-7.9c-1.7-0.6-3.1,0.4-4.6,0.9c-0.5-0.6-1-1.2-1.4-1.8c5.8-4.3,11.6-8.6,17.5-12.9
				c1.9-1.4,3.3-0.5,3.4,2c0,0.1,0,0.1,0,0.2c0.7-0.5,1.5-0.9,2.2-1.4c0,402.9,0,805.9,0,1208.8c2.4,3.1,4.1,6.8,6.4,10.1
				c3.7,5.5,6.9,11.3,11.7,16c4.5,6.5,8.1,13.5,8.7,21.5c0.3,3.1,1.4,4.8,3.6,5.7c0-423.4,0-846.7,0-1270.1c1.1-0.2,2.1-0.5,3.2-0.8
				c-1.5-1.3-1.4-2.1-0.5-4.2c1.7-4,4.1-7.3,7.9-9.7c1-0.6,2.9-1,1.9-3.2c-3.7,1.9-7.1,3.8-10.6,5.5c-0.6,0.3-1.2,0.8-1.9,1.1
				c0-3.8,0-7.5,0-11.3c7.1-5.9,14-12,21.2-17.7c3.3-2.6,6.7-5.2,10.9-6.3h0c0.5,0.5,1,1.1,1.5,1.6c-0.6,1-1.2,2.1-2.8,4.9
				c3.7-2.9,8.1-2.6,5.6-7.6c-0.2-0.5,0.4-1.7,1-2.2c1.9-1.5,4-2.7,6-4c10.8-7.2,21.3-15,30.5-24.2c5.8-5.8,11.8-11.1,19.2-14.8
				c6.7-3.4,13.6-6.6,20.1-10.4c14.6-8.5,30.1-15.5,43.6-25.8c4.2-3.2,9.6-5.1,11.9-10.6c0.4-1,1.7-1.7,2.7-2.3c4.5-3,9.1-6,13.6-9
				c1-0.6,2.5-1.6,3.2-1.3c4.2,1.9,5.9-1.4,8.4-3.5c4.7-3.7,10-6.9,15.7-8.4c8.4-2.1,14.8-6.6,20.4-12.8c1.7-1.9,3.2-3.8,2.9-6.4
				c-0.6-4.8,3.2-6.1,6.2-7.8c1-0.6,2.4,0.2,2.7,1.6c0.2,0.8-0.1,1.8-0.1,2.7c0,2.2,0.4,2.6,2.4,1.9c2.5-0.9,2.6-1.2,0.7-4
				c-1.3-1.9-1.4-4.5,0-5.9c1.3-1.2,2.8-2.3,4.3-3.2c3.4-2,6.9-3.7,10.3-5.7c3.1-1.8,6.1-3.7,8.6-7.4
				C2729.1,1166.2,2725.8,1166.6,2722.2,1168.9z"/>
			<path class="st2" d="M2828.2,1120.5c3.5-1.4,6.3-4.6,9.3-7.2c2.1-1.8,3.9-3.8,5.9-5.6c1.8-1.7,3.6-3.2,6.2-3.6
				c4.2-0.5,7.1-3.2,9.8-6.1c5.9-6.5,11.7-13,17.5-19.5c1.7-1.9,2.5-4,1.8-6.4c-6.2,2.9-12.9,4.9-17.5,10.5
				c-0.9,1.1-2.7,1.4-3.9,2.2c-8.2,5.5-17.7,9.1-24.7,16.5c-2.8,3-5.4,5.7-4.9,10.1c0.1,1-0.8,1.6-1.7,1.1c-0.7-0.4-1.3-1.2-1.6-1.9
				c-0.7-1.5,1.8-3.3-0.3-4.9c-7.5,3.4-7.4,4.1-6.8,10.7c0.1,0.9,0,1.8,0,2.7c0,3.5-2,5.6-4.9,7c-1.2,0.6-2.5,0.5-3-0.9
				c-0.4-1.1-0.4-2.4-0.7-3.5c-0.2-1-1-1.4-2-1.3c-1.2,0.1-2.6,0.7-3.5,0.3c-1.6-0.8-1.1-2.6-1-4c0.1-2.1,0.6-4.1,0.8-6.2
				c0.1-0.9-0.4-1.8-1.6-1.6c-0.4,0.1-1.1,0.8-1,1.1c1.9,5.8-1.2,9.2-5.6,11.9c-3.4,2.1-6.8,4-8.4,8c-0.6,1.6-2.2,1.9-3.7,2.2
				c-2.5,0.4-4.5,1.7-5.6,4.1c-1.9,3.8-3.8,7.5-5.8,11.2c-1.3,2.4-2.4,4.9-2.3,7.7c0,1,0.9,1.7,1.8,1.4c1.4-0.5,2.8-1.2,4-2.1
				c8.1-5.7,16-11.7,25.1-16C2810.1,1133.6,2817.6,1124.7,2828.2,1120.5z"/>
			<path class="st2" d="M2467.8,1042.3c0.8-0.1,1.5,0,2-0.1c3.7-1.3,7.5-2.4,11.1-3.9c9.8-4.1,18.8-9.7,27.1-16.3
				c15.6-12.4,31.1-25,46.6-37.6c2.3-1.9,4.4-4.1,6.5-6.3c0.8-0.9,1.4-2,1.9-3.1c0.2-0.4,0-1.1-0.3-1.6c-0.3-0.7-0.9-0.7-1.5-0.4
				c-3,1.5-6.1,2.7-8.9,4.5c-7.8,5.1-15.5,10.4-23.2,15.6c-2.8,5-7.6,7.6-12.3,10.3c-9.9,5.8-19.4,12.2-29,18.4
				c-6.6,4.2-11.6,10.6-19,13.7c-1.7,0.7-2.4,2.7-2.1,4.7C2466.7,1040.9,2467.4,1041.6,2467.8,1042.3z"/>
			<path class="st2" d="M2773,1060.7c2.3-2,4.2-4.3,5.4-7.2c0.2-0.4,0-1.2-0.3-1.6c-0.3-0.3-1.1-0.5-1.6-0.4c-3,0.6-5.4,2.6-8,4.2
				c-5.4,3.3-10.5,7.1-16.1,10.1c-8.3,4.5-16,9.7-23.4,15.4c-11,8.4-22.1,16.7-33.9,24.1c-3.8,2.4-7.4,5-10.8,9.9
				c9.8,0.7,17.3-2.2,24.6-5.9c7-3.6,13.4-8.2,19.4-13.2c10.2-8.5,20.6-16.7,31.4-24.4C2764.5,1068.3,2768.7,1064.5,2773,1060.7z"/>
			<path class="st2" d="M2793.9,1103.8c0.8-0.9,1.2-2.1,1.7-3.2c0.7-1.6,1.6-3.4,0.1-5c-1.3-1.4-3.2-1.8-5-1.4c-2,0.5-4,1.5-5.9,2.2
				c-2.3,0.8-4.5,1.9-6.8,2.4c-11.7,2.5-20.6,9.7-29.2,17.3c-1.5,1.4-2.8,3.2-3.9,5c-1.6,2.6-0.2,5.7,2.7,6.4
				c1.2,0.3,2.4,0.4,3.4,0.6c5.3-0.6,10.1-2.2,15.1-3.6C2778.1,1121.3,2786.2,1112.8,2793.9,1103.8z"/>
			<path class="st2" d="M2667.4,1162.4c24.3-12.4,46.4-28.1,67.9-44.7c1.8-1.4,4.1-2.7,4.7-5.3c-1.7-1.4-3.5-0.7-5.1,0
				c-4.2,1.7-8.3,3.5-12.3,5.7c-21.3,11.6-40.8,25.7-58.5,42.3c-1.3,1.2-2.9,2.2-3.2,4.1C2663.5,1165.2,2665.4,1163.5,2667.4,1162.4
				z"/>
			<path class="st2" d="M2660.7,1164.4c0,0.1-0.1,0.2-0.1,0.2c0.1,0,0.2-0.1,0.2-0.1h0c0,0,0-0.1,0-0.1
				C2660.8,1164.4,2660.8,1164.4,2660.7,1164.4z"/>
			<path class="st2" d="M2593.5,959.3c12.6-4.2,24.7-9.5,35.8-16.7c5.8-3.8,11.3-8,16-13.1c1-1,2.2-2,1.6-3.7
				c-1.2-0.8-2.3-0.4-3.5,0c-4,1.3-7.7,3.4-11.2,5.7c-8.7,5.4-17.8,9.9-28.1,11.7c-3,0.5-5.7,1.8-8.3,3.5c-3.4,2.3-5.6,5.4-6.1,9.5
				C2589.5,958.8,2590.9,960.1,2593.5,959.3z"/>
			<path class="st2" d="M2757.4,1151.1c-0.8-2.8-2.5-3-4.8-1.8c-2.7,1.4-5.2,3.3-8,4.1c-5.5,1.5-9.4,4.9-13.4,8.7
				c0.8,0.3,1.5,0.5,1.8,0.9c1.7,1.9,3.4,2.6,6.2,1.5c3.5-1.5,5.9-4,8.1-6.9c2.5-3.3,4.7-3,6.9,0.5c0.5,0.8,0.7,1.6,1.2,2.4
				c0.6,0.9,2.6,0.8,3-0.1c1.1-2.4,2.2-4.9,3.3-7.4C2760.6,1151.7,2758.1,1153.5,2757.4,1151.1z"/>
			<path class="st2" d="M2743.3,1131.6c-1.6-2.1-3.2,0.1-4.5,0.9c-2.8,1.7-5.4,3.7-7.9,5.5c0.7,3.1,4,2,5,3.7
				c1.5,2.6-1.2,4.4-1.5,6.7c-0.1,0.5,0.3,1.1,0.6,1.5c0.7,0.7,1.9,0.7,2.3,0c1.9-3.2,5.2-6,3-10.5c-0.7-1.4,0.1-2.9,1.2-4.1
				C2742.4,1134.2,2744.4,1133.1,2743.3,1131.6z"/>
			<path class="st2" d="M2553.6,1018.1c-8.9,1.5-18,7.1-30.8,19.2c2.1-0.3,3.1-0.1,3.8-0.6
				C2535.5,1030.6,2545.1,1025.6,2553.6,1018.1z"/>
			<path class="st2" d="M2629.1,1137.8c-0.2,0.5,0,0.9,0.8,1c1.3,0.1,2.4-0.1,2.8-1.5c0.1-0.3-0.4-1.2-0.8-1.2
				C2630.7,1135.9,2629.9,1136.9,2629.1,1137.8z"/>
			<path class="st2" d="M2769.8,1004.9c0-0.1,0-0.1,0-0.2c0,0-0.1,0-0.1,0c0,0,0,0.1,0,0.1
				C2769.7,1004.8,2769.8,1004.8,2769.8,1004.9L2769.8,1004.9z"/>
			<path class="st2" d="M2774.5,1002.8c0.2-0.2,0.5-0.7,0.4-0.7c-0.4-0.3-0.9-0.9-1.3-0.8c-1.9,0.4-4.2,0.5-3.8,3.4
				C2771.7,1004.9,2773.2,1004.1,2774.5,1002.8z"/>
			<path class="st2" d="M2769.7,1004.8c-1.8-0.8-2.8,0-3.5,1.7C2767.8,1006.9,2769,1006.4,2769.7,1004.8z"/>
			<path class="st2" d="M2486.4,1064.6C2486.4,1064.6,2486.4,1064.7,2486.4,1064.6c0.1,0.1,0.1,0.1,0.2,0.1L2486.4,1064.6z"/>
			<path class="st2" d="M2731.8,967.3c-0.6,0.3-0.6,0.7-0.2,1.1c0.3-0.3,0.6-0.7,1-1C2732.3,967.3,2732,967.2,2731.8,967.3z"/>
			<path class="st2" d="M2731.6,968.4C2731.6,968.4,2731.6,968.4,2731.6,968.4C2731.6,968.4,2731.6,968.4,2731.6,968.4
				c0,0.1,0.1,0.1,0.2,0.2C2731.7,968.5,2731.7,968.4,2731.6,968.4z"/>
			<path class="st2" d="M2486.4,1064.6c0,0,0.2,0.1,0.2,0.1C2486.6,1064.7,2486.6,1064.6,2486.4,1064.6
				C2486.5,1064.6,2486.5,1064.6,2486.4,1064.6z"/>
			<path class="st2" d="M2486.9,1063.5c-0.5,0.1-0.6,0.6-0.4,1.1c0.4-0.2,0.9-0.4,1.3-0.6
				C2487.5,1063.8,2487.1,1063.4,2486.9,1063.5z"/>
			<path class="st2" d="M2354.4,1076.2c-6.8,2.3-12.6,6.9-18.1,11.6c-2,1.7-3.6,4-3.9,7.2c1,0.3,1.4,0.5,1.6,0.5
				c17.3-5.6,33.3-13.7,47.1-25.7c2.5-2.2,4.5-4.9,6.6-7.4c0.2-0.3-0.1-1-0.3-1.5c-0.1-0.2-0.6-0.4-0.8-0.3c-2.5,0.9-5.1,1.7-7.5,3
				c-4.5,2.4-8.9,5-13.4,7.5C2362.2,1073,2358.5,1074.8,2354.4,1076.2z"/>
			<path class="st2" d="M2390.9,1033c0.1-0.8-0.2-1.8-0.7-2.4c-0.5-0.7-1.6-1-2.4-0.5c-6.1,3.7-12.2,7.5-18.3,11.3
				c6.9,1.3,12.7-1,18.2-4.2C2389.3,1036.2,2390.6,1034.9,2390.9,1033z"/>
			<path class="st2" d="M2416.5,1069.5c-0.2,0.2-0.4,0.3-0.7,0.5c0.1,0,0.3,0,0.4,0C2416.3,1069.9,2416.4,1069.6,2416.5,1069.5z"/>
			<path class="st2" d="M2415.5,1069.9c0,0,0.1,0.1,0.1,0.1c0.1,0,0.1-0.1,0.2-0.1C2415.7,1069.9,2415.6,1069.9,2415.5,1069.9z"/>
			<path class="st2" d="M2314.3,1457.5c-3.8,3-8.1,5-12.3,7.3c-3.4,1.8-6.6,4.1-9.8,6.3c-0.7,0.5-1.4,1.1-2.1,1.7
				c-0.6,0.6-1.4,1.2-1,2.3c0.4,1,1.2,1.2,2.1,1c0.6-0.1,1.2-0.4,1.7-0.4c3.3-0.3,3.3-0.3,4.9,3.5c0.3,0.8,0.7,1.6,1.3,2.2
				c0.2,0.2,1.4,0.1,1.5-0.2c0.4-0.7,0.9-1.7,0.8-2.5c-0.9-5.8,2.3-9.5,6.2-13.1c3.2-3,7.3-5,9.9-8.7
				C2316.3,1456.6,2315.3,1456.8,2314.3,1457.5z"/>
			<path class="st2" d="M2317.5,1456.9c0.1,0,0.2,0,0.2,0l-0.2-0.2C2317.5,1456.8,2317.5,1456.8,2317.5,1456.9z"/>
			<path class="st2" d="M2317.7,1456.9c0-0.1,0-0.1,0-0.2c-0.1,0-0.1,0-0.2,0.1L2317.7,1456.9z"/>
			<path class="st2" d="M2415.7,1398.7C2415.7,1398.7,2415.7,1398.7,2415.7,1398.7L2415.7,1398.7c-0.1,0.1-0.1,0.1-0.1,0.1
				c0.1,0,0.2,0,0.2,0.1C2415.8,1398.8,2415.7,1398.7,2415.7,1398.7z"/>
			<path class="st2" d="M2352.3,1450.2c0.2,0.1,0.4,0.3,0.5,0.3c0.4-0.2,0.8-0.5,1.2-0.7C2353.3,1449.5,2352.8,1449.6,2352.3,1450.2
				z"/>
			<path class="st2" d="M2354,1449.8c0.1,0,0.1,0,0.2,0.1l0,0c0-0.1,0-0.1-0.1-0.2c0,0,0,0,0,0
				C2354.1,1449.7,2354,1449.7,2354,1449.8z"/>
			<path class="st2" d="M2415.9,1397.6c-0.5,0.1-0.6,0.6-0.2,1c0.4-0.2,0.8-0.4,1.2-0.6C2416.6,1397.9,2416.2,1397.5,2415.9,1397.6z
				"/>
		</g>
		<g>
			<path class="st3" d="M1276.9,27.6c1.6,0,2.9-0.7,3.9-1.9c1.8-2.1,2.6-4.7,2.9-7.4c0.8-6.5-1.1-12.5-3.7-18.3c-1.2,0-2.4,0-3.6,0
				c-2.1,4.1-2.9,8.5-3.4,13c-0.5,3.9-0.6,7.8,1.1,11.6C1274.7,26,1275,27.6,1276.9,27.6z"/>
			<path class="st3" d="M1361.1,25.6c1.5,0.5,3,0.3,4-1c2-2.4,2.7-5.2,2.6-8.7c-0.1-0.5-0.1-1.4-0.3-2.2c-0.1-0.6-0.3-1.2-0.4-1.7
				c-0.5-1.9-2.7-2.2-4.2-0.8c-3.6,3.2-3.1,7.5-3.2,11.6C1359.6,24,1359.6,25.2,1361.1,25.6z"/>
			<path class="st3" d="M552.3,1516.3c4.3-6.3,7.6-13,9.4-20.4c2-8,4.9-15.5,10.2-22c1.1-1.4,1.9-3.1,2.6-4.7
				c4-9.5,8-18.9,11.7-28.4c1-2.7,2.8-5.5,1.7-8.7c-1.4,0-2.2,0.7-2.9,1.8c-1.8,3.2-3.1,6.5-4,10c-2.2,8.2-5.4,16-10.6,22.8
				c-2.2,2.9-3.8,6.1-5.5,9.4c-7.5,15.1-14.9,30.3-21.1,46.1c-1.2,3-3,6-2.6,10.7C545.2,1526.7,548.7,1521.5,552.3,1516.3z"/>
			<path class="st3" d="M646.3,1310.3c3.4-3.2,5.2-7.4,7.3-11.4c10.6-21,19.9-42.6,29.1-64.3c1.2-2.8,2-5.7,2.9-8.6
				c0.1-0.5-0.1-1.5-0.4-1.6c-0.9-0.4-1.8,0-2.3,0.8c-4.1,6.4-7.2,13.2-10.1,20.2c-5.3,13.2-11.7,25.8-18,38.5
				c-3.8,7.5-7.2,15.3-10.7,22.9c-0.5,1.1-0.8,2.3-1,3.4c-0.1,0.3,0.5,0.8,0.9,1.3C644.7,1311.2,645.6,1310.9,646.3,1310.3z"/>
			<path class="st3" d="M600.8,1405.8c3.1-7.2,6.8-14.1,10.9-20.8c5.2-8.5,9.5-17.4,12.4-27c1.9-2.2,4.4-4.1,4.3-7.5
				c3.6-8.8,7.3-17.5,10.9-26.3c0.1-0.2-0.2-0.5-0.4-0.8c-1.5-0.4-2.1,0.8-2.7,1.7c-4.2,5.6-6.8,11.9-7.9,18.8
				c-0.4,2-0.2,4.2-1.4,6.1c-2.2,2.2-4.1,4.5-5.1,7.4c-4.2,4.8-6.8,10.6-9.5,16.3c-4.9,10.3-9.7,20.7-14.4,31.2
				c-1.4,3.2-3.4,6.3-3.7,10.2c0.8-0.3,1.4-0.4,1.7-0.8C598.3,1412,599.5,1408.8,600.8,1405.8z"/>
			<path class="st3" d="M522.9,1576.5c1.4,1,2.4-0.2,3-1c6.4-7.2,9.8-15.7,11-25.2c0.1-0.7-0.3-1.9-0.9-2.3c-1.3-1-2.3,0.3-3,1.1
				c-5.2,6-8.6,13.1-10.8,20.6c-0.3,1.1-0.5,2.3-0.5,2.5C521.6,1574.6,521.8,1575.8,522.9,1576.5z"/>
			<path class="st3" d="M741.1,1105.5c0.4,0.1,1.2-0.2,1.5-0.6c2.6-3.6,4.7-7.5,5.4-13.8c-4.8,4.2-6.8,8.3-7.7,13.1
				C740.3,1104.7,740.7,1105.4,741.1,1105.5z"/>
			<path class="st3" d="M693.8,1206.6c2.1-2.2,2.9-4.9,3.5-9.6c-2.5,3.7-4.4,5.8-5,8.7c-0.1,0.4,0.4,0.9,0.7,1.2
				C693.1,1207,693.6,1206.8,693.8,1206.6z"/>
			<path class="st3" d="M707.9,1176.8c0.3,0,0.7,0,0.9-0.1c1.8-2,3.3-4.2,3.1-7c0-0.3-0.2-0.6-0.4-0.8c-0.2-0.2-0.7-0.3-0.8-0.2
				c-2.6,1.9-3.4,4.6-3.4,7.6C707.3,1176.5,707.7,1176.6,707.9,1176.8z"/>
			<path class="st3" d="M752.6,1077.3c1.3,0.4,2.1-0.4,2.6-1.5c-0.3-0.5-0.5-1.3-0.9-1.4c-1.3-0.5-2.2,0.2-2.5,1.5
				C751.8,1076.3,752.2,1077.2,752.6,1077.3z"/>
			<path class="st3" d="M1135.1,1006.4c-0.5-0.1-1.3,0-1.6,0.3c-1.9,2.6-3.6,5.3-5.3,8c-0.5,0.8-0.4,1.7,0.3,2.4
				c0.7,0.6,1.6,0.5,2.3-0.1c2.5-2.1,4.4-4.7,5.5-7.8c0.2-0.5,0-1.1-0.1-1.8C1135.9,1007.1,1135.6,1006.6,1135.1,1006.4z"/>
			<path class="st3" d="M1155.6,961.4c-0.4-0.2-1.3,0.1-1.5,0.4c-1.4,1.8-3.1,3.6-2.8,6.2c0,0.5,0.5,1,0.7,1.5c0.3,0,0.6,0,0.8-0.1
				c2.4-1.5,3.7-3.7,3.6-6.5C1156.3,962.3,1156,961.6,1155.6,961.4z"/>
			<path class="st3" d="M2535.8,2847c-0.8-0.2-2.2,0.2-2,1.1c0.4,2.6,0.9,5.3,3.6,6.8c0.3-0.1,0.7-0.1,0.9-0.3
				C2539.6,2852.8,2538,2847.7,2535.8,2847z"/>
			<path class="st3" d="M2418.9,2989.2c-0.5-0.2-1.3-0.4-1.6-0.2c-0.3,0.2-0.5,1-0.4,1.6c0.4,2.7,3.3,4.2,3.3,7.1c0.6,0,1.2,0,1.8,0
				C2422.5,2994.3,2422.5,2991.1,2418.9,2989.2z"/>
			<path class="st3" d="M2417.7,2958.1c-2.2-2.7-5.2-2.7-7.7-0.1c-2,2.2-4,4.4-7.2,7.9c2.2-0.4,3-0.8,3.8-0.7
				c2.2,0.2,4.6,1.5,4.4-2.7c-0.1-1.8,2.3-1.7,3.6-1.3c2.9,1.1,4.1,4.8,2.5,7.3c-2.1,3.2-3.4,7-7.3,8.8c-0.9,0.4-0.3,1.6,0.4,2.2
				c1.7,1.5,3.9,1.6,4.8,0.1c1.7-2.8,3.7-5.6,4.6-8.7C2421,2966.6,2420.8,2962,2417.7,2958.1z"/>
			<path class="st3" d="M2313.8,2931.3c-1.1-0.6-2.3-0.3-3.1,0.8c-0.6,0.8-0.6,1.6,0,2.3c1.7,1.9,3.5,3.7,5.7,6.1
				C2317.1,2936.3,2317.1,2933.3,2313.8,2931.3z"/>
			<path class="st3" d="M2453.2,2982.3c-1.8,0.4-2.1,1.9-2.2,3.4c0,0.8,0.5,1.6,0.8,2.4c0.5-0.3,1.2-0.4,1.5-0.8
				c0.6-1,0.9-2.1,1.1-2.7C2454.4,2983.2,2454.4,2982.1,2453.2,2982.3z"/>
			<path class="st3" d="M2240.4,2929.7c-0.6-0.5-1-0.4-1.4,0.3c-0.1,0.3-0.2,0.6-0.1,0.8c0.2,1.3,1.1,2,2.2,2.5
				c0.2,0.1,0.7-0.6,1.1-0.9C2242.5,2930.9,2241.3,2930.4,2240.4,2929.7z"/>
			<path class="st3" d="M2247.8,2948.6c-0.5,0.2-0.8,0.6-1.3,1c0.7,0.4,1.4,0.9,2.2,1.1c0.3,0.1,0.8-0.7,1.1-1
				C2249.4,2948.7,2248.7,2948.3,2247.8,2948.6z"/>
			<path class="st3" d="M2525.9,2943.2c-0.2,0.7-0.1,1.4,0.6,1.5c0.5,0.1,1.1-0.3,1.7-0.5c-0.3-0.5-0.6-1-1-1.5
				C2526.5,2942.1,2526.1,2942.3,2525.9,2943.2z"/>
			<path class="st3" d="M2028.2,1598.1c1.6,4.3,3.8,8.3,6.8,11.7c1.3,1.5,2.8,3,4.4,4.3c1.3,1.1,1.6,2.5,1.8,4
				c0.3,2.4,1,4.8,1.7,7.1c0.3,1,0.6,1.9,0.9,2.8c1.9,5.5,4.3,10.9,5.1,16.8c0.2,1.4,0.9,3,1.9,4.1c2.6,2.6,3.6,6.2,5.8,9
				c1.2,1.5,1.8,2.9,1.2,4.9c-0.6,2.2,0,4.5,2,5.6c3.1,1.8,3.9,4.6,4.2,7.6c1.1,12.6,7.6,22.7,14.6,32.6c3.1,4.5,6.3,5.5,11.8,4.1
				c2-0.5,3-1.7,3.3-3.7c0.7-4.3,0.3-8.3-2-12.2c-5-8.6-9.7-17.3-14.5-26.1c-1.3-2.4-2.6-4.8-3.2-7.4c-0.7-3-2.2-5.6-3.6-8.2
				c-6-10.6-11.9-21.3-17.9-31.8c-1.2-2.1-2.4-4.1-3.6-6.2c-0.3-0.4-0.5-0.9-0.8-1.3c-2.2-3.9-3.7-7.7-3.6-12.1c0-0.5,0-1.1,0.1-1.6
				c0.6-5.1,0-9.5-5.7-11.6c-0.9-0.3-1.4-1.9-2-2.8c-1.7-0.3-3.3-0.7-5-1c-1.2-0.2-2.4-0.2-3.5-0.6c-2.4-0.7-4.2,0.2-5.2,2.3
				c-0.9,1.8-0.4,3.5,0.9,5C2025.5,1595,2027.4,1596,2028.2,1598.1z"/>
			<path class="st3" d="M2121,1788.8c0.6,1.6,2,3,3.2,4.3c0.9,1,2.2,0.6,3.2,0c0.8,3.3,1.3,6.7,4,9.1c0.4,0.4,0,1.7-0.1,2.5
				c-2.2,1.5-2.1,3.5-0.6,5.3c2.3,2.7,5.2,4.8,8.4,6.4c0.4,0.2,1.2-0.1,1.5-0.4c0.3-0.4,0.5-1.2,0.4-1.6c-1.1-3.1-2.2-6.2-5.1-8.1
				c-2.5-1.5-0.4-4.2-1.5-6.2c-1.3-2.2-2.1-4.7-3.2-7c-2.7-5.6-5.3-11.3-8.1-16.9c-1-2.1-3.3-4-3.5-6.1c-0.5-5-5-0.5-6.2-3.1
				c-0.2-0.5-0.8-0.9-1.2-1.3c-0.7-0.5-1.6-0.8-2.2,0.1c-0.3,0.4-0.2,1.3,0,1.7C2114.4,1774.2,2118.3,1781.1,2121,1788.8z"/>
			<path class="st3" d="M2078,1651.9c2.7,3.3,3.5,7.6,5.5,11.2c1.5,2.7,2.5,5.8,6.8,7.9c-3.3-10.3-9-18-13.1-26.5
				c-0.3-0.7-1-0.8-1.5-0.3c-0.4,0.4-0.8,1-0.9,1.5c0,0.9,0,1.8,0.4,2.6C2076.1,1649.6,2077,1650.8,2078,1651.9z"/>
			<path class="st3" d="M2141.9,1824.9c0.5,0.4,1.1,0.8,1.6,0.7c0.4,0,0.7-0.8,1.3-1.6c-0.2-0.8-0.4-2-0.9-3
				c-0.4-0.9-1.3-1.2-2.2-0.8c-0.4,0.2-0.7,0.9-0.8,1.5C2140.6,1822.9,2140.8,1824.1,2141.9,1824.9z"/>
			<path class="st3" d="M2094.8,1732.6c-0.4,0-0.6,0.8-0.9,1.2c0.1,1.4,1,2.1,2.2,2.4c0.2,0,0.7-0.9,0.8-1.5
				C2096.9,1733.4,2096.3,1732.4,2094.8,1732.6z"/>
			<path class="st3" d="M2099.2,1743.8c1,0,1.4-1,1.1-1.8c-0.4-1-1.2-1.9-2.5-2c-0.2,0.5-0.7,1-0.7,1.5
				C2097.1,1742.8,2097.9,1743.8,2099.2,1743.8z"/>
			<path class="st3" d="M2106.2,1758.6c0.4,0,1-0.5,1.1-0.8c0.3-1-0.5-1.4-1.4-1.6c-0.4,0.3-1.1,0.5-1.1,0.8
				C2104.7,1757.9,2105.2,1758.6,2106.2,1758.6z"/>
			<path class="st3" d="M2095.6,1686c0.7-0.2,0.9-0.7,0.4-1.3c-0.3-0.4-0.9-0.5-1.3-0.8c-0.2,0.5-0.6,1-0.4,1.4
				C2094.4,1685.7,2095.1,1685.8,2095.6,1686z"/>
			<path class="st3" d="M2111,1756.2c0.9-1,0.8-2.1,0.4-3.2c-0.1-0.2-0.5-0.6-0.6-0.6c-1.2,0.7-1.1,1.8-0.7,2.8
				C2110.2,1755.7,2110.7,1755.9,2111,1756.2z"/>
			<path class="st3" d="M2088.5,1721c0,0.5,0.4,1.2,0.8,1.4c0.4,0.2,1.1-0.1,1.6-0.2c-0.4-0.7-0.8-1.4-1.1-1.8
				C2089,1720,2088.5,1720.3,2088.5,1721z"/>
			<path class="st3" d="M2322.8,2319.9c2,2,3,4.4,3.7,7.1c0.8,3.5,1.9,7,4,10c0.8,1.2,1.5,2.7,1.8,4.1c0.5,2,0.9,4.2,0.8,6.3
				c-0.1,3,3.5,3.4,3.9,5.7c1,6.3,5.3,11.6,6.1,17.9c0.5,4.3,3.4,6.1,6.8,7.7c0.9,0.4,2,0.4,2.4-0.5c0.3-0.6,0.2-1.8-0.2-2.4
				c-2.9-4.2-5-8.6-7-13.3c-2.3-5.6-4.3-11.2-5.6-17.1c-0.5-2.3-1-4.7-2.7-6.6c-3.4-4-5.3-8.5-5.6-13.9c-0.4-5.3-7.3-7.3-7.4-13
				c0-0.3-0.3-0.5-0.7-1.2C2320.5,2314,2319.9,2317.1,2322.8,2319.9z"/>
			<path class="st3" d="M2356.1,2334.3c-1.8-2.8-0.9-6.7-5.1-9.5C2351.9,2329,2353.3,2332,2356.1,2334.3z"/>
			<path class="st3" d="M2321.2,2252.6c1.2,0.2,1.2-0.9,1.3-1.8c-0.2-0.8-0.3-1.9-1.5-1.7c-0.4,0.1-0.7,0.9-0.8,1.4
				C2320.1,2251.3,2320.3,2252.4,2321.2,2252.6z"/>
			<path class="st3" d="M2349.4,2319.7c0.6,0.4,1.1,0.3,1.4-0.4c0.6-1.2-0.6-3.1-1.9-3.2c-0.4,0.3-0.9,0.6-1,1
				C2347.4,2318.5,2348.4,2319.1,2349.4,2319.7z"/>
			<path class="st3" d="M1946.3,2189.1c0.4-1.1-1-3.2-2.1-3.3c-0.7,0.2-1,0.7-0.6,1.3c0.4,0.8,0.9,1.5,1.4,2.1
				C1945.4,2189.9,1946,2189.8,1946.3,2189.1z"/>
			<path class="st3" d="M1977.8,2321.4c0,0.2,0.3,0.6,0.4,0.6c0.2,0,0.5-0.2,0.8-0.4c0-0.3,0.1-0.6,0-0.7
				C1978.3,2320.5,1977.8,2320.6,1977.8,2321.4z"/>
			<path class="st3" d="M2536,2916.2c-0.7-5.7-2.8-11.1-7-15.4c-2-2.1-5.7-3.6-5.3-6.8c0.4-2.8,2.4-5.5,4.2-7.8
				c3-3.7,3.2-7.5,2.5-11.9c-1.4-8.6-4.7-16.3-10.7-22.5c-2.6-2.7-3.8-4.8-2.1-8.7c1.3-2.9,1.4-6.4,1.9-9.7c0.3-1.9-0.5-3.6-2.5-4.3
				c-3.4-1.3-6.8-2.7-10.2-3.5c-2.7-0.7-4-2.1-4.7-4.8c-2-8.2-4.1-16.4-6.2-24.5c-1.2-4.7-2.3-9.4-3.8-14c-0.7-2.3-1.2-5.1-3.5-6.2
				c-4.6-2.2-5.5-5.8-5.1-10.4c0.1-1.7-0.7-3.5-1.1-5.3c-0.9-3.2-1.1-6.4-0.6-9.8c0.8-5.5,0.6-5.6,6.6-7.1c0.6-0.1,1.2-0.3,1.7-0.5
				c3.3-1.4,4.3-6.8,1.1-8c-3.5-1.3-3.8-2.8-3.5-5.8c0.4-4.1-1.3-7.7-3.5-11c-2-3.1-3.2-6.4-3.5-10.1c-0.1-0.9-0.1-1.8-0.4-2.7
				c-3-8.6-3.4-17.6-4.6-26.5c-0.9-6.8-1.7-12.8,2-18.9c1.7-2.7,1-4-1.8-6.1c-3.1-2.5-6.3-4.7-10.3-5.4c-0.9-0.2-1.8-0.4-2.5-0.7
				c-2.1-0.9-3.3-2.6-3.6-5.7c-0.7-8-4.2-15-8.7-21.5c-4.8-4.7-8-10.5-11.7-16c-2.2-3.3-4-6.9-6.4-10.1c-1.4-1.8-3-3.5-5.2-4.7
				c-1.2-0.7-1-2-0.9-3.3c0.3-2.8,0-5.6-1.3-8c-2.6-4.7-1.9-9.4-0.9-14.1c0.7-3.4,0.7-6.5-0.3-9.8c-0.8-2.9-1.2-5.9-1.6-8.9
				c-0.2-1.1-0.4-2.8,0.2-3.4c2.8-2.9,2.5-5.7,0.9-9.1c-0.7-1.5-0.3-3.5-0.3-5.3c0-2.7,0.6-5.5,0.2-8.1c-0.7-4.9-0.1-8.8,4.3-11.8
				c2-1.4,1.8-3.6,0.3-5.7c-2.6-3.6-6.3-6.5-8.2-10.7c-2.3-2.3-4.8-3.6-8.6-1.1c-0.3-3.4-0.3-6.3-0.8-9.1c-0.8-4.1-1.4-8.4-5.3-11.1
				c-2-1.4-4.8-0.7-4.7,1.8c0.2,4,0.1,8.1,0.5,12.1c-5.4-5.9-8.5-13.4-14-19.3c-2.2-2.3-1.9-5.2-0.9-7.7c1.4-3.5,0.4-6-2.5-7.8
				c-3-1.9-4.5-4.6-6.1-7.6c-1.3-2.6-2.5-5.5-5-7.4c-1.2-0.9-2.4-1.5-4-0.5c-2.6,1.7-4.7,3.7-5.9,6.6c-0.5,1.1,0.2,1.6,0.9,2.1
				c0,0,0,0,0,0c0,0-0.6,0.5-0.6,0.5c-1-0.6-2.6-1.1-2.8-1.9c-0.3-1.3-0.1-3.2,0.7-4.2c2-2.4,4.2-4.9,7.3-6.1c2.5-1,2.7-3,2.4-5.2
				c-0.2-1.2-0.5-2.4-1.1-3.4c-1.9-3.2-2.4-6.8-3.3-10.3c-1.9-7.4-5.4-14-10-20.1c-0.7-0.9-1.8-1.6-2.8-2.2
				c-0.4-0.3-1.3-0.3-1.7-0.1c-0.4,0.3-0.6,1.1-0.4,1.6c0.4,1.4,1.1,2.8,1.5,4.2c0.4,1.2,0.2,2.6-1.2,3c-2.8,0.8-3.3,2.8-2,4.8
				c2,3.2,0.5,7.2,3.1,10.3c1.5,1.8,1.3,2.1,2.9-0.1c0.5-0.7,0.8-1.7,1.5-2.1c1.4-0.7,2.1,0.7,2.9,1.5c1.7,1.8,2.6,4.1,3.1,6.4
				c0.6,2.6,1.1,5.3,2.4,7.7c0.3,0.6-0.3,1.6-0.5,2.8c-4.2-2-7.4-5.9-12.5-4.7c-0.5,0.1-1.6-0.9-1.8-1.6c-2.3-6.2-5.5-12-5.3-19
				c0.2-5.1,0-10.4-4-14.4c-1-6.2-4.8-11-7.8-16.2c-0.7-1.3-1.3-3.1-2.5-3.7c-5.1-2.5-5.7-7.4-7-12c-2-7-3.8-14-5.8-21
				c-0.5-1.7-1-3.8-2.2-4.9c-3.8-3.5-4.2-8.3-3.8-12.6c0.5-6.7-3-12.2-4-18.4c-0.3-1.6-1.6-3.6-3.1-4.3c-4.6-2.2-5.2-6-5.7-10.3
				c-0.6-6-2.6-11.8-5-17.4c-3-6.9-5.7-14-7.1-21.5c-0.6-3.4-2.2-6.3-4.1-9c-1-1.5-2.1-3-3.3-4.4c-5.7-6.7-11.5-13.3-10.8-23
				c0.1-1.4-0.8-2.9-1.3-4.3c-3.8-9.2-7.4-18.5-11.6-27.5c-3-6.3-5.4-12.8-6.8-19.6c-1.9-8.9-4.4-17.6-7.9-26
				c-2-4.8-3.4-9.7-4.4-14.7c-1-5-3.5-9-7.2-12.2c-2.5-2.2-5.1-4.3-7.8-6.3c-3.2-2.3-5.9-4.5-7-8.8c-0.9-3.3-3.7-6.1-6-8.9
				c-2.7-3.2-3.9-6.8-3.7-10.9c0.2-4.6-0.5-8.9-3.4-12.8c-1.3-1.8-1.4-4.6-1.8-6.9c-1-4.8-2.1-9.4-7-12.1c-3-1.6-3.5-4.7-3.7-7.8
				c-0.4-10.4-2.7-20.5-5.9-30.2c-4.1-12.2-9.2-24.3-17.3-34.7c-1.5-1.9-2.9-3.9-4.4-5.8c-3-3.8-5.8-7.7-6-12.9
				c-0.1-2-0.6-4.5-2.4-5.7c-3.9-2.6-4.7-6.8-6.1-10.8c-2.7-7.7-5.5-15.3-8.2-23c-1.1-3.1-2.9-6-2.4-9.9c3.2-0.9,7.1-0.3,9.6-3.6
				c0.6-0.7,1.1,0.9,1.7,1.5c0.6,0.6,1.9,1.4,2,0.2c0.1-4.6,1.6-9.4-1.8-13.6c-4.5-5.4-5.4-12.8-9.9-18.2c-0.4-0.4-0.6-1.1-0.7-1.7
				c-2.4-12.3-10.8-22.2-14.4-34c-0.3-1.1-1.2-2.1-2-3c-2.5-2.7-4.1-5.9-5.3-9.4c-3.7-10.6-9.3-20.3-14.4-30.2
				c-4.3-8.4-7.9-17-10.3-26c-3.3-12.9-7.7-25.5-13.5-37.4c-7.4-15.2-14.2-30.7-21-46.2c-5.8-13.3-12.1-26.2-16.4-40.2
				c-1.6-5.2-3.9-10.2-6.2-15.1c-0.1-0.2-0.2-0.5-0.3-0.7c-0.6-1.3-1.2-2.7-1.8-4c-0.4-0.9-0.8-1.8-1.2-2.7
				c-1.2-2.8-2.8-5.3-4.8-7.6c-3.7-4.3-7.4-8.6-11.1-13c-3.4-4-4.6-9.1-6.3-13.9c-2.2-4.3-4.3-8.6-5.1-13.4
				c-3-5.6-5.4-11.4-6.8-17.7c-2.2-2.7-3.3-5.9-3.8-9.3c-1.6-1.7-2.1-3.9-2.5-6.1c-4.4-10.8-9-21.6-13.3-32.5
				c-19.3-49-38.5-98.1-57.8-147.1c-0.7-1.7-1.3-3.4-2-5.1c-1.2-3.1-2.1-6.3-3.1-9.4c-3.3-5.3-4.8-11.4-7.2-17.1
				c-1.4-3.4-0.8-6.9-0.4-10.4c-0.7-3.5-2.5-7.3-1.8-10.6c0.7-3.1,3.9-5.7,6-8.6c0.1-0.2,0-0.6-0.1-1.2c-1.4-0.1-2.9-0.2-4.4-0.2
				c-1-1.7-0.3-3.5-0.4-5.3c-0.1-3.9,0.2-7.7-4-10.2c-2.4-1.4-2.8-4.7-3-7.4c-0.6-9.2-5.3-15.9-12.4-21.1c-5.7-4.2-9.1-9.7-8.9-16.9
				c0.2-7.4-4-13.2-6.8-19.3c-3.3-7.2-6-14.5-8.2-22c-3.9-13.4-9.4-26.1-16-38.4c-5-9.3-9.8-18.7-14.6-28.1
				c-1.8-3.5-3.3-7.1-3.9-11.1c-0.8-6.1-3-11.7-5.7-17.1c-5.1-10.3-10-20.7-16.1-30.4c-3.1-4.9-4.7-10.4-5.9-16.1
				c-1.7-8.3-3.7-16.5-5-24.9c-1-6.5-3.7-12.1-7.5-17.3c-2-2.7-3.9-5.4-5.7-8.2c-3.4-5.1-5.7-10.7-5.2-17c0.3-4.3-0.8-7.9-4.8-9.9
				c-4.9-2.4-6.2-7.1-8-11.6c-24.5-62.4-49.3-124.7-73.4-187.3c-31.8-82.3-63.1-164.7-94.4-247.2c-11.2-29.6-22.1-59.4-32.5-89.4
				c-2.5-7.2-4.8-14.5-7.1-21.8c-3.4-10.8-6.6-21.7-9.9-32.6c-1.1-3.8-2.3-7.6-3.5-11.4c-3.7-10.2-7.4-20.3-11.1-30.5
				c-0.9-2.2-1.8-4.5-2.7-6.7c-5.7-14.6-11.5-29.2-17.2-43.8c-0.5-1.4-1.3-2.6-2.1-3.9c-0.1-0.2-0.5-0.3-0.8-0.4
				c-0.5-0.1-0.4,0.3-0.7,1.1c-1.1,3.6-1.2,3.6-3.4,1.1c-1.3-1.4-1.9-4.1-4.8-2.2c-0.8,0.5-1.5-0.4-1.6-1.4c-0.4-3-0.6-6-1.2-9
				c-1-4.9-3.1-6.5-7.6-5.3c-10.8,2.8-8.9,0.5-12.5-6.6c-1.1-2.1-1.7-4.5-2.5-6.8c-6.9-19.7-13.6-39.4-20.6-59
				c-1.3-3.5-1.8-7-1.5-10.6c0.5-8.1,0.8-16.3,1.5-24.4c2-24.1-2.3-47.6-7-71c-0.3-1.5-0.9-2.9-1.7-4.2c-0.4-0.6-1.5-0.9-2.3-1.1
				c-0.3-0.1-0.9,0.7-1.1,1.2c-1.9,5.2-1.9,10.7-2.2,16.1c-0.7,16.6-2.4,33.2-4.7,49.6c-0.3,2.1-0.5,4.1-2.1,5.8
				c-7.1,7.5-12.2,16.5-18,24.9c-0.6,0.9-1,2.3-3.2,2c-0.3-1.8-0.2-3.8-0.2-5.8c0-3.3,0.4-6.7,0.1-10c-0.3-3.5,0.8-7.3-2.2-10.2
				c-3.8,1.9-3.4,5.8-4.3,9c-0.6,2-0.8,4.2-1.5,6.2c-1.1,3.1-1.5,6.5-4.4,9.2c-0.7-1.5-1.2-2.8-1.8-4.1c-2.5-4.8-2.9-9.5-1.5-14.8
				c1.8-6.7,2.9-13.6,4-20.4c1.2-7.1,4.3-13.7,4.8-21c0.3-3.8,2-7.6,3.1-11.3c1.4-4.9,3.1-9.8,4.3-14.8c0.8-3.1,1.8-6.2,0.9-9.6
				c-2.2,0.3-2.6,1.9-3.3,3.1c-2.6,4.8-4.5,9.9-6.1,15.1c-3.1,9.8-6.3,19.5-10.3,29c-0.8,1.9-1.2,4.1-2.9,5.5
				c-3.5,2.8-7.1,5.6-11.8,9.3c1.8-8.2,3.4-14.9,4.8-21.6c0.4-1.9,1.9-4.5-0.7-5.6c-2-0.8-4.2,0.6-5.8,1.9c-1.8,1.6-3.2,3.6-4.8,5.4
				c-1,1.1-1.7,2.5-3.5,2.5c-2.5-3.4-2.4-6.9-1.4-11c2-7.6,3.6-15.3,5-23c1.8-9.8,3.1-19.7,2.5-29.7c0-0.5-0.5-1.1-0.9-1.3
				c-0.5-0.2-1.3,0-1.6,0.3c-2.2,2.5-3.8,5.5-4.9,8.6c-2,5.7-4,11.4-5.9,17.1c-1,2.8-1.3,3.2-4.4,2c-4.5-1.8-8.4-0.8-11.7,2.3
				c-2.6,2.5-4.9,5.3-7.4,8c-2.2,2.5-4.4,5-6.7,7.4c-0.6,0.6-1.4,1.2-2.2,1.6c-0.4,0.2-1.5-0.3-1.5-0.5c-0.5-4.5-1-8.9,1-13.3
				c3.2-6.8,6.6-13.6,10.7-20c6.1-9.5,9.9-20,14.6-30.1c1-2.1,1.9-4.4,1.3-6.8c-1.8-0.4-2.3,0.9-2.9,1.8c-3.5,5.3-7,10.5-10.5,15.9
				c-5.1,7.9-10.1,15.7-15.1,23.7c-1.3,2.1-3,2.8-5.3,2.1c-0.9-0.3-1.7-0.5-2.6-0.8c-5.9-2-11.6-3-16.4,2.4
				c-0.2,0.2-0.5,0.3-0.8,0.4c-1,0.1-1.9-0.2-2-1.2c-0.2-1.5-0.2-3-0.3-4.5c-0.7-10.6-5-19.8-11-28.3c-0.9-1.2-2-3.1-3-3.2
				c-2.7-0.2-3.4-1.9-4.3-3.8c-2.9-5.6-7.2-8.7-13.8-8.2c-1.5,0.1-3,0-4.1,0c-1.6-2.7-3-5-4.5-7.2c-1-1.4-2.4-2-3.8-0.6
				c-5.4,5.2-8.7,11.9-9.5,19c-0.5,5-1.4,9.1-4.7,12.9c-1.9,2.2-3.1,5.2-4.3,7.9c-2.9,6.7-4.5,13.8-4.9,21.1
				c-0.4,7.2-0.4,14.5-0.6,21.8c0,0.5-0.2,1.2-0.6,1.5c-1,0.6-1.7,0-2.1-0.8c-3.9-7.5-7.8-15-11.7-22.5c-1.3-3.5-4.6-6-4.4-10.1
				c0-0.5-0.3-1.2-0.7-1.6c-0.6-0.6-1.3-1-2.1-1.4c-0.1-0.1-0.5,0.1-0.7,0.3c-0.7,0.8-0.4,1.7,0.2,2.3c3.6,3,4.6,7.1,5.1,11.6
				c1.6,8,5.2,15.1,9.1,22.2l0,0.4c0,0,0.3-0.1,0.3-0.1c0.5,1.1,0.9,2.2,1.4,3.4l0,0.5c0,0,0.3-0.2,0.3-0.2c1,2.1,2,4.2,2.9,6.2
				c-1.3,1.5-2.8,2.4-5,1.6c-0.4-0.1-0.9,0.3-1.4,0.5c-0.2,0.2-0.4,0.4-0.6,0.7c-1.5,2.1,1.2,5.3-0.9,6.7c-1.8,1.2-4.6,0.8-6.9,1.2
				c-0.3,0-0.5,0.2-0.8,0.4c-1.9,1-2.7-0.1-3.4-1.6c-1.1-2.5-2.1-5-3.2-7.5c-1.1-2.2-2.2-4.3-4.2-5.8c-0.7-0.5-1.7-1-2.5-0.3
				c-0.6,0.6-1.2,1.4-1.4,2.2c-0.2,0.8,0,1.8,0.3,2.6c3.4,7.9,1.9,16.1,1.4,24.2c-0.1,1.9-0.8,3.5-2.1,4.9c-3.5,4-6.9,8-10.8,12.5
				c-1.2-3.3-2-5.8-2.9-8.4c-2.3,0.9-2.5,2.7-2.9,4.4c-1,4.1-1.6,8.5-4,12c-5.2,7.5-7.3,15.8-8.2,24.6c-0.2,2.1-0.5,4.2-0.9,6.3
				c-0.3,1.4-0.4,3-2.7,3.7c-1.4-2.5-2.9-5.1-4.4-7.6c-1.5-2.5-4-3.5-7-2.9c-2.3,0.4-3.7,2.2-3.6,5.5c0.1,2.7,0.2,5.5,0.9,8.1
				c0.9,3.5,2.2,6.9,3.3,10.3c1.9,5.8,2.1,11.2-3.1,15.5c-1.4,1.1-2.5,2.5-4,3.6c-9.3,6.5-11.6,17.2-15.2,27
				c-0.2,0.5-0.1,1.3,0.1,1.8c1.6,4.3-0.2,7.6-3.1,10.6c-7.8,7.9-12.8,17.4-17.2,27.5c-4.4,10.2-8.8,20.5-14.3,30.2
				c-3,10.5-7.3,20.4-14.1,29c-2.2,3.8-4,7.8-5.7,11.8c-0.2,0.4-0.3,0.8-0.5,1.2c-4.6,11-10.3,21.4-16.9,31.4
				c-0.3,0.4-0.5,0.8-0.8,1.2c-1.8,2.8-4,5.5-5.1,8.5c-4,12-10.4,23-15.3,34.6c-3.1,7.5-6.2,15.1-9.8,22.4
				c-4.6,9.5-9.5,18.9-14.5,28.2c-5.4,10.2-10.2,20.6-14.6,31.1c-4.5,10.6-9.5,20.9-14.7,31.1c-3.9,7.9-6.6,16.2-9.6,24.4
				c-1,2.8-2,5.7-3.2,8.5c-4.3,10-8.6,20-13.2,29.8c-3.2,6.8-7,13.4-10.5,20.1c-1.1,2.1-2.5,4.2-3.3,6.4
				c-4.5,12.9-10.6,24.9-17.4,36.7c-3.4,5.9-5.7,12.5-8.4,18.9c-2.1,5-4.3,9.9-6.4,14.9c-3,7.2-7.1,13.9-10.2,21
				c-5,11.6-9.9,23.4-15.4,34.8c-3.9,8.2-6,17.1-10.9,24.8c-0.3,0.5-0.5,1.1-0.8,1.6c-9.4,13.3-13.4,29-18.9,44
				c-3.2,8.8-8.2,16.7-12.2,25.2c-1.3,2.7-3.1,5.3-3.9,8.1c-3.4,12.5-10,23.2-17.4,33.5c-2.8,3.9-4.8,8.4-6.3,13
				c-1.6,4.9-3.3,9.7-4.7,14.7c-2.2,7.6-4.9,14.9-9.1,21.6c-0.2,0.3-0.5,0.4-0.6,0.7c-2.4,9.7-8.4,18-11.6,27.5
				c-3.2,9.4-6.9,18.6-11.7,27.4c-5.5,10.1-10.6,20.4-13.7,31.5c-0.5,2-1.6,3.9-2.4,5.9c-4.3,9.3-8.6,18.6-12,28.3
				c-3,8.4-6.8,16.8-14.1,22.9c-1.8,1.5-2.7,4-4.1,5.9c-0.9,1.2-1.3,5.1-4,1.3c-0.1-0.2-1.4,0.1-1.6,0.5c-3.6,5.9-6.2,12.2-8.3,19.3
				c4.4-0.6,3.7-5.6,7.4-6.8c0.4,4.6,0.2,8.7-1.5,12.6c-6.9,16.1-13.4,32.3-22.3,47.5c-2.9,5-5.4,10.1-7.1,15.6
				c-2.5,8.1-6.1,15.8-10.5,23.1c-1.9,3.1-3.8,6.3-4.1,10c-0.6,8.1-4.4,15-8.4,21.7c-2.5,4.2-4.1,8.7-6,13.2
				c-6.1,15.1-12,30.3-20.2,44.4c-4.8,8.3-9.6,16.6-11.6,26.4c-1.2,5.8-3.9,11.4-6.6,16.8c-3.8,7.5-7.6,15.1-11.9,22.4
				c-4.2,7.3-7.1,15.3-10.6,23c-6.4,14.3-12.9,28.6-19.3,43c-4.4,9.9-8.5,20-12.9,29.9c-4.4,9.9-8.9,19.8-13.8,29.6
				c-6.9,14.1-14.3,27.9-19.3,42.9c-1.8,5.4-4.3,10.6-7.2,15.6c-2.9,4.9-5.2,10.2-7.4,15.5c-4.1,9.7-7.7,19.7-12.9,28.9
				c-0.3,0.5-0.6,1.1-0.8,1.6c-4.8,14.7-13.4,27.7-19.3,41.9c-1.9,4.7-4.5,9.2-7.4,13.5c-4.3,6.6-7.4,13.8-9.9,21.3
				c-2.2,6.6-5.2,12.9-7.6,19.3c-7,18.7-18,35.6-23.9,54.7c-0.9,2.9-2.8,5.3-4.5,7.8c-3,4.2-5.3,8.7-6.6,13.8
				c-2.9,11.2-7.6,21.6-12.9,31.8c-1,1.9-2.2,3.7-2.8,5.7c-1.4,4.7-3.7,8.9-6,13.1c-2.1,3.7-4,7.4-4.7,11.7c-0.3,1.7-1.4,3.3-2.1,5
				c-1.8,4.1-3.7,8.3-5.5,12.4c-0.8,1.9-1.3,4.1-2.5,5.8c-5.2,7.6-8,16.2-11.2,24.6c-1,2.6-2,5-4.1,6.9c-2,1.9-3.4,4.3-3.8,7.1
				c-1.5,10.3-6.5,19.4-10.7,28.7c-4.7,10.5-9.4,21-14.8,31.1c-4.2,7.6-8.3,15.4-13.9,22.2c0,0,0,0,0,0c0,0-0.1,0.1-0.1,0.1
				c1.4-4,2.6-8,4.3-11.9c6.1-13.8,12.4-27.5,18.5-41.3c3.8-8.6,7.7-17.1,10.9-25.9c4.9-13.4,10.5-26.4,16.5-39.2
				c8-17.2,16-34.5,22.1-52.6c1.4-4.3,3.3-8.5,5.6-12.4c4.5-7.6,7.8-15.7,11-23.8c6.9-17.4,14-34.7,23.3-51c1.9-3.4,3.5-7,5.1-10.6
				c9.8-23,19.9-46,30.7-68.6c8.8-18.5,16.3-37.7,25.6-56c1.1-2.1,1.9-4.4,2.5-6.8c0.5-2,1.2-4.8-0.8-5.9c-2.2-1.2-3.6,1.4-4.6,3
				c-1.7,2.5-3.1,5.2-4.6,7.8c-7.2,13.6-13.4,27.7-19.4,41.9c-3.7,8.6-7.2,17.3-11.2,25.7c-14.6,30.5-29.1,61.1-41.6,92.5
				c-2.7,6.7-5.8,13.3-9,19.8c-18.8,38.2-35.7,77.3-52.3,116.5c-4.6,10.8-8.4,22-13.1,32.8c-11.3,25.4-23.3,50.4-34.3,76
				c-26.2,61.1-52,122.3-77.8,183.5c-10.2,24.2-20.1,48.6-30,72.9c-2.2,5.3-4.3,10.6-5.2,16.4c-0.1,0.4,0.3,1.1,0.7,1.4
				c0.6,0.4,1.2,0.1,1.5-0.6c1.9-4.1,3.9-8.2,5.6-12.4c12.3-30.5,25.2-60.8,38.4-91c15.5-35.4,30.1-71.2,47.2-105.9
				c9.1-18.4,18.2-36.8,26.4-55.7c0,0,0,0.6,0,0.6l0.5-0.1c0.2,5.9-1.8,11.3-4,16.5c-32.6,75.7-65.3,151.3-97.9,226.9
				c-4.4,10.3-9,20.4-13.3,30.7c-4.1,9.8-8.4,19.4-14.2,28.2c-1.3,0.6-2.6,0.9-3.3-0.8c2.4-6.8,4.8-13.6,7.3-20.4
				c0.4-1.2,0.6-2.3-0.2-3.7c-3.6,2-5.5,5.5-7.5,8.8c-4.9,8.3-9.2,17.1-11.8,26.4c-3,10.5-7.9,20.2-12.1,30.2
				c-4.6,10.8-9,21.7-12.1,33.1c-0.6,2-1.1,4.1-1.9,6c-1.3,3.1-2.6,6.1-3.8,9.2c-4,9.5-7.9,18.9-11.9,28.4
				c-3.3,7.4-6.5,14.9-9.8,22.3c-2.2,5-4.1,10-5.3,15.3c-1.7,7-4.5,13.7-6.9,20.6c-0.1,0.3-0.2,0.7-0.3,1c-1.2,3.7-2.5,7.3-3.8,10.9
				c-1,2.8-1.5,5.9-4.1,7.9c-0.4,0.8-0.7,1.7-1.2,2.5c-9.1,14.4-15,30.2-20.1,46.4c-3.9,12.4-8.1,24.8-14.4,36.2
				c-6.6,12-12.2,24.3-15.2,37.7c-0.7,3-1.7,5.7-3.7,8.2c-12,14.8-18.1,32.6-24.8,50.1c-2.6,6.8-4.8,13.7-7.8,20.2
				c-2.9,6.3-5.2,13-5.8,19.9c-0.6,7.1-2.7,13.6-5.7,19.9c-2.4,5.2-4.7,10.5-6.9,15.8c-2,4.7-3.9,9.5-5.8,14.2c-0.7,1.7-2,2-3.6,1
				c0,0.6,0,1.2,0,1.8c3.5-1.4,6.4-3.7,9.1-6.5c3.4-3.5,6-8,10.7-10c0.2,0.2,0.5,0.5,0.7,0.7c0.8,2.7,0.3,5.4,0.2,8.1
				c-0.6,8.7-1.1,17.5-1.9,26.2c-0.3,3.5-0.1,6.5,2.6,9c0.8,0.8,0.9,2.4,1.7,3.1c3.9,2.9,3.3,6.6,2.4,10.5c-0.2,0.8,0.2,1.2,1.8,0.8
				c1.3-1.4,3.2-3.4,5-5.3c0.8-0.8,1.5-2,3-1.2c0.9,0.6,0.7,1.5,0.5,2.3c-0.6,3-0.3,6,0.6,9c0.4,1.4,1.1,3.5,2.1,3.8
				c4.2,1.3,5,4.3,5.4,8c0.1,1.2,1.7,2.5,2.9,3.2c4.1,2.4,7.6,5.9,12.4,7.2c2,0.6,3,2.2,2.5,4.2c-1.4,5.8,0.8,11.4,0.9,17.1
				c0,1.8,1.4,2.5,3.2,2.3c3.1-0.3,5.8-1.3,7.5-4.3c1.1-2.1,2.5-4.2,4-6c1.7-2,3.1-4.4,5.9-5c2.9,2.6,1.3,5.5,0.6,8.3
				c-0.8,3.2-1.9,6.4-2.5,9.6c-0.5,2.4-0.5,5,1.6,6.7c9,7.4,16.4,8.3,24.4,1.6c3.8-3.1,6.4-7.2,9-11.3c1.1-1.7,1.6-4.1,4.3-4.1
				c1.8,5.7,1.8,5.7,5.4,9c5.2,4.7,9.7,10.3,12,16.8c2.5,7.1,4.9,13.5,11.8,17.3c0.2,0.1,0.4,0.5,0.6,0.7c0.8,1,1.1,2.1,0.3,3.2
				c-1.4,1.9-3,3.7-4.3,5.8c-1.6,2.6-0.4,5.6,2.4,6.6c2.3,0.8,4.6,1.1,7.1,0.4c3.3-0.9,6-2.7,8.3-5.3c1.8-2.1,3.5-4,6.7-2.8
				c1.4,0.5,2.2-0.7,2.9-1.6c1.7-2.1,3.2-4.4,4.8-6.6l0-0.1c0.7-1.1,1.5-2.2,2.2-3.2c0.4,1.4,0.8,2.7,1.3,4.1
				c-0.5,2.8-1.1,5.6-1.6,8.4l-0.3,0c0,0,0.3,0.1,0.3,0.1c-0.9,6-1.5,12,0.5,17.9c0,0-0.1,0.1-0.1,0.1c0,0,0,0,0,0
				c0.7,1.5,1.3,3,2,4.6l-0.1,0.5c0,0,0.5,0.2,0.5,0.2c1.8,1,3.6,2,5.3,3c1.5,0.5,3,0.6,4.5-0.2c1.5-1.2,3-2.4,4.5-3.6
				c0,0,0.3,0,0.3,0c3,0.5,5.8,1.4,8.9,0.7c9.1-2.1,19.2-13.1,19.8-22.6c0.5-8.3,2.5-16.1,5.3-23.8c4.9-13.6,10-27.2,15.3-40.7
				c2.4-6.2,5.6-12.1,8.3-18.1c0.8-1.8,1.9-3.2,4-2.8c5.8,1,10.5-1.7,15.2-4.5c1.7-1,2.9-3.3,5.7-2.3c0.3,1.6,0.5,3.4,0.9,5.1
				c1.2,4.8,4.1,5.9,7.9,3c2.1-1.6,4-3.7,5.8-5.7c1.8-2,3.3-4.3,5-6.4c6.9,4.5,6.9,4.5,15.8,1.4c1,3-0.1,6-0.5,8.9
				c-0.4,3.3-1.2,6.5-1.8,9.8c-0.5,2.7-0.2,5.4,0.6,8.1c0.6,1.8,2.6,2.6,4.4,1.6c2.1-1.2,4-2.5,6-3.8c0.8,2,0.1,3.8-0.3,5.5
				c-1.7,7.1,0,13.9,2.6,20.4c2.4,6,7.6,6.9,12.2,2.5c3.3-3.2,5.6-7.1,8-11c0.7-1.2,1.2-2.9,3.4-2.5c0.2,2.6-0.1,5.5,0.8,7.9
				c1.8,4.8,1.6,9.4,0.7,14.2c-0.3,1.8-0.6,3.6-0.5,5.4c0.4,4.1-0.2,8.7,3.5,11.7c2,1.5,6-2.7,8.7-9.1c2.3-5.3,3.6-10.9,4.8-16.5
				c2-9.8,4.5-19.4,8.5-28.6c2.8-6.4,4.9-13,6.4-19.8c0.7-2.9,1.8-5.8,3.2-8.4c6.4-12.7,11.9-25.8,15.7-39.5
				c4.2-15.2,10.1-29.7,16.3-44.1c1-2.2,1.8-4.5,2.7-6.7c2.6-7,5.4-13.9,8.2-20.8c4.2-10.3,8.7-20.4,13.2-30.6
				c2.1-4.8,4.3-9.7,6.4-14.5c3.3-9.6,5.8-19.4,10.4-28.5c-0.2-1.9,0.9-3.4,1.8-4.9c1.1-6,3.9-11.4,6.1-17
				c4.1-10.7,8.4-21.4,12.7-32.1c7.5-18.5,13.6-37.5,19.3-56.6c0.5-1.7,1-3.5,1.9-5.1c5.7-10.1,8.8-21.2,12-32.2
				c14.2-48.6,32.7-95.5,52.3-142c2.9-6.9,6.7-13.6,10-20.4c3.6-7.3,7-14.7,10.5-22.1c0.6-1.4,1.2-2.8,2-4.1
				c6.9-11.1,11.8-23.1,16.7-35.2c4.1-10.1,9-19.8,14.5-29.2c6.6-11.2,13-22.5,18.4-34.4c1.7-3.7,2.6-7.4,2.1-11.4
				c-0.5-1.4-1-2.8-1.6-4.2c-1.2-3.1-0.6-5.8,1.4-8.4c2.7-3.6,5.3-7.4,7.6-11.2c4-6.4,6.5-13.4,8.8-20.7c3.6-10.9,7.3-21.7,9.9-32.8
				c2.6-11.1,10.5-18.9,17.8-26.9c3.7-4.1,5.6-8.5,6-13.7c0.4-4.5,0.4-9.1,0.5-13.6c0-2.4-0.3-4.8-0.2-7.3
				c0.1-8.3,2.2-15.3,10.9-18.9c5.6-2.3,10.3-6.3,13.8-11.5c8.2-12.1,8.7-24.9,2.4-37.8c-1.7-3.5-1.8-5.9,0-9.1
				c2.7-4.7,5.1-9.6,7.5-14.5c2.8-5.7,5.8-11.2,10.4-15.8c5.8-5.8,7.9-13.6,9-21.4c1.2-8.4,2.2-16.8,3.7-25.1
				c0.8-4.4-1-9.3,1.1-13.4c1.9-3.7,5.3-6.6,7.8-9.9c5.2-6.8,8.4-14.7,10.8-22.8c1.5-5,3.6-9.5,6.6-13.8c1.7-2.5,3.3-5.1,4.7-7.8
				c10.8-21,21.5-41.9,27.9-64.8c3.6-12.8,8-25.3,12.7-37.8c2.4-6.5,5.9-12.6,9.1-18.7c5.2-9.9,10.5-19.7,15.7-29.6
				c4.1-7.8,7.7-15.8,10.4-24.1c2.8-8.7,6.9-16.7,11.5-24.5c6.6-11.2,13.4-22.3,17.3-34.8c1.6-5.2,3.3-10.4,4.6-15.6
				c2.2-9.5,5.6-18.5,10.6-26.8c7.3-12,11.7-25.2,14.9-38.8c1.7-7.4,4.2-14.5,7.7-21.2c2.7-5.4,6.3-10.3,7.2-16.5
				c0.3-1.9,2-3.7,3-5.5c3.4-6.1,6.8-12.1,10.2-18.2c7-12.5,12.2-25.7,15.1-39.7c4.1-20.2,12.4-38.6,24.9-54.8
				c12-15.5,16.8-33.3,18.7-52.1c0.4-3.7,1.4-7,2.7-10.4c5.3-13.5,10.5-27,15.5-40.6c1.3-3.4,2.6-6.8,4.5-9.9
				c6.6-10.9,11.8-22.5,16.8-34.1c1.9-4.5,4-8.8,7.2-12.5c6.3-7.4,9.5-16.1,9.7-25.8c0.1-3.5,1.2-6.2,3.4-9
				c5.9-7.1,9-15.7,10.9-24.6c0.7-3.4,2.1-6.1,4.2-8.8c2.3-2.8,4.3-5.9,6.1-9c1.1-1.8,2.5-3.9,2.4-5.8c-0.4-6.8,3.9-10.9,7.4-15.8
				c5.2-7.3,10.7-14.6,11.8-24.2c0.4-3.2,2.2-6.2,3.6-9.2c2.4-5,3.8-10,4.1-15.6c0.4-7.5,1.4-15,6.1-21.4c2-2.7,3.1-5.9,3.3-9.3
				c0.3-4.9,1.8-9.5,3.4-14c5.6-16.3,11.9-32.3,20.6-47.3c8.7-14.9,15.9-30.6,23-46.2c4.1-8.9,8.7-17.3,14.7-24.9
				c6.3-8,10.5-16.8,13.1-26.6c2.4-9,5.1-18,7.6-27c1.2-4.4,3.4-8.4,5.5-12.4c2-3.7,4.1-7.4,5.4-11.5c2.2-7.3,5.7-14,9.8-20.4
				c5.7-9,9.7-18.7,13.5-28.6c1.2-3.1,2.2-6.3,3.5-9.3c6.7-15.2,13.1-30.5,20.3-45.5c9.7-20.1,18.4-40.7,27.9-61.6
				c1.2,2.4,1.6,5.3,3.2,6.2c4.1,2.3,5.2,4.9,3.3,9.3c-1.2,2.8-0.1,4.4,2.4,6.1c1.5,1,3.2,1.4,5,1.9c3.4,0.8,3.6,2.4,1,4.8
				c-2.7,2.5-2.8,2.7-0.2,4.1c2.2,1.2,4.1,2.5,4.4,5.3c0.1,1.3,0.7,2.4,1.9,2.9c4.3,1.7,3.9,5.3,2.8,8.3c-2,5.2-0.4,9.1,2.6,13.3
				c1.7,2.4,2.8,5.3,4.1,8c1.6,3.5,2.4,7.3,4.8,10.5c0.9,1.1,1.4,2.8,1.4,4.2c0,6.5,3.1,12.2,4.1,18.5c0.6,3.7,2.8,6.7,5.6,9.1
				c3,2.6,4.6,5.5,3.4,9.5c-0.7,2.3,0,4.4,2.1,5.4c2.6,1.2,2.7,3.4,3.4,5.7c1.2,3.9,2.9,7.6,2.6,12c-0.2,2.5,1.4,5.2,2.7,7.6
				c2.3,4.5,5.4,8.6,7,13.6c0.9,3,4.8,4.3,4.3,8.4c-0.3,2.7,2.3,5,2.7,8.2c0.5,3.9,2.8,7.9,5.2,11.2c1.6,2.1,2.1,4.2,2.5,6.5
				c1,5.6,3.4,10.3,8.4,13.4c0.2,0.6,0.2,1.2,0.5,1.7c0.5,0.9,0.7,2.5,2.4,2c1.5-0.4,1.6-1.6,1.2-2.8c-0.5-1.4-1.2-2.7-1.8-4.1
				c-2.6-3.6-2.3-8.4-5.1-12.2c-2.4-3.2-0.6-8.3-3.4-12c4.5,3.3,7.1,7.9,7.6,13.7c0.2,2.4,0.8,3.8,2.8,5.1c4.8,3.1,5,8.6,6.4,13.5
				c0.2,0.8-0.5,1.6-1.7,1.6c-2.5,0.1-3.6,1.6-4.3,3.9c-2.3,7.6-1.3,14.3,5,19.7c0.5,0.4,0.9,0.8,1.3,1.2c3.2,3.2,4.5,6.7,3,11.5
				c-2.1,6.6,0.6,11.9,6.8,14.7c1,0.4,2.4,0.5,3.4,0.1c1.4-0.5,1-2,0.8-3.1c0-0.3-0.2-0.6-0.2-0.9c-0.1-1.5-2.4-3.7,0.6-4.2
				c1.7-0.3,2.7,2,3,3.9c0.8,4.6,2.9,8.2,6.1,11.7c3.9,4.2,5.4,10.1,7.2,15.5c4.3,12.9,9.3,25.5,14.7,37.9c2.3,5.2,2.6,11.1,5.9,16
				c0.8,1.1-0.4,2.2-0.9,3.3c-2.1,4.6-2.1,4.6,1.8,8c0.7,0.6,1.5,1.2,1.7,2c0.1,0.6-0.5,1.8-1,2c-0.7,0.2-1.7-2.1-2.4,0.1
				c-0.3,0.8,0.4,1.9,1.4,1.9c3.7,0.2,5.1,2.7,5.9,5.7c0.7,2.6,0.6,5.5,1.6,8c1.4,3.7-0.1,8.7,4.7,10.9c0.9,2.9,1,5.9,1.5,8.8
				c0.7,4,2.3,7.8,3.7,11.7c0.6,1.7,1.8,3.1,3.2,4.3c2.4,2.1,2.6,2.2,4.6-0.4c2.7-3.4,4.9-3.6,6.7,0.1c2.7,5.5,3.9,11.3,2.9,17.4
				c-0.3,1.9-0.2,3.3,1.2,4.9c1.8,1.8,2.9,3.8-0.6,5.6c-1.8,0.9-1.6,3.4-0.4,4.9c2.6,3.2,3,7,3.8,10.9c1.6,7.5,5.5,14.2,9.1,21.1
				c2-1.1,4.1-2,6-3.3c1.1-0.7,1.5-2.9,3.3-1c1.4,1.4,1.7,3.3,0.9,5c-0.5,0.9-1.8,1.4-2.7,2.2c-1.3,1.1-1.4,2.5-0.2,3.5
				c0.5,0.4,1,0.8,1.5,1c3.3,1,4.4,3.3,3.1,6.3c-1.4,3.3-0.7,6.5-0.6,9.8c0,2.4-0.4,5.8,3.8,2.8c0.1-0.1,1.5,1.1,1.6,1.8
				c0.1,1.1-0.6,2.3-0.6,3.5c-0.2,2,1.3,3.6,3.2,3.5c1.2-0.1,2.4-0.5,3.5-0.9c2.2-0.8,3.4,0.3,4.2,2.2c0.7,1.6,1.8,3.2,1.4,5.2
				c-0.1,0.5-0.5,1.1-1,1.4c-0.4,0.2-1.3,0.3-1.6,0c-0.9-0.7-1.7-1.7-2.6-2.5c-0.3-0.3-1.2-0.4-1.4-0.3c-0.4,0.4-0.5,1.1-0.5,1.6
				c0,0.9,0.1,1.9,0.5,2.7c3.2,6.8,6.4,13.6,7.6,21.1c0.2,1.4,1.4,3.4,2.7,3.3c4.6-0.3,4.8,3,5.9,6c5.2,14.2,10.6,28.2,17.2,41.8
				c0.9,1.9,2.2,3.6,2.9,5.6c0.9,2.8,2.3,4.9,5.2,5.7c1.7,0.5,2.8,1.9,2.5,3.3c-1.5,7.2,1.7,13,5.5,18.6c2.1,3.2,3.2,6.4,2.9,10.1
				c-0.2,3.7,0.9,7.2,2.2,10.6c1.1,2.8,2.7,6,5.6,6.8c5.2,1.6,6.8,6.3,9.4,9.9c1.4,1.9,3.5,4.3,1.4,7.4c-0.8,1.1,0.8,2.1,1,3.2
				c0.3,1.9,3.3,3.1,1.3,5.6c-0.3,0.4,0.1,2,0.7,2.3c3.3,1.9,3.5,5.4,4.8,8.4c2.1,5,4.2,10,6.5,15c1.7,3.8,4.2,7.3,4.4,11.8
				c0.1,1.8,1.2,3.4,2.5,4.7c1.5,1.4,1.2,3.1,1,5c-0.8,7.3,0.7,13.8,8.2,17.2c2.7,1.2,1.9,4.3,3.8,5.8c-0.4,3.9,2.3,6.7,3.8,9.8
				c2,4,3.2,7.7,1.5,12.1c-0.5,1.3-0.4,3-0.3,4.5c0.1,0.8,0.5,1.5,1.6,1.8c4.5,1.3,5,1.8,3.3,5.1c-2,4-2.4,7.4,1.2,10.6
				c1.5,1.3,1.5,3.2,1.4,5c-0.1,2.1-0.4,4.2-0.3,6.3c0.2,2.7,1.1,5,3.5,7c3.7,3.1,6.5,7.1,10.5,9.9c0.4,0.3,0.5,1.1,0.7,1.6
				c1.4,0.9,2.9,1.9,4-0.4c0,0,0,0,0,0c0.7-0.3,1.4-0.6,2-0.9c1.8,2.4,2,5,1.1,7.7c-1.4,4.5-0.3,8.6,2.8,11.8c2.9,3,3.3,6.3,2.8,10
				c-0.5,3.4-0.1,6.6,2.6,9.2c1.7,1.6,1.6,3.8,1.8,5.9c0.4,4,1.8,7.5,3.8,11c5.2,8.9,10,18,15,26.9c1.4,2.4,2.3,4.9,2,7.7
				c-0.3,3.2,1,5.8,2.8,8.4c11,15.3,19,32.2,25.5,49.8c5.4,14.4,11.3,28.7,18.9,42.1c0.6,1,0.9,2.2,1.3,3.3c1.5,1.5,2.6,3.2,2.6,5.4
				c1,1.5,2.1,2.9,2.9,4.5c5.7,11.9,11.4,23.9,17,35.9c0.4,0.8,0.4,1.7,0.5,2.6c0.5,1.3,1.1,2.6,1.6,3.8c1.3,1.3,1.4,2.8,1.1,4.5
				c0.7,4.5,1.5,8.9,2.2,13.4c0.3,1.8,1,4.4,2.6,4.4c5,0.3,4.9,4.5,6.5,7.4c2.7,5.1,6.9,9.6,7.7,15.2c0.8,5.3-0.1,10.8-0.6,16.3
				c-0.3,3.4,0.6,6,3.3,7.8c9.7,6.7,11.6,17.1,13.2,27.6c0.2,1.5,0.3,3,0.4,4.5c1.4,16.5,9.7,29.6,20.9,41.2c2.3,2.3,5.3,4,8,6
				c0.1,6.3-0.1,12.6-3.5,18c1.7,2.2,3.8,2.9,5.8,2.9c5-0.2,6.8,3,8.3,6.9c0.3,0.8,0.9,1.7,1,2.5c0.4,2.7,0,5.6,1,8
				c1,2.4,3.7,3.6,5.2,6c6,9.1,11,18.7,14.9,28.9c4.2,11,9.7,21.4,17.1,30.8c2.7,3.4,4.5,7.2,5.1,11.5c0.7,5.3,3.1,10.4,3,15.9
				c-2.7,0.8-2.2-1.5-2.8-2.4c-1.1-1.6-2.4-2.7-4.1-3.5c-1.1-0.5-2.4-0.9-3.3,0.1c-0.5,0.6-0.9,1.6-0.8,2.4c0.2,1.5,0.4,3.1,1.2,4.3
				c2.1,3,4.4,5.8,6.7,8.5c0.7,0.8,1.8,1.8,3.1,1.1c3.2-1.5,5,0.7,7,2.6c2.1,1.9,3.6,3.7,3.5,6.8c-0.1,5.8,2.8,11.1,3.7,16.7
				c0.2,1.1,1,2.5-0.8,2.8c-0.6,0.1-1.4-0.9-1.9-1.5c-0.6-0.7-0.9-1.5-1.5-2.5c-2.3,3.9,0,5.9,1.4,8.1c0.2,0.3,1.1,0.3,1.6,0.3
				c0.6-0.1,0.7-0.6,0.4-1.4c-0.3-1,0.1-1.8,0.9-2.2c1.4-0.6,2.4,0.3,2.8,1.4c3.2,8.3,8.7,15.2,13.2,22.6c2.5,4.1,4.1,8.7,5.9,13.2
				c2.5,6.5,4.8,13,7.3,19.5c1.4,3.7,3.3,7.1,5.3,10.5c4.1,7.1,6.1,15,7.3,23.1c0.3,2.1,0.2,4.2,0.6,6.3c0.2,1.1,0.9,2.9,1.6,3
				c4.5,0.7,3.7,4.6,4.8,7.4c0.9,2.5,1.5,5.2,2.2,7.8c0.7,2.6,1.5,5.3,3.5,7.3c3.9,3.8,5.6,8.5,6.7,13.6c2.6,12,7.8,22.9,15.9,32.1
				c3.2,3.7,4.6,7.7,4.1,12.4c-0.2,1.5,0.1,3-0.1,4.5c-1,7.6,1,14,6.6,19.6c4.3,4.3,6.3,10.2,7,16.4c0.4,4.2,1,8.4,1.2,12.6
				c0.4,6.5,2.1,12.7,6.5,17.5c10.9,12.2,16.1,26.7,18.7,42.5c1,5.9,2.3,11.8,3.4,17.7c-1.3,1.4-2-0.5-3-0.5
				c-2.8-0.1-3.7-1.3-3.8-4.5c-0.3-7-3.7-13.2-6.1-19.7c-0.4-1.1-2.2-0.9-3.1,0.1c-1.6,1.8-2.3,4.1-1.3,5.9c2.3,4.1,2.5,8.6,3.8,13
				c0.3,0.9,1,1.7,1,2.5c0,3,4.7,3.9,3,7.8c-1.4,3,2.2,5.4,1.7,8.6c-0.4,2.9,2.2,5.6,1.4,8.8c0,0,0,0,0,0c-2.1,0.1-3.1-1.9-4.8-2.5
				h0c-1.5-3-2.9-6-6.1-7.6c-1.1-0.5-2.2-1-3.3-1.2c-2.4-0.4-3.6,1.1-3,3c0.8,2.6,1.6,5.3,3.9,7c1.8,1.3,3.2,3,3.6,5.1
				c1.7,9.3,7.1,17.2,10,26.1c3.4,10.7,8.8,20.5,14.6,30.1c2,3.4,3.6,6.5,2.3,10.9c-1.4,4.6,0.9,9.1,4.6,12.1
				c3.6,2.9,6.1,6.4,7.7,10.7c1.7,4.2,6,6.1,8.7,9.7c2.5,3.4,4.9,6.8,6.4,10.8c2.2,5.8,4.8,11.5,7.3,17.5c-3.8,0.4-4.5-2.2-5.5-4.3
				c-4.3-9.3-9.9-18-13.2-27.7c-0.3-0.8-0.7-1.7-1.3-2.3c-0.3-0.3-1.1-0.3-1.7-0.3c-0.2,0-0.4,0.4-0.5,0.7c-0.1,1.2-0.4,2.4,0,3.5
				c3.3,9.4,5.2,19.3,10.9,27.7c1.5,2.1,1.9,4.3,1.1,6.8c-1.4,4.9,0.3,8.9,3.9,12.2c1.1,1,2.2,2.1,3.3,3.1c1.1,1.1,1.9,2.3,1.6,4
				c-1.4,6.8,0.7,12.5,5.7,17.2c1.9,1.7,1.5,3.8,1.6,5.9c0.1,3.6,1.6,5.6,5.5,5.4c1.4-0.1,2,0.9,2.2,2.3c0.7,6.8,0.5,13.7,2.3,20.3
				c0.8,3.1-1.5,5-2.2,7.6c-0.5,2.1,0.5,3.8,2.6,3.4c5.3-1.2,10,1.4,15.1,2.1c1.4,0.2,2,1.1,2,2.5c0,4.3,4.3,6.6,5.2,10.2
				c1,3.7,0.4,7.8,0.9,11.7c0.2,1.7,1.1,3.4,2,5c0.9,1.6,0.5,2.8-0.8,3.9c-0.7,0.6-1.4,1.2-2.1,1.7c-5.1,3.2-6.2,7.8-4.5,13.3
				c2.6,4.7,5.7,9,10.4,11.9c2.2,1.3,3.5,2.9,3.7,5.6c0.4,4.6,3.7,8,5.3,12.1c0.9,0.7,2.4,1.2,1.5,2.7c-0.9,1.5-2.3,2.8-3.2,4.4
				c-1.9,3.3-2.1,5.1-0.5,7.1c0.5,0.7,1.3,1.4,2.3,2.1c1.2,0.9,2.4,1.8,3.7,2.6c1.5,0.9,1.8,2.3,1.7,3.9c-0.1,1.2-0.3,2.4-0.5,3.6
				c-0.8,4.6,0.7,8.3,4.6,11c1,0.7,1.8,1.6,2.8,2.3c2.1,1.5,3.9,3.3,5.5,5.2c3.4,4.1,5.6,8.9,7.1,14.2c0.7,2.6,1.4,5.3,1.9,7.9
				c1.6,8.7,4.6,16.9,8.5,24.8c3.9,7.9,7.7,15.7,12,23.4c3.6,6.4,5.5,13.3,6.7,20.5c1.5,9,2.9,18.1,1.7,27.1
				c-1,7.3-0.4,14.4,0.1,21.7c0.4,5.5,2.1,10.7,4.6,15.6c3.4,6.9,8.2,12,16.8,11.6c2.4-0.1,4.1,1.1,5.2,3c4.7,7.5,8.4,15.2,10,24
				c3,16,4.9,32.3,12.1,47.2c0.8,6,5.4,7.7,10.2,8.7c3.8,0.8,8.5-1.7,10-4.8c1.6-3.3,0.7-6.3-2.8-9.5c-3.1-2.9-6.2-5.8-9.3-8.7
				c-2-1.9-2.3-4-1.6-6.6c1.6-5.9,3.7-11.5,6.4-16.9c4.3-8.5,6.9-17.4,7.6-26.9c0.1-1.1-0.3-2.5,1.9-2.8c3.5,2.5,6.3,5.9,8.9,9.6
				c5.9,8.4,11.7,16.9,17.5,25.4c2.8,4,5.1,8,4.3,13.4c-0.5,3.7,6.1,9.9,10,10.1c1.6,0.1,2.9-0.7,4-1.8c3-3,5.5-6.4,6-10.9
				c0.2-1.8,0.1-3.6,1.6-5c2.6-2.6,5.3-5,7.6-7.8c2.7-3.2,7-0.5,10-3.1c1.4-1.2,2.5,1,3.7,1.8c1.2,0.7,2.1,0.9,3.2-0.1
				c1.1-1,1.1-2.2,0.8-3.3c-0.3-1.1-1-2.2-1.6-3.2c-0.6-1-1.2-2-1.7-3c-0.3-0.6,0-1.2,0.8-1.4c0.6-0.1,1.6-0.3,1.7-0.1
				c1.6,2.9,2.9,5.9,7,6c0.5,0,1.2,1.2,1.6,2c0.7,1.3,1,2.9,1.8,4.1c0.6,1,1.7,1.8,3,1.2c1.2-0.6,1.7-1.7,1.6-3
				c-0.1-1.2-0.5-2.4-0.7-3.5c-0.8-4.7-2-9.5-2.3-14.2c-0.3-4.5-0.2-9-1.6-14.1c4.4,1.7,7.3,4.3,9.5,7.4c3.2,4.4,6.1,8.9,4.6,15
				c-0.9,3.5-0.7,7.3,4.4,8.2c0.8,0.1,1.4,1.7,2.1,2.7c1.9,3.1,3.8,6.2,5.8,9.2c2.6,4,6.2,6.7,10.9,7.6c5.9,1.1,9.6,4.6,11.7,10.1
				c1.1,2.8,3.3,3,5.6,1c2.5-2.2,3.3-5,3.3-8.1c0-2.7-0.3-5.5,0.7-8.1c0.5-1.4,1.1-2.9,2.2-3.9c0.6-0.6,2.2,0,3.4,0
				c5,0,7.7-2.2,8.6-7.1c0.2-0.9,0.2-1.8,0.4-2.7c0.3-1.1,1.5-1.2,2.2-0.8c1.3,0.7,2.6,1.6,3.6,2.7c4.1,4.3,9.1,6.9,15.1,7.5
				c1.2,0.1,2.3,0.5,3.7,0.9c0.2,4.1,0.2,8,0.5,11.9c0.4,4.7,3.6,6.2,7.4,3.2c2.6-2,5.3-4.2,7.3-6.7c4.9-6,5.9-5.9,7.9,1.5
				c0.5,2,1.2,4,1.9,6c2.2,6.2,4.3,12.6,8.4,18c1-0.6,1.8-0.9,2.4-1.4c1.5-1.4,2.4-3.5,5.2-2.7c2.3,0.7,4.7,0.7,5.3,3.9
				c0.2,1,1.2,2.3,2.2,2.7c3.8,1.7,4.7,5.2,5.7,8.7c0.3,1.1,1,2.2,1.6,3.2c1.3,2,3.3,2.4,5.5,1.4c3.6-1.6,5.3-4.8,6.6-8.2l0.3,0.1
				c0,0,0-0.5,0-0.5c2-6.6,2.6-13.4,2.8-20.2c0.6-2.7,0.6-5.4,0-8.1c-0.2-4.3-0.4-8.6-1.6-12.8c0.8-0.8,1.5-1.7,2.3-2.5
				c2.2,4.9,6.3,6.3,11.2,5.8c3.9-0.4,7.7-1.4,11.6-2c3.2-0.5,5.9,0.3,7.7,3.3c0.9,1.5,2,3,3.1,4.4c0.8,1,2.1,0.7,2.8-0.5
				c1.5-2.4,2-5.1,1.9-7.8C2537,2930.1,2536.8,2923.1,2536,2916.2z"/>
			<path class="st3" d="M272.9,2875.2c-0.6,0.3-1.6,0.6-2,1.2c-1.5,2-2.3,4.2-1.3,6.6c0.7,1.7,2,3.2,3.8,3.4
				c1.9,0.2,3.3-1.2,4.2-2.8c1.2-2.2,1-4.6-0.5-6.7C276.1,2875.7,274.6,2875.3,272.9,2875.2z"/>
			<path class="st3" d="M73.4,2908.5c-1.2-0.8-2.3-1.7-3.4-2.5c-1.7,1.2-2.5,2.7-2.8,4.5c-0.3,2.3,0.9,5.1,2.4,5.2
				c1.9,0.1,3.4-1.1,4.3-2.6C75,2911.5,75.3,2909.8,73.4,2908.5z"/>
			<path class="st3" d="M23.6,2843.4c-0.9-0.2-1.7,0.3-2,1.3c-0.6,2.3,0,4.5,1.4,4.6c1.7,0.1,2.8-0.7,3.5-2.2
				C27.1,2845.7,25.5,2843.8,23.6,2843.4z"/>
			<path class="st3" d="M338.3,2952.4c-2.1,0.8-2.7,2.8-3.3,4.6c0,0.1,0.9,0.4,1.3,0.7c2.2-0.6,3.3-2.2,2.9-4.4
				C339.3,2952.9,338.5,2952.3,338.3,2952.4z"/>
			<path class="st3" d="M1827.3,1932.7c-2.4-5.2-4.7-10.4-6.5-15.9c-2.3-6.9-4.2-13.8-8.5-19.8c-0.8-1.2-1.5-2.7-1.8-4.1
				c-1-5.1-3.6-9.6-5.5-14.3c-2.9-7.2-7.2-13.9-9.5-21.4c-0.7-2.2-1.6-4.6-3.6-6.2c-0.3-0.3-1-0.1-1.5,0c-0.2,0-0.3,0.5-0.3,0.8
				c0,0.9-0.2,1.9,0.1,2.7c1.9,5.4,3.7,10.8,6,16c1.7,3.8,2.9,8,4.8,11.5c2.7,5.1,3.5,11.6,9.1,15.1c1.3,0.8,1.6,2.4,1.7,4
				c0.7,7.3,2.7,14.1,7,20.2c1.2,1.7,1.5,3.8,2,5.9c1.2,4.9,2.5,9.9,6.8,13.1c0,0,0.1,0,0.1,0
				C1828.9,1937.8,1828.5,1935.4,1827.3,1932.7z"/>
			<path class="st3" d="M1936.4,2203.5c-2.1-6.3-4.3-12.5-8-18.1c-2.8-4.3-4.6-9.2-5.2-14.3c-0.3-2.1-0.7-4.2-2-6
				c-1.9-2.8-3.1-5.8-4-9c-0.4-1.4-1.3-2.7-2.1-4c-0.3-0.4-1-0.6-1.5-0.7c-1.4-0.2-1.2,1-1.4,1.6c-0.3,3.6,0.3,7,2.1,9.7
				c2.2,3.3,3.9,7,4.9,10.6c1,3.6,2.2,7,4.3,10.1c0.2,0.2,0.4,0.5,0.4,0.8c0,5.5,3.4,10.3,3.2,15.8c-0.1,2.6,0.2,5,3.9,3.5
				c1.5,2,4.7,2.7,4.3,6.1c-0.1,1.1,0.3,2.7,1,3.3c2.5,1.8,2.8,4.3,3.1,7c0.2,1.7,1.3,3.3,2.1,4.9c0.2,0.3,1.1,0.5,1.5,0.3
				c0.4-0.2,0.9-1,0.8-1.4c-0.4-2.1-0.7-4.3-1.7-6.1C1939.6,2213.2,1938,2208.4,1936.4,2203.5z"/>
			<path class="st3" d="M1889.9,2081.9c-0.6-2-1.4-4-2.5-5.8c-2.5-4-6-5.4-10.6-3.5l-0.1-0.1c3.5,4.5,5,10.1,7.5,15.2
				c2.3,4.7,6.5,8.4,7.6,13.8c0.1,0.7,2.1,1.6,3,1.4c1.5-0.3,1-1.9,0.7-2.9C1893.6,2093.9,1891.8,2087.9,1889.9,2081.9z"/>
			<path class="st3" d="M1927.3,2160c4.4,6,8.6,12.3,11.6,19.2c0.3,0.8,1.1,1.5,2.1,0.9c0.4-0.2,0.7-1.1,0.6-1.5
				c-2.2-8.5-5.6-16.5-9.6-24.3c-0.7-1.4-1.9-2.3-3.4-2.8c-1-0.3-1.8-0.1-2.2,0.9c-0.3,0.8-0.4,1.7-0.6,2.6
				C1926.1,2156.6,1926.1,2158.4,1927.3,2160z"/>
			<path class="st3" d="M1978.1,2314.4c-3.7-2.9-4.8-7.3-6.6-11.3c-2.2-4.8-3.4-9.6-1.3-14.8c0.2-0.5,0.1-1.2,0.1-2.1
				c-0.4-0.5-0.8-1.5-1.5-1.7c-1.4-0.5-3-0.3-4.4-0.7c-0.7-0.2-1.3-0.3-1.4,0.5c-0.1,0.5,0.2,1.2,0.6,1.4c2.4,1.5,2.6,3,0.2,4.7
				c-0.8,0.6-0.9,1.6-0.3,2.4c1.9,2.4,3.2,5,3.5,8.2c0.1,1.1,0.9,2.3,1.6,3.2c2.1,2.6,3.7,5.4,3.9,8.9c0.1,1.8,1.4,3.3,3.2,4.1
				c0.9,0.4,1.8,0.5,2.4-0.3C1978.8,2316.1,1978.8,2315,1978.1,2314.4z"/>
			<path class="st3" d="M1996.4,2364.3c-1.2-8.1-1.2-8.1-7.8-18.9c0.1,7.4,2.4,12.2,4.8,17C1994,2363.6,1994.6,2364.9,1996.4,2364.3
				z"/>
			<path class="st3" d="M1846.1,1982.3c-0.6,0.2-1.2,0.4-1.8,0.6c0.4,3.8,1.1,7.7,0.6,11.5c-0.2,1.2,1,2.3,2.2,2.5
				c1.4,0.2,2.1-0.9,2.8-1.8c1.4-1.9,1.1-4.1,0.2-6C1849,1986.7,1847.4,1984.5,1846.1,1982.3z"/>
			<path class="st3" d="M1836.8,1958.5c-2.6-2.8-3.2-6.3-3.9-9.8c0.1-1.7-1.5-1.5-2.5-2.1c0.2,0.4,0.5,0.8,0.7,1.3
				c-0.7,1.8-0.4,3.6,0,5.5l-0.3,0.5c0,0,0.5,0,0.5,0c-0.1,3.9,2.4,7.5,1.2,11.5c0.7,0.4,1.5,0.8,2.1,1.3c1,0.7,2,1.5,3.2,0.8
				c1.5-0.9,1.5-2.6,1.1-4C1838.4,1961.7,1837.9,1959.8,1836.8,1958.5z"/>
			<path class="st3" d="M1977.3,2278.8c0.1,0.2,0.2,0.3,0.3,0.5c-0.1-0.2-0.1-0.4-0.2-0.6L1977.3,2278.8z"/>
			<path class="st3" d="M1983.2,2286.3c-1.1-0.4-2.7-0.2-2.6-1.7c0.2-2.5-2-3.5-3-5.2c0.7,2.9-1.1,5.6-0.4,8.6
				c0.6,2.9,4.5,5.4,7.3,4.1c0.4-0.2,0.8-0.9,0.9-1.5C1985.5,2288.7,1985.2,2287,1983.2,2286.3z"/>
			<path class="st3" d="M1915.6,2123.1c0.3,0.5,0.8,0.8,1.3,1.1c0.2,0.1,0.6,0.1,0.9,0c0.7-0.2,1-0.7,0.7-1.4
				c-2-5.1-6-8.6-10.4-11.6C1910.6,2115.1,1913.1,2119.1,1915.6,2123.1z"/>
			<path class="st3" d="M1867.7,2032.8c-1,1.4-1.6,2.1-2.1,2.8c-0.3,0.5-0.6,1-0.9,1.6c-0.9,2.3-0.1,4.8,2,6.2
				c1.6,1,2.8-0.1,4.1-0.9c0.8-0.5,1-1.4,0.5-2.3C1870.3,2038,1869.2,2035.9,1867.7,2032.8z"/>
			<path class="st3" d="M1858.3,2010.6c-1.2-3-2.7-5.8-4-8.7c-1.8,3.8-0.9,7.3,0.7,10.5c0.4,0.9,0.7,2.6,2.3,2
				C1859.1,2013.8,1858.9,2012,1858.3,2010.6z"/>
			<path class="st3" d="M1900.3,2089.1c2.6,4.8,4.5,8.1,6.3,11.5c0.4,0.7,1,0.7,1.5,0.2c0.4-0.4,1.1-0.9,1-1.2
				C1908.6,2094.9,1907.1,2090.9,1900.3,2089.1z"/>
			<path class="st3" d="M1945.3,2194.8c-0.6,0.1-1.6,1.3-1.5,1.7c0.4,1.7,0.9,3.5,3,3.9c1.2,0.2,2.3,0,2.7-1.4
				C1949.8,2196.4,1947.8,2194.2,1945.3,2194.8z"/>
			<path class="st3" d="M1896.3,2117.3c1.3,3.9,2.2,7.4,7,7.1C1901.9,2121.5,1900.4,2118.6,1896.3,2117.3z"/>
			<path class="st3" d="M1903.6,2124.4c-0.1,0-0.2,0-0.3,0c0.2,0.4,0.4,0.9,0.7,1.3c0,0,0,0.1,0,0.1c0,0,0.1,0,0.1-0.1
				C1904,2125.4,1903.8,2124.4,1903.6,2124.4z"/>
			<path class="st3" d="M1911.8,2141.8c-1.4-2.7-3.5-4.6-8.1-6.9c2.5,4.3,3.9,6.8,5.5,9.2c0.4,0.6,1.8,1.2,2.1,1
				C1912.2,2144.3,1912.3,2142.9,1911.8,2141.8z"/>
			<path class="st3" d="M1975.8,2272.6c-0.3-0.4-0.9-1-1.3-0.9c-0.5,0-1.1,0.5-1.4,1c-1.6,2.5-1.3,3.8,1.6,4.6
				c0.4,0.1,0.9,0.1,1.3,0.2c0-0.2,0-0.3,0.1-0.5C1976.6,2275.4,1976.7,2273.9,1975.8,2272.6z"/>
			<path class="st3" d="M1976,2277.4c0,0.7,0.6,1.1,1.3,1.4c0,0,0.1-0.1,0.1-0.1C1977.1,2277.8,1976.6,2277.5,1976,2277.4z"/>
			<path class="st3" d="M1821.9,1943.4c-1.5,0.6-1.6,2.3-1,3.9c0.2,0.5,0.5,1.1,0.9,1.5c0.7,0.8,2.5,0.3,2.8-0.9
				c0.2-0.8,0-1.7,0-2.5C1823.9,1944.4,1823,1943,1821.9,1943.4z"/>
			<path class="st3" d="M1859.1,2017.7c-0.6-0.3-1.1,0-1.4,0.7c-0.9,2.2,0.5,4.6,2.6,4.5c0.4,0,1.2-0.6,1.2-0.9
				C1861.7,2020,1861.2,2018.4,1859.1,2017.7z"/>
			<path class="st3" d="M1968.8,2250.6c0.5-0.2,0.9-1.5,0.9-2.3c-0.2-1.8-1.1-3.2-3.4-4c0.1,1.6,0.1,3.1,0.3,4.5
				C1966.7,2250,1967.3,2251.2,1968.8,2250.6z"/>
			<path class="st3" d="M1989.1,2342.1c0.4,0,0.9-0.8,0.9-1.2c0-1.6-1-2.6-2.6-2.6c-0.5,0.3-1.2,0.4-1.4,0.8
				C1985.4,2340.2,1987.5,2342.3,1989.1,2342.1z"/>
			<path class="st3" d="M1827.9,1941.9c-0.2,0-0.1-1-0.2-1.5c0,0-0.1,0-0.1,0c0.2,1.8-0.2,3.3-1.4,4.3c1.4,0,2.6,1.5,4,1.6
				C1830,1944.5,1830.4,1942.5,1827.9,1941.9z"/>
			<path class="st3" d="M1824.5,1945.4C1824.6,1945.4,1824.6,1945.5,1824.5,1945.4c0.7-0.1,1.2-0.4,1.6-0.7c-0.5,0-1,0.1-1.6,0.6
				C1824.5,1945.3,1824.5,1945.4,1824.5,1945.4z"/>
			<path class="st3" d="M1952.9,2212.2c-0.4,0-0.9,0.7-1.1,1.1c-0.2,0.5-0.3,1.2-0.2,1.7c0.1,0.5,0.3,1.3,0.7,1.5
				c0.9,0.4,1.6-0.2,2-1c0.2-0.5,0.2-1.1,0.4-1.7C1954.5,2212.9,1953.9,2212.1,1952.9,2212.2z"/>
			<path class="st3" d="M1924.6,2143.5c-0.9,0.1-1.7,0.6-1.7,1.6c0,1.3,0.7,2.1,2,2.3c1-0.1,1.6-0.6,1.5-1.6
				C1926.3,2144.7,1926.2,2143.4,1924.6,2143.5z"/>
			<path class="st3" d="M1960.2,2228.8c-1.4-0.3-0.9,1-1.2,1.7c0.1,0.8,0.3,1.7,0.4,2.6c0,0.2,0.3,0.5,0.5,0.6
				c0.6,0.3,1.1,0,1.1-0.8c0-0.9,0-1.8-0.1-2.7C1960.8,2229.6,1960.5,2228.8,1960.2,2228.8z"/>
			<path class="st3" d="M1829.3,1965.5c-0.4,0.5-0.1,1.2,0.5,1.4c0.5,0.1,1.1,0,1.5-0.3c0.4-0.3,0.8-0.8,1.1-1.2
				c-0.5-0.1-1.1-0.3-1.6-0.3C1830.3,1965.1,1829.6,1965.1,1829.3,1965.5z"/>
			<path class="st3" d="M1832.4,1965.4C1832.4,1965.4,1832.5,1965.4,1832.4,1965.4c0.1,0,0.1,0,0.1-0.1
				C1832.5,1965.3,1832.5,1965.3,1832.4,1965.4C1832.5,1965.3,1832.4,1965.4,1832.4,1965.4z"/>
			<path class="st3" d="M1904.3,2127.5c-0.1-0.5-0.2-1-0.2-1.6c-0.5,0.3-1,0.5-1.3,0.9c-0.5,0.6-0.9,1.3-1.4,1.9
				c0.4,0.3,0.9,0.8,1.3,0.9C1904.2,2129.7,1904.6,2128.9,1904.3,2127.5z"/>
			<path class="st3" d="M1830.2,1946.4C1830.2,1946.3,1830.2,1946.3,1830.2,1946.4C1830.2,1946.3,1830.2,1946.3,1830.2,1946.4
				C1830.1,1946.3,1830.1,1946.4,1830.2,1946.4c0,0.1,0.1,0.2,0.2,0.2C1830.3,1946.5,1830.3,1946.4,1830.2,1946.4
				C1830.2,1946.3,1830.2,1946.3,1830.2,1946.4z"/>
			<path class="st3" d="M1876.7,2072.5C1876.7,2072.5,1876.7,2072.5,1876.7,2072.5c0,0.1,0.1,0.2,0.1,0.2
				C1876.7,2072.6,1876.7,2072.5,1876.7,2072.5z"/>
			<path class="st3" d="M1876.6,2070.6c0.1,0.1,0.1,0.1,0.2,0.2c0.1-0.1,0.2-0.2,0.3-0.2C1877,2070.6,1876.8,2070.6,1876.6,2070.6z"
				/>
			<path class="st3" d="M1876.9,2070.8c-0.5,0.5-0.5,1-0.2,1.6c0.2-0.4,0.4-0.9,0.5-1.3C1877.2,2071.1,1877,2071,1876.9,2070.8z"/>
			<path class="st3" d="M2180.2,1960.7c0,0.1,0,0.2,0,0.3c0,1.2,0,2.5,1.1,3.2c0.2,0.1,0.4,0.3,0.6,0.4
				C2182.5,1962.7,2181.5,1962.2,2180.2,1960.7z"/>
			<path class="st3" d="M2183.1,1973.7c3.1,2.2,3,4.5,2.8,7.6c-0.3,4.5,2.6,8.4,3.1,12.8c0.3,2.9-0.1,7.1,4.8,7.4
				c0.4,0,1.1,1.4,1.1,2.2c0.3,2.2,0.7,4.5,2.2,5.8c3.1,2.7,2.7,7.4,5.7,9.9c3.9,3.2,2.2,7.9,3.9,11.7c0.6,1.4,1,3.1,2,4
				c2.6,2.4,3.1,5.8,4.3,8.8c1.1,2.8,1.9,5.8,3.4,8.3c2.2,4,3.7,8.2,5.3,12.5c0.9,2.6,1.6,5.2,2.9,7.6c2.8,5.1,4.6,10.5,6.1,16
				c1.1,3.8,2.2,7.5,4.4,10.8c1,1.5,1.8,3.1,1.4,5.1c-0.2,1.1-0.3,2.9,0.3,3.4c3.8,3.5,3.7,8.8,6.4,12.8c1.7,2.5,2.5,5.4,3,8.5
				c1.2,7.5,2.9,14.7,9,20.1c2.5,2.3,3.5,5.5,3.7,9c0.3,4.5,1.3,9,3.4,13.1c1.9,3.7,4,7.4,5.9,11.1c0.5,1,1.3,2.4,1,3.3
				c-1.5,4.1,1.3,6.6,2.5,9.9c1,2.7,4.1,3.5,4.3,5.6c0.2,3.7,2.7,5.9,3.9,8.8c1,2.2,1.7,4.3,3.7,5.7c-0.4,7,4.6,12.2,6.2,18.5
				c0.6,2.3,1.3,4.4,1,6.9c-0.7,5,0.5,7.2,4.5,10.9c0.8,0.8,1.6,2,1.7,3c0.4,6.4,3.5,11.5,8,15.7c1.9,1.8,2.4,3.2,0.6,5.3
				c-1.9,2.2-1.7,4.2,0.3,6.4c2.3,2.4,4,5.3,6.3,7.7c2.2,2.3,3.1,4.7,2.7,8.1c-0.4,4.6,0.8,5.9,5.7,8.4c-0.1-2.9-2.9-5-2.1-7.8
				c1.8-6.4-0.7-12-3.7-17.1c-2.6-4.4-4-8.6-3.4-13.6c0.3-2.7-0.7-3.6-3.6-2.4c-1.3,0.6-2.1-1-2.1-2.2c-0.1-1.1-0.1-2.6,0.5-3.4
				c1.5-2.1,0.8-3.8-0.1-5.8c-3.5-8-6.5-16.2-12.9-22.6c-2-2-4-4.6-4.4-7.8c-0.2-1.5,0.2-2.4,1.7-2.3c2.2,0.2,2.8-1.1,2.1-2.7
				c-2.7-6.3-6.3-12.3-8.4-19c-1.3-4-2.9-7.9-4.5-11.8c-5.1-12.6-10.4-25.1-15.5-37.7c-1-2.6-1.8-4.9-4.7-6.3
				c-2.7-1.3-3.7-3.7-2.7-6.9c1.4-4.9,0.5-8.7-4.8-11c-3-1.3-3.5-3.5-1.8-6.8c1.1-2.3,1-3.9,0-5.9c-1.6-3.2-3.2-6.5-4.9-9.7
				c-1.4-2.7-3-5.3-3.2-8.4c-0.3-4.3-2.1-8.1-4.3-11.8c-1.2-2.1-2.1-4.3-3.4-6.4c-5.1-8.8-6.7-19.4-13.8-27.2
				c-0.4-0.4-0.4-1.1-0.5-1.7c-0.9-3.6-2.9-6.7-4.9-9.6c-2.4-3.3-4-6.6-3.5-10.9c0.2-1.7-0.4-3.6-1.1-5.3c-4.2-9.3-7.7-19-13-27.9
				c-2-3.4-3.3-7.1-4.9-10.6c-3.1-6.7-4.4-14.7-10.8-19.5c-0.1,0.2-0.2,0.5-0.3,0.7C2180.2,1968.2,2180.5,1972,2183.1,1973.7z"/>
			<path class="st3" d="M2171.6,1944.9c1.6,5.9,4.5,11.2,8.5,15.7c0,0,0.1,0.1,0.1,0.1c-0.1-6.8-3.5-12-7.9-17.2
				C2171.8,1944.3,2171.5,1944.7,2171.6,1944.9z"/>
			<path class="st3" d="M2155.8,1860.9c3.4-3.4,3.4-3.4,8.2,1.1c-0.6-4.5-1.5-7.7-3.4-10.3c-4.1-5.6-7.6-11.4-10.9-17.4
				c-0.1-0.1-0.5-0.1-1.4-0.2c0,2.5,1,5.1-0.3,7.5c-0.3,0.6,0,1.9,0.5,2.5C2152.5,1848.8,2154.3,1854.7,2155.8,1860.9z"/>
			<path class="st3" d="M2177.3,1901.4c1.3-0.1,2.1,2,4.3,1.5c-1.3-4.4-3.9-8.1-5.9-12.1c-1.2-2.4-2.3-4.9-3.5-7.4
				c-0.5-1.1-1.2-2.1-1.9-3c-0.3-0.4-1.1-0.5-1.6-0.7c-0.2,0.5-0.7,1.2-0.6,1.6c1.3,4.8,3.4,9.2,3.3,14.5
				C2171.4,1898.5,2173.3,1901.7,2177.3,1901.4z"/>
			<path class="st3" d="M2231.3,2032.8c2.1,3.9,4.1,7.9,6.2,13c2.6-5.4,1.5-9-1.6-12.4c-2-2.2-5.5-4.2-2.6-8.1
				c-0.4-3.5-2-6.2-5.3-7.6c-0.4-0.2-1.2,0.1-1.5,0.4c-0.4,0.4-0.8,1.3-0.6,1.5C2228.6,2023.7,2229.1,2028.7,2231.3,2032.8z"/>
			<path class="st3" d="M2213.4,1986.5c0.9,1.4,2,2.5,3.6,1.4c1.2-0.8,0.5-2.2,0.1-3.3c-0.7-1.9-1.7-3.8-2.7-6.2c-5,3.5-5,3.5-2,6.7
				C2212.7,1985.5,2213.1,1986,2213.4,1986.5z"/>
			<path class="st3" d="M2208.9,1969.6c1.3-1.3,1.1-2.7,0.1-4c-2.1-2.5-4.1-5.2-8.4-7.1c1.7,3.9,2.9,6.6,4.1,9.3
				C2205.7,1970,2207.6,1970.8,2208.9,1969.6z"/>
			<path class="st3" d="M2193.2,1931.7c-1.1-6-2.8-8.8-5.3-9c-0.2,0-0.7,0.2-0.7,0.4c0.1,3.5,2.4,5.8,4.5,8.3
				C2191.9,1931.6,2192.7,1931.6,2193.2,1931.7z"/>
			<path class="st3" d="M2264,2104.4c0.2,0,0.4-0.7,0.3-0.7c-2.5-1.9-1.9-4.6-2.1-7.1c0-0.3-0.8-0.6-1.2-1c-0.2,0.2-0.4,0.4-0.5,0.7
				c-1.2,3.1-0.3,5.8,1.9,8C2262.7,2104.7,2263.5,2104.5,2264,2104.4z"/>
			<path class="st3" d="M2167.4,1936.2c2-1.5,1.5-5.4-0.9-6.6c-0.4-0.2-1.3-0.1-1.5,0.2c-0.4,0.7-0.6,1.6-0.6,1.7
				c-0.2,2-0.3,3.2,0.7,4C2165.7,1936.1,2166.5,1936.9,2167.4,1936.2z"/>
			<path class="st3" d="M2290.5,2172.4c0.1,0.1,0.6,0,0.8-0.1c0.2-0.2,0.3-0.5,0.6-1c-0.9-3-2-6-4.8-8.1c-0.2-0.1-0.6-0.1-0.7,0
				c-0.2,0.2-0.5,0.6-0.4,0.8C2287.5,2166.8,2289,2169.6,2290.5,2172.4z"/>
			<path class="st3" d="M2294.6,2185.5c0.5-0.6,1.3-1.2,1.5-2c0.4-1.6-0.9-3.2-2.3-3.1c-0.9,0.1-1.8,0.6-1.7,1.7
				C2292.1,2183.7,2292.8,2184.9,2294.6,2185.5z"/>
			<path class="st3" d="M2257.7,2090.7c0.4-0.7,1.1-1.3,1.2-2.1c0.1-0.8-0.2-1.7-1.4-2c-0.4,0.7-1.2,1.4-1.1,2.1
				C2256.4,2089.4,2257.2,2090.1,2257.7,2090.7z"/>
			<path class="st3" d="M2316,2237.6c1.2-2.7,0.3-4.4-1-6.1c-0.3-0.3-0.8-0.4-1.2-0.6c-0.2,0.5-0.6,1.2-0.4,1.6
				C2314.1,2234.2,2315,2235.7,2316,2237.6z"/>
			<path class="st3" d="M2309.4,2216.3c0.4-1.7,0.4-3.4-1.2-4.5c-0.2-0.2-0.7-0.3-0.8-0.2c-0.4,0.3-0.7,0.7-1.2,1.3
				c0.6,1.2,1.1,2.4,1.9,3.6C2308.5,2217.2,2309.2,2217.1,2309.4,2216.3z"/>
			<path class="st3" d="M2255.7,2082.6c0.4,0,0.8-0.6,1.1-0.9c0.1-0.9-0.3-1.8-1.2-2c-0.9-0.2-1.8,0.1-1.7,1.3
				C2254.2,2082,2254.9,2082.6,2255.7,2082.6z"/>
			<path class="st3" d="M2284.9,2158.9c1.1-0.1,1.3-1,1.1-1.9c-0.3-0.9-0.8-1.7-1.9-1.2c-0.4,0.2-0.9,0.9-0.9,1.4
				C2283.2,2158.2,2283.9,2158.9,2284.9,2158.9z"/>
			<path class="st3" d="M2160.5,1917.8c-0.4,0.1-0.9,0.7-0.9,1c0.1,0.9,0.7,1.6,1.7,1.6c0.3,0,0.6-0.8,0.8-1.1
				C2162,1918.3,2161.6,1917.5,2160.5,1917.8z"/>
			<path class="st3" d="M2297.6,2192.5c0.3,0,0.8-0.6,1-1c0.3-1-0.2-1.6-1.2-1.7c-0.4,0.3-1.1,0.6-1.2,0.9
				C2296.1,2191.6,2296.6,2192.4,2297.6,2192.5z"/>
			<path class="st3" d="M2196.2,1940.6c0.5-0.2,1-0.3,1.6-0.5c-0.3-0.7-0.5-1.4-1-2c-0.5-0.6-1-0.3-1.3,0.4
				C2195.2,1939.5,2195.3,1940.2,2196.2,1940.6z"/>
			<path class="st3" d="M2155.7,1865.5c-0.1,0.9,0.5,1.6,1.4,1.9c0.4-0.2,1.1-0.4,1.3-0.8c0.4-1-0.2-1.7-1.2-1.8
				C2156.7,1864.8,2155.7,1865.2,2155.7,1865.5z"/>
			<path class="st3" d="M2245.4,2062.6c-0.1-0.2-0.2-0.5-0.3-0.7c-0.2,0.1-0.5,0.3-0.5,0.4c0.1,0.4,0.4,0.7,0.6,1
				C2245.3,2063,2245.3,2062.8,2245.4,2062.6z"/>
		</g>
	</g>
</g>
</svg>
